<svg width="216" height="216" viewBox="0 0 216 216" fill="none" xmlns="http://www.w3.org/2000/svg">
<path d="M177.61 189H36.2504C34.6904 189 33.4404 187.76 33.4404 186.22V82.1001C33.4404 81.1901 33.8904 80.3501 34.6404 79.8301L103.61 32.1801C105.63 30.8201 108.28 30.8301 110.24 32.1801L179.23 79.8201C179.98 80.3401 180.43 81.1901 180.43 82.0901V113.9C180.43 115.43 179.17 116.68 177.62 116.68C176.07 116.68 174.81 115.44 174.81 113.9V83.5401L107.01 36.7201L39.0804 83.5401V183.43H174.81V165.75C174.81 164.22 176.07 162.97 177.62 162.97C179.17 162.97 180.43 164.21 180.43 165.75V186.21C180.43 187.74 179.17 188.99 177.62 188.99L177.61 189Z" fill="#027DB3"/>
<path d="M177.65 84.8701C176.09 84.8701 174.82 83.6301 174.82 82.0901C174.82 80.5501 176.06 79.3101 177.61 79.3101H177.65C179.62 79.3101 180.71 78.1001 181.08 76.9801C181.24 76.4801 181.62 74.7701 179.84 73.5201L109.9 24.5001C108.12 23.2501 105.63 23.2501 103.86 24.5001L34.03 73.5301C32.24 74.7801 32.62 76.5001 32.78 76.9901C33.15 78.1201 34.24 79.3201 36.21 79.3201C37.77 79.3201 39.04 80.5601 39.04 82.1001C39.04 83.6401 37.8 84.8801 36.25 84.8801C32.09 84.8801 28.64 82.4501 27.42 78.6801C26.25 75.0501 27.56 71.2501 30.77 69.0001L100.6 19.9701C104.36 17.3401 109.41 17.3401 113.16 19.9701L183.09 69.0001C186.3 71.2501 187.61 75.0501 186.44 78.6801C185.22 82.4401 181.77 84.8801 177.65 84.8801V84.8701Z" fill="#027DB3"/>
<path d="M168.7 65.0901C167.14 65.0901 165.89 63.8501 165.89 62.3101V33.6301H145.35V43.9701C145.35 45.5001 144.09 46.7501 142.54 46.7501C140.99 46.7501 139.73 45.5101 139.73 43.9701V30.8601C139.73 29.3301 140.99 28.0801 142.54 28.0801H168.71C170.27 28.0801 171.52 29.3201 171.52 30.8601V62.3201C171.52 63.8501 170.26 65.1001 168.71 65.1001L168.7 65.0901Z" fill="#027DB3"/>
<path d="M137.44 149.75H129.57C128.4 149.75 127.46 148.82 127.46 147.67C127.46 146.52 128.41 145.59 129.57 145.59H135.32V141.93H129.57C128.4 141.93 127.46 141 127.46 139.85V132.02C127.46 130.87 128.41 129.94 129.57 129.94H137.44C138.61 129.94 139.55 130.87 139.55 132.02C139.55 133.17 138.6 134.1 137.44 134.1H131.69V137.77H137.44C138.61 137.77 139.55 138.7 139.55 139.85V147.68C139.55 148.83 138.6 149.76 137.44 149.76V149.75Z" fill="#027DB3"/>
<path d="M171.21 149.44H163.37C162.2 149.44 161.26 148.51 161.26 147.36V132.02C161.26 130.87 162.21 129.94 163.37 129.94C164.53 129.94 165.48 130.87 165.48 132.02V145.28H171.21C172.38 145.28 173.32 146.21 173.32 147.36C173.32 148.51 172.37 149.44 171.21 149.44Z" fill="#027DB3"/>
<path d="M185.45 149.75H177.62C176.45 149.75 175.51 148.82 175.51 147.67V132.01C175.51 130.86 176.46 129.93 177.62 129.93H185.96C187.13 129.93 188.07 130.86 188.07 132.01C188.07 133.16 187.12 134.09 185.96 134.09H179.74V145.58H185.46C186.63 145.58 187.57 146.51 187.57 147.66C187.57 148.81 186.62 149.74 185.46 149.74L185.45 149.75Z" fill="#027DB3"/>
<path d="M185.96 141.93H177.62C176.45 141.93 175.51 141 175.51 139.85C175.51 138.7 176.46 137.77 177.62 137.77H185.96C187.13 137.77 188.07 138.7 188.07 139.85C188.07 141 187.12 141.93 185.96 141.93Z" fill="#027DB3"/>
<path d="M144.34 149.75C144.18 149.75 144.01 149.73 143.85 149.69C142.72 149.42 142.02 148.3 142.29 147.18L146.07 131.52C146.3 130.58 147.14 129.92 148.12 129.92H153.18C154.16 129.92 155.01 130.58 155.23 131.52L159.01 147.18C159.28 148.3 158.58 149.42 157.45 149.69C156.32 149.95 155.18 149.27 154.91 148.15L151.52 134.09H149.79L146.4 148.15C146.17 149.11 145.3 149.75 144.35 149.75H144.34Z" fill="#027DB3"/>
<path d="M155.13 142.38H146.11C144.94 142.38 144 141.45 144 140.3C144 139.15 144.95 138.22 146.11 138.22H155.13C156.3 138.22 157.24 139.15 157.24 140.3C157.24 141.45 156.29 142.38 155.13 142.38Z" fill="#027DB3"/>
<path d="M104.68 148.38H52.3998C50.8398 148.38 49.5898 147.14 49.5898 145.6V92.4399C49.5898 90.9099 50.8498 89.6599 52.3998 89.6599H104.68C106.24 89.6599 107.49 90.8999 107.49 92.4399V145.6C107.49 147.13 106.23 148.38 104.68 148.38ZM55.2198 142.83H101.87V95.2199H55.2198V142.83Z" fill="#027DB3"/>
<path d="M78.5502 148.38C76.9902 148.38 75.7402 147.14 75.7402 145.6V92.4399C75.7402 90.9099 77.0002 89.6599 78.5502 89.6599C80.1002 89.6599 81.3602 90.8999 81.3602 92.4399V145.6C81.3602 147.13 80.1002 148.38 78.5502 148.38Z" fill="#027DB3"/>
<path d="M104.68 121.8H52.3998C50.8398 121.8 49.5898 120.56 49.5898 119.02C49.5898 117.48 50.8498 116.24 52.3998 116.24H104.68C106.24 116.24 107.49 117.48 107.49 119.02C107.49 120.56 106.23 121.8 104.68 121.8Z" fill="#027DB3"/>
<path d="M191.51 168.54H122.68C119.1 168.54 116.19 165.67 116.19 162.14V117.54C116.19 114.01 119.1 111.14 122.68 111.14H191.51C195.09 111.14 198 114.01 198 117.54V162.14C198 165.67 195.09 168.54 191.51 168.54ZM122.68 116.69C122.2 116.69 121.82 117.07 121.82 117.54V162.14C121.82 162.61 122.21 162.99 122.68 162.99H191.51C191.99 162.99 192.37 162.61 192.37 162.14V117.54C192.37 117.07 191.98 116.69 191.51 116.69H122.68Z" fill="#027DB3"/>
</svg>
