<svg width="216" height="216" viewBox="0 0 216 216" fill="none" xmlns="http://www.w3.org/2000/svg">
<path d="M205.16 58.25C204.23 55.71 202.36 53.67 199.88 52.53L194.33 49.96C191.88 48.82 189.1 48.7 186.57 49.67C184.99 50.25 183.62 51.25 182.54 52.47L179.97 51.3V31.8C179.97 24.18 173.78 17.99 166.16 17.99H60.81C53.4 17.99 47.38 23.86 47.06 31.18H42.42C38.89 31.18 36 34.07 36 37.6V40.75C36 44.28 38.89 47.17 42.42 47.17H47V52.6H42.42C38.89 52.6 36 55.49 36 59.02V62.17C36 65.73 38.89 68.59 42.42 68.59H47V74.05H42.42C38.89 74.05 36 76.91 36 80.47V83.59C36 87.15 38.89 90.04 42.42 90.04H47V95.47H42.42C38.89 95.47 36 98.36 36 101.89V105.04C36 108.57 38.89 111.46 42.42 111.46H47V116.89H42.42C38.89 116.89 36 119.78 36 123.34V126.46C36 130.02 38.89 132.88 42.42 132.88H47V138.34H42.42C38.89 138.34 36 141.2 36 144.76V147.91C36 151.44 38.89 154.33 42.42 154.33H47V159.76H42.42C38.89 159.76 36 162.65 36 166.18V169.33C36 172.86 38.89 175.75 42.42 175.75H47.06C47.38 183.08 53.39 188.94 60.81 188.94H166.16C173.78 188.94 179.97 182.75 179.97 175.13V119.7L193.72 90.01V89.98L204.84 65.96C205.98 63.48 206.1 60.73 205.16 58.2V58.25ZM42.42 41.35C42.1 41.35 41.84 41.09 41.84 40.77V37.62C41.84 37.3 42.1 37.04 42.42 37.04H57.39C57.71 37.04 57.97 37.3 57.97 37.62V40.77C57.97 41.09 57.71 41.35 57.39 41.35H42.42ZM42.42 62.78C42.1 62.78 41.84 62.52 41.84 62.2V59.05C41.84 58.73 42.1 58.47 42.42 58.47H49.83C49.83 58.47 49.89 58.5 49.92 58.5C49.95 58.5 49.95 58.47 49.98 58.47H57.39C57.71 58.47 57.97 58.73 57.97 59.05V62.2C57.97 62.52 57.71 62.78 57.39 62.78H42.42ZM42.42 84.23C42.1 84.23 41.84 83.97 41.84 83.62V80.5C41.84 80.18 42.1 79.92 42.42 79.92H57.39C57.71 79.92 57.97 80.18 57.97 80.5V83.62C57.97 83.97 57.71 84.23 57.39 84.23H49.98C49.98 84.23 49.95 84.2 49.92 84.2C49.89 84.2 49.86 84.23 49.86 84.23H42.42ZM42.42 105.66C42.1 105.66 41.84 105.4 41.84 105.08V101.93C41.84 101.61 42.1 101.35 42.42 101.35H57.39C57.71 101.35 57.97 101.61 57.97 101.93V105.08C57.97 105.4 57.71 105.66 57.39 105.66H42.42ZM42.42 127.09C42.1 127.09 41.84 126.83 41.84 126.51V123.39C41.84 123.04 42.1 122.78 42.42 122.78H49.86C49.86 122.78 49.89 122.81 49.92 122.81C49.95 122.81 49.95 122.78 49.98 122.78H57.39C57.71 122.78 57.97 123.04 57.97 123.39V126.51C57.97 126.83 57.71 127.09 57.39 127.09H42.42ZM42.42 148.54C42.1 148.54 41.84 148.28 41.84 147.96V144.81C41.84 144.49 42.1 144.23 42.42 144.23H57.39C57.71 144.23 57.97 144.49 57.97 144.81V147.96C57.97 148.28 57.71 148.54 57.39 148.54H49.98C49.98 148.54 49.95 148.51 49.92 148.51C49.89 148.51 49.86 148.54 49.83 148.54H42.42ZM42.42 169.97C42.1 169.97 41.84 169.71 41.84 169.39V166.24C41.84 165.92 42.1 165.66 42.42 165.66H57.39C57.71 165.66 57.97 165.92 57.97 166.24V169.39C57.97 169.71 57.71 169.97 57.39 169.97H42.42ZM174.13 175.19C174.13 179.6 170.57 183.16 166.16 183.16H60.81C56.64 183.16 53.22 179.92 52.9 175.8H57.4C60.96 175.8 63.82 172.91 63.82 169.38V166.23C63.82 162.7 60.96 159.81 57.4 159.81H52.85V154.38H57.4C60.96 154.38 63.82 151.49 63.82 147.96V144.81C63.82 141.25 60.96 138.39 57.4 138.39H52.85V132.93H57.4C60.96 132.93 63.82 130.07 63.82 126.51V123.39C63.82 119.83 60.96 116.94 57.4 116.94H52.85V111.51H57.4C60.96 111.51 63.82 108.62 63.82 105.09V101.94C63.82 98.41 60.96 95.52 57.4 95.52H52.85V90.09H57.4C60.96 90.09 63.82 87.2 63.82 83.64V80.52C63.82 76.96 60.96 74.1 57.4 74.1H52.85V68.64H57.4C60.96 68.64 63.82 65.78 63.82 62.22V59.07C63.82 55.54 60.96 52.65 57.4 52.65H52.85V47.22H57.4C60.96 47.22 63.82 44.33 63.82 40.8V37.65C63.82 34.12 60.96 31.23 57.4 31.23H52.9C53.22 27.11 56.64 23.87 60.81 23.87H166.16C170.57 23.87 174.13 27.43 174.13 31.84V50.58C173.63 50.67 173.14 50.78 172.64 50.96C170.3 51.84 168.41 53.56 167.36 55.83L161.29 69.02C160.59 70.48 161.23 72.2 162.69 72.9C163.1 73.08 163.51 73.16 163.92 73.16C165.03 73.16 166.08 72.52 166.58 71.47L172.68 58.28C173 57.61 173.53 57.14 174.14 56.76V69.49L146.23 129.83C144.39 133.86 143.66 138.3 144.16 142.7L145.74 156.45C145.86 157.47 146.47 158.35 147.4 158.76C147.78 158.94 148.22 159.05 148.63 159.05C149.21 159.05 149.77 158.87 150.26 158.55L161.76 150.81C165.44 148.36 168.36 144.91 170.2 140.91L174.14 132.39V175.21L174.13 175.19ZM150.54 135L163.44 140.98C162.13 142.94 160.46 144.63 158.48 145.94L150.98 150.99L149.96 142C149.7 139.64 149.9 137.27 150.54 134.99V135ZM174.39 117.89C174.39 117.89 174.36 117.95 174.36 117.98L166.13 135.79L152.76 129.6L173.81 84.06L187.18 90.25L174.39 117.89ZM199.53 63.57L189.63 84.97L176.26 78.78L179.73 71.31C179.73 71.31 179.73 71.28 179.76 71.25L186.15 57.38C186.65 56.33 187.49 55.54 188.57 55.13C189.07 54.95 189.56 54.87 190.06 54.87C190.67 54.87 191.29 55.02 191.87 55.28L197.42 57.85C198.47 58.32 199.26 59.19 199.67 60.27C200.05 61.35 200.02 62.52 199.52 63.57H199.53Z" fill="#027DB3"/>
<path d="M143.48 50.3701H88.2801C82.6801 50.3701 78.1201 54.8901 78.1201 60.5001V87.2101C78.1201 92.8101 82.6701 97.3701 88.2801 97.3701H143.48C149.08 97.3701 153.61 92.8201 153.61 87.2101V60.5001C153.61 54.9001 149.09 50.3701 143.48 50.3701ZM147.77 87.2101C147.77 89.6001 145.84 91.5301 143.48 91.5301H88.2801C85.8901 91.5301 83.9601 89.6001 83.9601 87.2101V60.5001C83.9601 58.1401 85.8901 56.2101 88.2801 56.2101H143.48C145.84 56.2101 147.77 58.1401 147.77 60.5001V87.2101Z" fill="#027DB3"/>
<path d="M137.47 66.63C137.47 68.24 136.16 69.55 134.55 69.55H97.21C95.6 69.55 94.29 68.24 94.29 66.63C94.29 65.02 95.6 63.71 97.21 63.71H134.55C136.16 63.71 137.47 64.99 137.47 66.63Z" fill="#027DB3"/>
<path d="M137.47 81.1099C137.47 82.7199 136.16 84.0299 134.55 84.0299H97.21C95.6 84.0299 94.29 82.7199 94.29 81.1099C94.29 79.4999 95.6 78.1899 97.21 78.1899H134.55C136.16 78.1899 137.47 79.4999 137.47 81.1099Z" fill="#027DB3"/>
</svg>
