<svg width="216" height="216" viewBox="0 0 216 216" fill="none" xmlns="http://www.w3.org/2000/svg">
<path d="M45.2502 36.4399H170.81C179.41 36.4399 186.39 43.4199 186.39 52.0199V66.0999H29.6602V52.0199C29.6602 43.4199 36.6402 36.4399 45.2402 36.4399H45.2502Z" fill="#5CEBBE"/>
<path d="M170.8 187.51L45.2401 187.51C36.6401 187.51 29.6601 180.53 29.6601 171.93L29.6601 66.0998L186.39 66.0998L186.39 171.93C186.39 180.53 179.41 187.51 170.81 187.51H170.8Z" fill="#07BED1"/>
<path d="M72.2802 134.35C86.8329 134.35 98.6302 122.553 98.6302 108C98.6302 93.4472 86.8329 81.6499 72.2802 81.6499C57.7275 81.6499 45.9302 93.4472 45.9302 108C45.9302 122.553 57.7275 134.35 72.2802 134.35Z" fill="#5CEBBE"/>
<path d="M72.28 113.47C77.6593 113.47 82.02 109.109 82.02 103.73C82.02 98.351 77.6593 93.9902 72.28 93.9902C66.9008 93.9902 62.54 98.351 62.54 103.73C62.54 109.109 66.9008 113.47 72.28 113.47Z" fill="#DDDDDD"/>
<path d="M55.6099 126.8C55.6099 126.8 60.2799 114.41 71.3299 114.41C82.3799 114.41 88.9299 127.4 88.9299 127.4C88.9299 127.4 83.1899 132.67 71.2399 132.67C59.2899 132.67 55.6199 126.8 55.6199 126.8H55.6099Z" fill="#DDDDDD"/>
<path d="M176.09 189H39.48C32.6 189 27 183.4 27 176.52V48.48C27 41.6 32.6 36 39.48 36H176.09C182.97 36 188.57 41.6 188.57 48.48V176.51C188.57 183.39 182.97 188.99 176.09 188.99V189ZM39.48 41.32C35.53 41.32 32.31 44.54 32.31 48.49V176.52C32.31 180.47 35.53 183.69 39.48 183.69H176.09C180.04 183.69 183.26 180.47 183.26 176.52V48.48C183.26 44.53 180.04 41.31 176.09 41.31H39.48V41.32Z" fill="#484848"/>
<path d="M185.92 68.7502H29.66C28.19 68.7502 27 67.5602 27 66.0902C27 64.6202 28.19 63.4302 29.66 63.4302H185.92C187.39 63.4302 188.58 64.6202 188.58 66.0902C188.58 67.5602 187.39 68.7502 185.92 68.7502Z" fill="#484848"/>
<path d="M148.94 54.6398H138.24C136.77 54.6398 135.58 53.4498 135.58 51.9798C135.58 50.5098 136.77 49.3198 138.24 49.3198H148.94C150.41 49.3198 151.6 50.5098 151.6 51.9798C151.6 53.4498 150.41 54.6398 148.94 54.6398Z" fill="#484848"/>
<path d="M172.3 54.6398H161.6C160.13 54.6398 158.94 53.4498 158.94 51.9798C158.94 50.5098 160.13 49.3198 161.6 49.3198H172.3C173.77 49.3198 174.96 50.5098 174.96 51.9798C174.96 53.4498 173.77 54.6398 172.3 54.6398Z" fill="#484848"/>
<path d="M72.28 116.28C65.36 116.28 59.73 110.65 59.73 103.73C59.73 96.8102 65.36 91.1802 72.28 91.1802C79.2 91.1802 84.83 96.8102 84.83 103.73C84.83 110.65 79.2 116.28 72.28 116.28ZM72.28 96.5002C68.29 96.5002 65.05 99.7502 65.05 103.73C65.05 107.71 68.3 110.96 72.28 110.96C76.26 110.96 79.51 107.71 79.51 103.73C79.51 99.7502 76.26 96.5002 72.28 96.5002Z" fill="#484848"/>
<path d="M72.28 135.56C57.24 135.56 45 123.32 45 108.28C45 93.24 57.24 81 72.28 81C87.32 81 99.56 93.24 99.56 108.28C99.56 123.32 87.32 135.56 72.28 135.56ZM72.28 86.32C60.17 86.32 50.31 96.17 50.31 108.29C50.31 120.41 60.16 130.26 72.28 130.26C84.4 130.26 94.25 120.41 94.25 108.29C94.25 96.17 84.4 86.32 72.28 86.32Z" fill="#484848"/>
<path d="M88.3002 129.64C87.0402 129.64 85.9202 128.74 85.6902 127.46C84.5202 120.99 78.8802 116.3 72.2902 116.3C65.7002 116.3 60.0602 120.99 58.8902 127.46C58.6302 128.9 57.2502 129.87 55.8002 129.6C54.3602 129.34 53.4002 127.96 53.6602 126.51C55.2902 117.51 63.1302 110.98 72.2902 110.98C81.4502 110.98 89.2902 117.51 90.9202 126.51C91.1802 127.95 90.2202 129.34 88.7802 129.6C88.6202 129.63 88.4602 129.64 88.3002 129.64Z" fill="#484848"/>
<path d="M170.96 110.94H111.8C110.33 110.94 109.14 109.75 109.14 108.28C109.14 106.81 110.33 105.62 111.8 105.62H170.96C172.43 105.62 173.62 106.81 173.62 108.28C173.62 109.75 172.43 110.94 170.96 110.94Z" fill="#484848"/>
<path d="M137.25 91.57H111.8C110.33 91.57 109.14 90.38 109.14 88.91C109.14 87.44 110.33 86.25 111.8 86.25H137.25C138.72 86.25 139.91 87.44 139.91 88.91C139.91 90.38 138.72 91.57 137.25 91.57Z" fill="#484848"/>
<path d="M169.5 91.57H150.46C148.99 91.57 147.8 90.38 147.8 88.91C147.8 87.44 148.99 86.25 150.46 86.25H169.5C170.97 86.25 172.16 87.44 172.16 88.91C172.16 90.38 170.97 91.57 169.5 91.57Z" fill="#484848"/>
<path d="M170.96 129.64H111.8C110.33 129.64 109.14 128.45 109.14 126.98C109.14 125.51 110.33 124.32 111.8 124.32H170.96C172.43 124.32 173.62 125.51 173.62 126.98C173.62 128.45 172.43 129.64 170.96 129.64Z" fill="#484848"/>
<path d="M170.96 148.33H47.66C46.19 148.33 45 147.14 45 145.67C45 144.2 46.19 143.01 47.66 143.01H170.96C172.43 143.01 173.62 144.2 173.62 145.67C173.62 147.14 172.43 148.33 170.96 148.33Z" fill="#484848"/>
<path d="M170.96 167.32H47.66C46.19 167.32 45 166.13 45 164.66C45 163.19 46.19 162 47.66 162H170.96C172.43 162 173.62 163.19 173.62 164.66C173.62 166.13 172.43 167.32 170.96 167.32Z" fill="#484848"/>
</svg>
