<svg width="216" height="216" viewBox="0 0 216 216" fill="none" xmlns="http://www.w3.org/2000/svg">
<path d="M176.52 189H39.9102C33.0302 189 27.4302 183.4 27.4302 176.52V48.48C27.4302 41.6 33.0302 36 39.9102 36H176.52C183.4 36 189 41.6 189 48.48V176.51C189 183.39 183.4 188.99 176.52 188.99V189ZM39.9102 41.32C35.9602 41.32 32.7402 44.54 32.7402 48.49V176.52C32.7402 180.47 35.9602 183.69 39.9102 183.69H176.52C180.47 183.69 183.69 180.47 183.69 176.52V48.48C183.69 44.53 180.47 41.31 176.52 41.31H39.9102V41.32Z" fill="#027DB3"/>
<path d="M186.34 68.7499H30.0799C28.6099 68.7499 27.4199 67.5599 27.4199 66.0899C27.4199 64.6199 28.6099 63.4299 30.0799 63.4299H186.34C187.81 63.4299 189 64.6199 189 66.0899C189 67.5599 187.81 68.7499 186.34 68.7499Z" fill="#027DB3"/>
<path d="M149.37 54.6401H138.67C137.2 54.6401 136.01 53.4501 136.01 51.9801C136.01 50.5101 137.2 49.3201 138.67 49.3201H149.37C150.84 49.3201 152.03 50.5101 152.03 51.9801C152.03 53.4501 150.84 54.6401 149.37 54.6401Z" fill="#027DB3"/>
<path d="M172.72 54.6401H162.02C160.55 54.6401 159.36 53.4501 159.36 51.9801C159.36 50.5101 160.55 49.3201 162.02 49.3201H172.72C174.19 49.3201 175.38 50.5101 175.38 51.9801C175.38 53.4501 174.19 54.6401 172.72 54.6401Z" fill="#027DB3"/>
<path d="M72.7102 116.28C65.7902 116.28 60.1602 110.65 60.1602 103.73C60.1602 96.8099 65.7902 91.1799 72.7102 91.1799C79.6302 91.1799 85.2602 96.8099 85.2602 103.73C85.2602 110.65 79.6302 116.28 72.7102 116.28ZM72.7102 96.4999C68.7202 96.4999 65.4802 99.7499 65.4802 103.73C65.4802 107.71 68.7302 110.96 72.7102 110.96C76.6902 110.96 79.9402 107.71 79.9402 103.73C79.9402 99.7499 76.6902 96.4999 72.7102 96.4999Z" fill="#027DB3"/>
<path d="M72.7102 135.56C57.6702 135.56 45.4302 123.32 45.4302 108.28C45.4302 93.24 57.6702 81 72.7102 81C87.7502 81 99.9902 93.24 99.9902 108.28C99.9902 123.32 87.7502 135.56 72.7102 135.56ZM72.7102 86.32C60.6002 86.32 50.7402 96.17 50.7402 108.29C50.7402 120.41 60.5902 130.26 72.7102 130.26C84.8302 130.26 94.6802 120.41 94.6802 108.29C94.6802 96.17 84.8302 86.32 72.7102 86.32Z" fill="#027DB3"/>
<path d="M88.7201 129.64C87.4601 129.64 86.3401 128.74 86.1101 127.46C84.9401 120.99 79.3001 116.3 72.7101 116.3C66.1201 116.3 60.4801 120.99 59.3101 127.46C59.0501 128.9 57.6701 129.87 56.2201 129.6C54.7801 129.34 53.8201 127.96 54.0801 126.51C55.7101 117.51 63.5501 110.98 72.7101 110.98C81.8701 110.98 89.7101 117.51 91.3401 126.51C91.6001 127.95 90.6401 129.34 89.2001 129.6C89.0401 129.63 88.8801 129.64 88.7201 129.64Z" fill="#027DB3"/>
<path d="M171.38 110.94H112.22C110.75 110.94 109.56 109.75 109.56 108.28C109.56 106.81 110.75 105.62 112.22 105.62H171.38C172.85 105.62 174.04 106.81 174.04 108.28C174.04 109.75 172.85 110.94 171.38 110.94Z" fill="#027DB3"/>
<path d="M137.67 91.57H112.22C110.75 91.57 109.56 90.38 109.56 88.91C109.56 87.44 110.75 86.25 112.22 86.25H137.67C139.14 86.25 140.33 87.44 140.33 88.91C140.33 90.38 139.14 91.57 137.67 91.57Z" fill="#027DB3"/>
<path d="M169.92 91.57H150.88C149.41 91.57 148.22 90.38 148.22 88.91C148.22 87.44 149.41 86.25 150.88 86.25H169.92C171.39 86.25 172.58 87.44 172.58 88.91C172.58 90.38 171.39 91.57 169.92 91.57Z" fill="#027DB3"/>
<path d="M171.38 129.64H112.22C110.75 129.64 109.56 128.45 109.56 126.98C109.56 125.51 110.75 124.32 112.22 124.32H171.38C172.85 124.32 174.04 125.51 174.04 126.98C174.04 128.45 172.85 129.64 171.38 129.64Z" fill="#027DB3"/>
<path d="M171.38 148.33H48.0799C46.6099 148.33 45.4199 147.14 45.4199 145.67C45.4199 144.2 46.6099 143.01 48.0799 143.01H171.38C172.85 143.01 174.04 144.2 174.04 145.67C174.04 147.14 172.85 148.33 171.38 148.33Z" fill="#027DB3"/>
<path d="M171.38 167.32H48.0799C46.6099 167.32 45.4199 166.13 45.4199 164.66C45.4199 163.19 46.6099 162 48.0799 162H171.38C172.85 162 174.04 163.19 174.04 164.66C174.04 166.13 172.85 167.32 171.38 167.32Z" fill="#027DB3"/>
</svg>
