<svg width="216" height="216" viewBox="0 0 216 216" fill="none" xmlns="http://www.w3.org/2000/svg">
<path d="M186.06 46.72H143.32V187.46H186.06V46.72Z" fill="#E6F9FA"/>
<path d="M143.32 138.97V186.02H63.2402V29.98H143.32V99.4V138.97Z" fill="#E6F9FA"/>
<path d="M184 138.98H173.57V186.02H184V138.98Z" fill="#83DFE8"/>
<path d="M29.94 186.02H63.23L63.23 65.4H29.94L29.94 186.02Z" fill="#E6F9FA"/>
<path d="M96.0299 45.27H78.4399V63.12H96.0299V45.27Z" fill="#83DFE8"/>
<path d="M128.13 45.27H110.54V63.12H128.13V45.27Z" fill="#5CEBBE"/>
<path d="M96.0299 75.76H78.4399V93.61H96.0299V75.76Z" fill="#5CEBBE"/>
<path d="M63.2302 97.6899H48.4902V186.02H63.2302V97.6899Z" fill="#5CEBBE"/>
<path d="M143.32 189H63.2501C61.6301 189 60.3101 187.67 60.3101 186.02V29.98C60.3101 28.33 61.6301 27 63.2501 27H143.33C144.95 27 146.27 28.33 146.27 29.98V99.4C146.27 101.05 144.95 102.38 143.33 102.38C141.71 102.38 140.39 101.05 140.39 99.4V32.96H66.1901V183.03H140.39V87.57C140.39 85.92 141.71 84.59 143.33 84.59C144.95 84.59 146.27 85.92 146.27 87.57V186.01C146.27 187.66 144.95 188.99 143.33 188.99L143.32 189Z" fill="#027DB3"/>
<path d="M184 189H173.57C171.95 189 170.63 187.67 170.63 186.02V138.98C170.63 137.33 171.95 136 173.57 136H184C185.62 136 186.94 137.33 186.94 138.98V186.02C186.94 187.67 185.63 189 184 189ZM176.51 183.04H181.06V141.97H176.51V183.04Z" fill="#027DB3"/>
<path d="M63.23 189H29.94C28.32 189 27 187.67 27 186.02V65.4C27 63.75 28.32 62.42 29.94 62.42H63.23C64.85 62.42 66.17 63.75 66.17 65.4V186.02C66.17 187.67 64.85 189 63.23 189ZM32.88 183.04H60.3V68.39H32.88V183.04Z" fill="#027DB3"/>
<path d="M186.06 189H143.32C141.7 189 140.38 187.67 140.38 186.02C140.38 184.37 141.7 183.04 143.32 183.04H183.12V138.98C183.12 137.33 184.43 136 186.06 136C187.69 136 189 137.33 189 138.98V186.02C189 187.67 187.69 189 186.06 189Z" fill="#027DB3"/>
<path d="M186.06 149.39C184.44 149.39 183.12 148.06 183.12 146.41V48.26H143.32C141.7 48.26 140.38 46.93 140.38 45.28C140.38 43.63 141.7 42.3 143.32 42.3H186.06C187.68 42.3 189 43.63 189 45.28V146.42C189 148.07 187.69 149.4 186.06 149.4V149.39Z" fill="#027DB3"/>
<path d="M96.03 66.1101H78.44C76.82 66.1101 75.5 64.7801 75.5 63.1301V45.28C75.5 43.63 76.82 42.3 78.44 42.3H96.03C97.65 42.3 98.97 43.63 98.97 45.28V63.1301C98.97 64.7801 97.65 66.1101 96.03 66.1101ZM81.37 60.14H93.08V48.26H81.37V60.14Z" fill="#027DB3"/>
<path d="M128.13 66.1101H110.54C108.92 66.1101 107.6 64.7801 107.6 63.1301V45.28C107.6 43.63 108.92 42.3 110.54 42.3H128.13C129.75 42.3 131.07 43.63 131.07 45.28V63.1301C131.07 64.7801 129.75 66.1101 128.13 66.1101ZM113.48 60.14H125.19V48.26H113.48V60.14Z" fill="#027DB3"/>
<path d="M96.03 96.59H78.44C76.82 96.59 75.5 95.26 75.5 93.61V75.76C75.5 74.11 76.82 72.78 78.44 72.78H96.03C97.65 72.78 98.97 74.11 98.97 75.76V93.61C98.97 95.26 97.65 96.59 96.03 96.59ZM81.37 90.63H93.08V78.75H81.37V90.63Z" fill="#027DB3"/>
<path d="M63.2298 189H48.4898C46.8698 189 45.5498 187.67 45.5498 186.02V97.69C45.5498 96.04 46.8698 94.71 48.4898 94.71H63.2298C64.8498 94.71 66.1698 96.04 66.1698 97.69V186.02C66.1698 187.67 64.8498 189 63.2298 189ZM51.4298 183.04H60.2998V100.67H51.4298V183.04Z" fill="#027DB3"/>
<path d="M152.52 186.02V139.47H162.46L120.51 104.63L78.5698 139.47H88.5098V186.01L152.52 186.02Z" fill="#83DFE8"/>
<path d="M152.52 188.69H88.5098C87.0498 188.69 85.8798 187.49 85.8798 186.02V142.15H78.5698C77.4598 142.15 76.4598 141.44 76.0898 140.38C75.7098 139.32 76.0398 138.13 76.8998 137.42L118.85 102.58C119.82 101.77 121.22 101.77 122.19 102.58L164.14 137.42C165 138.14 165.33 139.32 164.95 140.38C164.58 141.44 163.58 142.15 162.47 142.15H155.16V186.02C155.16 186.73 154.88 187.41 154.39 187.91C153.9 188.41 153.23 188.69 152.53 188.69H152.52ZM91.1398 183.34H149.88V139.47C149.88 137.99 151.06 136.8 152.51 136.8H155.08L120.51 108.08L85.9398 136.8H88.5098C89.9698 136.8 91.1398 138 91.1398 139.47V183.34Z" fill="#027DB3"/>
<path d="M173.71 58.49H156.12V104.3H173.71V58.49Z" fill="#5CEBBE"/>
<path d="M173.71 106.79H156.12C154.5 106.79 153.18 105.46 153.18 103.81V58.64C153.18 56.99 154.5 55.66 156.12 55.66H173.71C175.33 55.66 176.65 56.99 176.65 58.64V103.81C176.65 105.46 175.33 106.79 173.71 106.79ZM159.06 100.82H170.77V61.61H159.06V100.82Z" fill="#027DB3"/>
<path d="M126.99 149.53V161.27C126.99 164.43 122.46 164.47 122.46 161.27V150.52C122.46 149.64 122.32 149 122.04 148.62C121.76 148.24 121.21 148.04 120.4 148.04H112.28C111 148.04 109.96 149.24 109.96 150.72V169.51C109.96 170.99 108.92 172.19 107.64 172.19C106.36 172.19 105.32 170.99 105.32 169.51V145.82C105.32 144.34 106.36 143.14 107.64 143.14H122.08C123.73 143.14 124.97 143.65 125.78 144.66C126.59 145.68 126.99 147.3 126.99 149.53ZM135.71 144.66V165C135.71 167.38 135.23 169.18 134.28 170.39C133.33 171.6 132.04 172.21 130.42 172.21H116.39C115.11 172.21 114.07 171.01 114.07 169.53V155.35C114.07 153.87 115.11 152.67 116.39 152.67C117.67 152.67 118.71 153.87 118.71 155.35V164.68C118.71 166.16 119.75 167.36 121.03 167.36H129.15C129.96 167.36 130.49 167.18 130.74 166.81C130.99 166.44 131.12 165.82 131.12 164.94V144.66C131.12 141.66 135.71 141.7 135.71 144.66Z" fill="#027DB3"/>
</svg>
