<svg width="216" height="216" viewBox="0 0 216 216" fill="none" xmlns="http://www.w3.org/2000/svg">
<path d="M165.17 62.72V37.06C165.17 34.35 162.96 32.14 160.25 32.14H46.2301C43.5201 32.14 41.3101 34.35 41.3101 37.06V178.8C41.3101 181.51 43.5201 183.69 46.2301 183.69H160.26C162.97 183.69 165.18 181.51 165.18 178.8V157.76H170.49V62.72H165.18H165.17Z" fill="#07BED1"/>
<path d="M170.49 37.06V86.66C170.49 88.12 169.32 89.32 167.83 89.32C166.34 89.32 165.17 88.12 165.17 86.66V37.06C165.17 34.35 162.96 32.14 160.25 32.14H46.23C43.52 32.14 41.31 34.35 41.31 37.06V178.8C41.31 181.51 43.52 183.69 46.23 183.69H160.26C162.97 183.69 165.18 181.51 165.18 178.8V139.43C165.18 137.97 166.38 136.77 167.84 136.77C169.3 136.77 170.5 137.97 170.5 139.43V178.8C170.5 184.43 165.93 189 160.27 189H46.23C40.6 189 36 184.43 36 178.8V37.06C36 31.4 40.6 26.83 46.23 26.83H160.26C165.92 26.83 170.49 31.4 170.49 37.06Z" fill="#484848"/>
<path d="M101.17 41.95C86.74 41.95 75 53.6699 75 68.0899C75 82.5099 86.74 94.26 101.17 94.26C115.6 94.26 127.34 82.5199 127.34 68.0899C127.34 53.6599 115.6 41.95 101.17 41.95ZM101.17 88.9499C89.67 88.9499 80.31 79.5999 80.31 68.0899C80.31 56.5799 89.66 47.2599 101.17 47.2599C112.68 47.2599 122.03 56.6099 122.03 68.0899C122.03 79.5699 112.68 88.9499 101.17 88.9499Z" fill="#484848"/>
<path d="M101.17 47.26C89.6701 47.26 80.3101 56.61 80.3101 68.09C80.3101 79.57 89.6601 88.95 101.17 88.95C112.68 88.95 122.03 79.6 122.03 68.09C122.03 56.58 112.68 47.26 101.17 47.26Z" fill="#5CEBBE"/>
<path d="M142.87 105.54C142.87 104.07 141.68 102.88 140.21 102.88H62.1302C60.6602 102.88 59.4702 104.07 59.4702 105.54C59.4702 107.01 60.6602 108.2 62.1302 108.2H140.21C141.68 108.2 142.87 107.01 142.87 105.54Z" fill="#484848"/>
<path d="M62.1302 126.8H77.6702C79.1402 126.8 80.3302 125.61 80.3302 124.14C80.3302 122.67 79.1402 121.48 77.6702 121.48H62.1302C60.6602 121.48 59.4702 122.67 59.4702 124.14C59.4702 125.61 60.6602 126.8 62.1302 126.8Z" fill="#484848"/>
<path d="M129.55 124.15C129.55 122.68 128.36 121.49 126.89 121.49H89.0902C87.6202 121.49 86.4302 122.68 86.4302 124.15C86.4302 125.62 87.6202 126.81 89.0902 126.81H126.89C128.36 126.81 129.55 125.62 129.55 124.15Z" fill="#484848"/>
<path d="M110.65 142.76C110.65 141.29 109.46 140.1 107.99 140.1H62.12C60.65 140.1 59.46 141.29 59.46 142.76C59.46 144.23 60.65 145.42 62.12 145.42H107.99C109.46 145.42 110.65 144.23 110.65 142.76Z" fill="#484848"/>
<path d="M100.24 166.38C99.9902 166.47 93.8802 168.63 86.1702 164.33C70.8802 155.79 60.8102 164.28 60.3902 164.64C59.2902 165.6 59.1702 167.26 60.1202 168.36C61.0702 169.47 62.7402 169.6 63.8602 168.66C64.1702 168.4 71.6602 162.3 83.5802 168.96C88.2902 171.59 92.6102 172.3 95.8902 172.3C99.5602 172.3 101.94 171.42 102.12 171.35C103.48 170.83 104.16 169.31 103.65 167.94C103.14 166.57 101.61 165.88 100.24 166.38Z" fill="#484848"/>
<path d="M120.79 162.68L141.05 154.02H141.08C141.37 153.9 141.63 153.71 141.86 153.48L194.49 100.85C198.33 97.01 199.04 91.69 196.1 88.75L191.49 84.14C188.55 81.2 183.23 81.91 179.39 85.75L126.76 138.38C126.53 138.61 126.36 138.88 126.22 139.16V139.19L117.56 159.45C117.16 160.37 117.39 161.42 118.1 162.13C118.81 162.84 119.87 163.07 120.78 162.67L120.79 162.68ZM180.77 91.3L182.85 89.22C184.75 87.32 187.2 86.78 188.03 87.61L192.64 92.22C193.37 92.95 193.09 95.34 191.03 97.4L188.95 99.48L180.78 91.31L180.77 91.3ZM131.96 140.12L177.31 94.77L185.48 102.94L140.13 148.29L131.96 140.12ZM129.33 144.41L135.84 150.92L124.48 155.77L129.33 144.41Z" fill="#484848"/>
<path d="M124.48 155.77L129.33 144.41L135.84 150.92L124.48 155.77Z" fill="#5CEBBE"/>
<path d="M188.95 99.47L180.78 91.3L182.86 89.22C184.76 87.32 187.21 86.78 188.04 87.61L192.65 92.22C193.38 92.95 193.1 95.34 191.04 97.4L188.96 99.48L188.95 99.47Z" fill="#5CEBBE"/>
<path d="M177.317 94.7687L131.963 140.123L140.137 148.297L185.491 102.943L177.317 94.7687Z" fill="#DDDDDD"/>
<path d="M107.09 60.99V70.1C107.09 72.55 103.46 72.58 103.46 70.1V61.76C103.46 61.08 103.35 60.58 103.13 60.28C102.91 59.98 102.47 59.83 101.82 59.83H95.3202C94.2902 59.83 93.4602 60.76 93.4602 61.91V76.49C93.4602 77.64 92.6302 78.57 91.6002 78.57C90.5702 78.57 89.7402 77.64 89.7402 76.49V58.1C89.7402 56.95 90.5702 56.02 91.6002 56.02H103.15C104.47 56.02 105.46 56.41 106.11 57.2C106.76 57.99 107.08 59.25 107.08 60.98L107.09 60.99ZM114.07 57.2V72.98C114.07 74.83 113.69 76.22 112.92 77.16C112.15 78.1 111.13 78.57 109.83 78.57H98.6002C97.5702 78.57 96.7402 77.64 96.7402 76.49V65.49C96.7402 64.34 97.5702 63.41 98.6002 63.41C99.6302 63.41 100.46 64.34 100.46 65.49V72.73C100.46 73.88 101.29 74.81 102.32 74.81H108.82C109.47 74.81 109.89 74.67 110.09 74.38C110.29 74.1 110.39 73.61 110.39 72.93V57.19C110.39 54.86 114.06 54.89 114.06 57.19L114.07 57.2Z" fill="#484848"/>
<path d="M120.339 53.7135L81.3135 78.9602L83.4807 82.3103L122.506 57.0635L120.339 53.7135Z" fill="#484848"/>
</svg>
