<svg width="216" height="216" viewBox="0 0 216 216" fill="none" xmlns="http://www.w3.org/2000/svg">
<path d="M33.02 186.27V165.13C33.02 139.62 54.05 118.92 80.03 118.92H106.47C114.35 118.92 122.33 121.21 128.86 124.59L153.91 186.05L33.02 186.27Z" fill="#DDDDDD"/>
<path d="M114.11 121.66C114.11 127.07 105.35 133.44 94.1302 133.44C82.9102 133.44 73.4702 127.07 73.4702 121.66C73.4702 116.25 82.5702 118.92 93.7902 118.92C105.01 118.92 114.11 116.25 114.11 121.66Z" fill="#DDDDDD"/>
<path d="M163.73 186.03C186.004 186.03 204.06 167.727 204.06 145.15C204.06 122.573 186.004 104.27 163.73 104.27C141.456 104.27 123.4 122.573 123.4 145.15C123.4 167.727 141.456 186.03 163.73 186.03Z" fill="#5CEBBE"/>
<path d="M128.99 108.98V58.6001H140.1L93.2401 20.8901L46.3701 58.6001H57.4801V108.97L128.99 108.98Z" fill="#07BED1"/>
<path d="M102.98 108.89V73.1499H84.5898V109.06L102.98 108.89Z" fill="#DDDDDD"/>
<path d="M33.0201 189.16C31.3901 189.16 30.0801 187.87 30.0801 186.27V165.13C30.0801 138.06 52.4901 116.03 80.0301 116.03H106.47C114.32 116.03 122.76 118.16 130.23 122.03C131.67 122.78 132.22 124.52 131.46 125.94C130.7 127.35 128.92 127.89 127.49 127.15C120.85 123.71 113.39 121.82 106.47 121.82H80.0301C55.7301 121.82 35.9601 141.25 35.9601 165.14V186.28C35.9601 187.88 34.6401 189.17 33.0201 189.17V189.16Z" fill="#484848"/>
<path d="M57.0801 189.15C55.4501 189.15 54.1401 187.86 54.1401 186.26V160.87C54.1401 159.27 55.4601 157.98 57.0801 157.98C58.7001 157.98 60.0201 159.27 60.0201 160.87V186.26C60.0201 187.86 58.7001 189.15 57.0801 189.15Z" fill="#484848"/>
<path d="M94.06 135.27H94.02C79.65 135.25 69.23 122.08 68.8 121.52C67.81 120.25 68.06 118.44 69.35 117.47C70.65 116.5 72.49 116.74 73.47 118C73.56 118.11 82.6 129.48 94.06 129.48C100.69 129.48 107.06 125.64 113 118.06C113.99 116.79 115.84 116.55 117.12 117.53C118.41 118.5 118.65 120.32 117.65 121.59C110.54 130.66 102.6 135.27 94.05 135.27H94.06Z" fill="#484848"/>
<path d="M163.73 188.92C139.87 188.92 120.46 169.29 120.46 145.15C120.46 121.01 139.87 101.38 163.73 101.38C187.59 101.38 207 121.01 207 145.15C207 169.29 187.59 188.92 163.73 188.92ZM163.73 107.17C143.11 107.17 126.34 124.21 126.34 145.15C126.34 166.09 143.11 183.13 163.73 183.13C184.35 183.13 201.12 166.09 201.12 145.15C201.12 124.21 184.35 107.17 163.73 107.17Z" fill="#484848"/>
<path d="M200.21 189.15H27.3599C25.7299 189.15 24.4199 187.86 24.4199 186.26C24.4199 184.66 25.7399 183.37 27.3599 183.37H200.21C201.84 183.37 203.15 184.66 203.15 186.26C203.15 187.86 201.83 189.15 200.21 189.15Z" fill="#484848"/>
<path d="M128.99 111.87H57.4799C55.8499 111.87 54.5399 110.57 54.5399 108.98V61.4998H46.3699C45.1299 61.4998 44.0199 60.7298 43.5999 59.5798C43.1799 58.4298 43.5499 57.1498 44.4999 56.3698L91.3599 18.6598C92.4499 17.7898 93.9999 17.7898 95.0899 18.6598L141.95 56.3698C142.91 57.1398 143.27 58.4298 142.85 59.5798C142.43 60.7298 141.32 61.4998 140.08 61.4998H131.91V108.98C131.91 109.75 131.6 110.48 131.05 111.02C130.5 111.56 129.75 111.87 128.97 111.87H128.99ZM60.4199 106.08H126.05V58.5998C126.05 56.9998 127.37 55.7098 128.99 55.7098H131.86L93.2399 24.6298L54.6099 55.7098H57.4799C59.1099 55.7098 60.4199 56.9998 60.4199 58.5998V106.08Z" fill="#484848"/>
<path d="M84.5899 111.95C82.9599 111.95 81.6499 110.66 81.6499 109.06V73.1498C81.6499 71.5498 82.9699 70.2598 84.5899 70.2598H102.98C104.61 70.2598 105.92 71.5498 105.92 73.1498V108.89C105.92 110.49 104.6 111.78 102.98 111.78C101.36 111.78 100.04 110.49 100.04 108.89V76.0398H87.5399V109.06C87.5399 110.66 86.2199 111.95 84.5999 111.95H84.5899Z" fill="#484848"/>
<path d="M172.05 137.24V149.25C172.05 152.49 166.26 152.52 166.26 149.25V138.25C166.26 137.35 166.08 136.7 165.73 136.3C165.37 135.91 164.67 135.71 163.64 135.71H153.26C151.62 135.71 150.29 136.94 150.29 138.46V157.69C150.29 159.21 148.96 160.44 147.32 160.44C145.68 160.44 144.35 159.21 144.35 157.69V133.45C144.35 131.93 145.68 130.7 147.32 130.7H165.77C167.88 130.7 169.46 131.22 170.5 132.26C171.53 133.3 172.05 134.96 172.05 137.24ZM183.19 132.25V153.06C183.19 155.5 182.58 157.34 181.36 158.58C180.14 159.82 178.5 160.44 176.43 160.44H158.5C156.86 160.44 155.53 159.21 155.53 157.69V143.19C155.53 141.67 156.86 140.44 158.5 140.44C160.14 140.44 161.47 141.67 161.47 143.19V152.74C161.47 154.26 162.8 155.49 164.44 155.49H174.82C175.85 155.49 176.53 155.3 176.85 154.93C177.17 154.55 177.33 153.92 177.33 153.01V132.26C177.33 129.19 183.19 129.23 183.19 132.26V132.25Z" fill="#484848"/>
</svg>
