<svg width="216" height="216" viewBox="0 0 216 216" fill="none" xmlns="http://www.w3.org/2000/svg">
<path d="M33.0201 190.26C31.3901 190.26 30.0801 188.97 30.0801 187.37V166.23C30.0801 139.16 52.4901 117.13 80.0301 117.13H106.47C114.32 117.13 122.76 119.26 130.23 123.13C131.67 123.88 132.22 125.62 131.46 127.04C130.7 128.45 128.92 128.99 127.49 128.25C120.85 124.81 113.39 122.92 106.47 122.92H80.0301C55.7301 122.92 35.9601 142.35 35.9601 166.24V187.38C35.9601 188.98 34.6401 190.27 33.0201 190.27V190.26Z" fill="#027DB3"/>
<path d="M57.0801 190.25C55.4501 190.25 54.1401 188.96 54.1401 187.36V161.97C54.1401 160.37 55.4601 159.08 57.0801 159.08C58.7001 159.08 60.0201 160.37 60.0201 161.97V187.36C60.0201 188.96 58.7001 190.25 57.0801 190.25Z" fill="#027DB3"/>
<path d="M94.06 136.37H94.02C79.65 136.35 69.23 123.18 68.8 122.62C67.81 121.35 68.06 119.54 69.35 118.57C70.65 117.6 72.49 117.84 73.47 119.1C73.56 119.21 82.6 130.58 94.06 130.58C100.69 130.58 107.06 126.74 113 119.16C113.99 117.89 115.84 117.65 117.12 118.63C118.41 119.6 118.65 121.42 117.65 122.69C110.54 131.76 102.6 136.37 94.05 136.37H94.06Z" fill="#027DB3"/>
<path d="M163.73 190.02C139.87 190.02 120.46 170.39 120.46 146.25C120.46 122.11 139.87 102.48 163.73 102.48C187.59 102.48 207 122.11 207 146.25C207 170.39 187.59 190.02 163.73 190.02ZM163.73 108.27C143.11 108.27 126.34 125.31 126.34 146.25C126.34 167.19 143.11 184.23 163.73 184.23C184.35 184.23 201.12 167.19 201.12 146.25C201.12 125.31 184.35 108.27 163.73 108.27Z" fill="#027DB3"/>
<path d="M200.21 190.25H27.3599C25.7299 190.25 24.4199 188.96 24.4199 187.36C24.4199 185.76 25.7399 184.47 27.3599 184.47H200.21C201.84 184.47 203.15 185.76 203.15 187.36C203.15 188.96 201.83 190.25 200.21 190.25Z" fill="#027DB3"/>
<path d="M128.99 112.97H57.4799C55.8499 112.97 54.5399 111.67 54.5399 110.08V62.5999H46.3699C45.1299 62.5999 44.0199 61.8299 43.5999 60.6799C43.1799 59.5299 43.5499 58.2499 44.4999 57.4699L91.3599 19.7599C92.4499 18.8899 93.9999 18.8899 95.0899 19.7599L141.95 57.4699C142.91 58.2399 143.27 59.5299 142.85 60.6799C142.43 61.8299 141.32 62.5999 140.08 62.5999H131.91V110.08C131.91 110.85 131.6 111.58 131.05 112.12C130.5 112.66 129.75 112.97 128.97 112.97H128.99ZM60.4199 107.19H126.05V59.7099C126.05 58.1099 127.37 56.8199 128.99 56.8199H131.86L93.2399 25.7399L54.6099 56.8199H57.4799C59.1099 56.8199 60.4199 58.1099 60.4199 59.7099V107.19Z" fill="#027DB3"/>
<path d="M84.5899 113.06C82.9599 113.06 81.6499 111.77 81.6499 110.17V74.2601C81.6499 72.6601 82.9699 71.3701 84.5899 71.3701H102.98C104.61 71.3701 105.92 72.6601 105.92 74.2601V110C105.92 111.6 104.6 112.89 102.98 112.89C101.36 112.89 100.04 111.6 100.04 110V77.1501H87.5399V110.17C87.5399 111.77 86.2199 113.06 84.5999 113.06H84.5899Z" fill="#027DB3"/>
<path d="M172.05 138.34V150.35C172.05 153.59 166.26 153.62 166.26 150.35V139.35C166.26 138.45 166.08 137.8 165.73 137.4C165.37 137.01 164.67 136.81 163.64 136.81H153.26C151.62 136.81 150.29 138.04 150.29 139.56V158.79C150.29 160.31 148.96 161.54 147.32 161.54C145.68 161.54 144.35 160.31 144.35 158.79V134.55C144.35 133.03 145.68 131.8 147.32 131.8H165.77C167.88 131.8 169.46 132.32 170.5 133.36C171.53 134.4 172.05 136.06 172.05 138.34ZM183.19 133.35V154.16C183.19 156.6 182.58 158.44 181.36 159.68C180.14 160.92 178.5 161.54 176.43 161.54H158.5C156.86 161.54 155.53 160.31 155.53 158.79V144.29C155.53 142.77 156.86 141.54 158.5 141.54C160.14 141.54 161.47 142.77 161.47 144.29V153.84C161.47 155.36 162.8 156.59 164.44 156.59H174.82C175.85 156.59 176.53 156.4 176.85 156.03C177.17 155.65 177.33 155.02 177.33 154.11V133.36C177.33 130.29 183.19 130.33 183.19 133.36V133.35Z" fill="#027DB3"/>
</svg>
