<svg width="18" height="14" viewBox="0 0 18 14" fill="none" xmlns="http://www.w3.org/2000/svg">
<path fill-rule="evenodd" clip-rule="evenodd" d="M1.64341 1.30992C0.666748 2.28575 0.666748 3.85742 0.666748 6.99992C0.666748 10.1424 0.666748 11.7141 1.64341 12.6899C2.62008 13.6658 4.19091 13.6666 7.33342 13.6666H10.6667C13.8092 13.6666 15.3809 13.6666 16.3567 12.6899C17.3326 11.7133 17.3334 10.1424 17.3334 6.99992C17.3334 3.85742 17.3334 2.28575 16.3567 1.30992C15.3801 0.334085 13.8092 0.333252 10.6667 0.333252L7.33342 0.333252C4.19091 0.333252 2.61925 0.333252 1.64341 1.30992ZM14.4801 3.26659C14.5861 3.39391 14.6373 3.55813 14.6223 3.72315C14.6073 3.88816 14.5273 4.04047 14.4001 4.14659L12.5701 5.67159C11.8309 6.28825 11.2326 6.78659 10.7034 7.12659C10.1534 7.48075 9.61758 7.70409 9.00008 7.70409C8.38258 7.70409 7.84675 7.47992 7.29592 7.12659C6.76758 6.78659 6.16925 6.28742 5.43008 5.67242L3.60008 4.14742C3.47267 4.04133 3.39261 3.88898 3.37753 3.72387C3.36245 3.55876 3.41358 3.39442 3.51967 3.267C3.62575 3.13959 3.77811 3.05953 3.94322 3.04445C4.10833 3.02937 4.27267 3.0805 4.40008 3.18658L6.20008 4.68575C6.97758 5.33325 7.51675 5.78159 7.97341 6.07492C8.41425 6.35825 8.71342 6.45409 9.00092 6.45409C9.28842 6.45409 9.58758 6.35909 10.0284 6.07492C10.4842 5.78159 11.0242 5.33325 11.8017 4.68575L13.6009 3.18575C13.7283 3.07981 13.8926 3.02881 14.0577 3.04397C14.2227 3.05912 14.3741 3.1392 14.4801 3.26659Z" fill="#5B1F3F"/>
</svg>
