<svg width="216" height="216" viewBox="0 0 216 216" fill="none" xmlns="http://www.w3.org/2000/svg">
<path d="M169.34 27H69.04C63.16 27 58.38 31.71 58.38 37.5V64.5C58.06 64.53 57.71 64.55 57.36 64.61C48.69 66.04 41.84 72.75 40.28 81.32C39.88 83.59 40.28 86.5 41.54 89.94C45.41 100.62 47.15 111.92 46.75 123.55C42.83 124.69 39.96 128.2 39.96 132.41V135.85H36.58C26.32 135.85 18 144.07 18 154.18V162.35C18 163.8 19.21 164.99 20.68 164.99H25.19V167.56C25.19 171.98 28.84 175.57 33.32 175.57H58.37V178.51C58.37 184.3 63.15 189.01 69.03 189.01H169.33C175.21 189.01 179.99 184.3 179.99 178.51V37.5C179.99 31.71 175.21 27 169.33 27H169.34ZM46.59 88.17C45.7 85.68 45.33 83.57 45.57 82.25C46.7 75.98 51.91 70.88 58.27 69.82C62.94 69.05 67.51 70.27 71.08 73.26C74.6 76.2 76.61 80.48 76.61 85.03C76.61 85.43 76.53 86.3 75.94 87.91C71.7 99.31 69.66 111.15 69.85 123.16H52.16C52.48 111.05 50.63 99.28 46.6 88.17H46.59ZM45.33 132.41C45.33 130.22 47.16 128.44 49.38 128.44H72.58C74.81 128.44 76.61 130.21 76.61 132.41V135.85H45.33V132.41ZM23.37 159.7V154.17C23.37 146.98 29.3 141.13 36.58 141.13H85.36C92.66 141.13 98.57 146.97 98.57 154.17V159.7H23.37ZM33.33 170.28C31.8 170.28 30.56 169.06 30.56 167.56V164.99H91.37V167.56C91.37 169.07 90.14 170.28 88.63 170.28H33.32H33.33ZM174.63 178.5C174.63 181.38 172.27 183.71 169.34 183.71H69.04C66.14 183.71 63.75 181.38 63.75 178.5V175.56H88.64C93.1 175.56 96.75 171.96 96.75 167.55V164.98H101.26C102.76 164.98 103.94 163.79 103.94 162.34V154.17C103.94 144.07 95.62 135.84 85.36 135.84H81.98V132.4C81.98 128.2 79.11 124.68 75.21 123.54C74.97 112.04 76.9 100.67 80.96 89.69C81.66 87.87 81.98 86.33 81.98 85.01C81.98 78.9 79.27 73.14 74.54 69.2C71.45 66.63 67.69 65.05 63.75 64.52V37.49C63.75 34.61 66.14 32.28 69.04 32.28H169.34C172.27 32.28 174.63 34.61 174.63 37.49V178.49V178.5Z" fill="#027DB3"/>
<path d="M91.3801 164.99V167.56C91.3801 169.07 90.1501 170.28 88.6401 170.28H33.3301C31.8001 170.28 30.5601 169.06 30.5601 167.56V164.99H91.3701H91.3801Z" fill="#5CEBBE"/>
<path d="M169.34 32.29H69.04C66.14 32.29 63.75 34.62 63.75 37.5V64.53C67.7 65.06 71.46 66.65 74.54 69.21C79.27 73.15 81.98 78.92 81.98 85.02C81.98 86.34 81.66 87.88 80.96 89.7C76.91 100.67 74.97 112.05 75.21 123.55C79.1 124.69 81.98 128.2 81.98 132.41V135.85H85.36C95.62 135.85 103.94 144.07 103.94 154.18V162.35C103.94 163.8 102.76 164.99 101.26 164.99H96.75V167.56C96.75 171.98 93.1 175.57 88.64 175.57H63.75V178.51C63.75 181.39 66.14 183.72 69.04 183.72H169.34C172.27 183.72 174.63 181.39 174.63 178.51V37.5C174.63 34.62 172.27 32.29 169.34 32.29ZM76.8 52.23C75.32 52.23 74.12 51.04 74.12 49.59C74.12 48.14 75.33 46.95 76.8 46.95H161.61C163.09 46.95 164.29 48.14 164.29 49.59C164.29 51.04 163.08 52.23 161.61 52.23H76.8ZM85.98 71.06C85.98 69.61 87.19 68.42 88.66 68.42H160.21C161.69 68.42 162.89 69.61 162.89 71.06C162.89 72.51 161.68 73.7 160.21 73.7H88.66C87.18 73.7 85.98 72.51 85.98 71.06ZM162.9 90.04C162.9 91.49 161.69 92.68 160.22 92.68H92.46C90.98 92.68 89.78 91.49 89.78 90.04C89.78 88.59 90.99 87.4 92.46 87.4H160.22C161.7 87.4 162.9 88.56 162.9 90.04ZM92.45 111.81C90.97 111.81 89.77 110.62 89.77 109.17C89.77 107.72 90.98 106.53 92.45 106.53H160.21C161.69 106.53 162.89 107.72 162.89 109.17C162.89 110.62 161.68 111.81 160.21 111.81H92.45ZM142.63 174.64C129.15 174.64 118.23 163.85 118.23 150.6C118.23 137.35 129.16 126.56 142.63 126.56C156.1 126.56 167.03 137.35 167.03 150.6C167.03 163.85 156.08 174.64 142.63 174.64Z" fill="#83DFE8"/>
<path d="M76.6101 132.41V135.85H45.3301V132.41C45.3301 130.22 47.1601 128.44 49.3801 128.44H72.5801C74.8101 128.44 76.6101 130.21 76.6101 132.41Z" fill="#5CEBBE"/>
<path d="M76.6098 85.02C76.6098 85.42 76.5298 86.29 75.9398 87.9C71.6998 99.3 69.6598 111.14 69.8498 123.15H52.1598C52.4798 111.04 50.6298 99.27 46.5998 88.16C45.7098 85.67 45.3398 83.56 45.5798 82.24C46.7098 75.97 51.9198 70.87 58.2798 69.81C62.9498 69.04 67.5198 70.26 71.0898 73.25C74.6098 76.19 76.6198 80.47 76.6198 85.02H76.6098Z" fill="#E6F9FA"/>
<path d="M98.5701 154.17V159.7H23.3701V154.17C23.3701 146.98 29.3001 141.13 36.5801 141.13H85.3601C92.6601 141.13 98.5701 146.97 98.5701 154.17Z" fill="#E6F9FA"/>
<path d="M142.63 126.56C129.15 126.56 118.23 137.35 118.23 150.6C118.23 163.85 129.16 174.64 142.63 174.64C156.1 174.64 167.03 163.85 167.03 150.6C167.03 137.35 156.08 126.56 142.63 126.56ZM142.63 169.35C132.13 169.35 123.59 160.94 123.59 150.6C123.59 140.26 132.13 131.85 142.63 131.85C153.13 131.85 161.67 140.26 161.67 150.6C161.67 160.94 153.13 169.35 142.63 169.35Z" fill="#027DB3"/>
<path d="M142.63 131.85C132.13 131.85 123.59 140.26 123.59 150.6C123.59 160.94 132.13 169.35 142.63 169.35C153.13 169.35 161.67 160.94 161.67 150.6C161.67 140.26 153.13 131.85 142.63 131.85ZM155.03 146.32L141.44 160.02C140.93 160.52 140.23 160.81 139.51 160.81H139.46C138.71 160.78 138.01 160.47 137.53 159.91L130.68 152.35C129.69 151.27 129.77 149.6 130.89 148.62C131.99 147.64 133.68 147.75 134.68 148.83L139.62 154.28L151.19 142.62C152.21 141.59 153.93 141.56 154.98 142.59C156.05 143.59 156.05 145.29 155.03 146.32Z" fill="#5CEBBE"/>
<path d="M155.03 146.32L141.44 160.02C140.93 160.52 140.23 160.81 139.51 160.81H139.46C138.71 160.78 138.01 160.47 137.53 159.91L130.68 152.35C129.69 151.27 129.77 149.6 130.89 148.62C131.99 147.64 133.68 147.75 134.68 148.83L139.62 154.28L151.19 142.62C152.21 141.59 153.93 141.56 154.98 142.59C156.05 143.59 156.05 145.29 155.03 146.32Z" fill="#027DB3"/>
<path d="M164.29 49.5799C164.29 51.0299 163.08 52.2199 161.61 52.2199H76.8001C75.3201 52.2199 74.1201 51.0299 74.1201 49.5799C74.1201 48.1299 75.3301 46.9399 76.8001 46.9399H161.61C163.09 46.9399 164.29 48.1299 164.29 49.5799Z" fill="#027DB3"/>
<path d="M162.9 71.0599C162.9 72.5099 161.69 73.6999 160.22 73.6999H88.6702C87.1902 73.6999 85.9902 72.5099 85.9902 71.0599C85.9902 69.6099 87.2002 68.4199 88.6702 68.4199H160.22C161.7 68.4199 162.9 69.6099 162.9 71.0599Z" fill="#027DB3"/>
<path d="M162.9 90.0399C162.9 91.4899 161.69 92.6799 160.22 92.6799H92.4598C90.9798 92.6799 89.7798 91.4899 89.7798 90.0399C89.7798 88.5899 90.9898 87.3999 92.4598 87.3999H160.22C161.7 87.3999 162.9 88.5599 162.9 90.0399Z" fill="#027DB3"/>
<path d="M162.9 109.16C162.9 110.61 161.69 111.8 160.22 111.8H92.4598C90.9798 111.8 89.7798 110.61 89.7798 109.16C89.7798 107.71 90.9898 106.52 92.4598 106.52H160.22C161.7 106.52 162.9 107.71 162.9 109.16Z" fill="#027DB3"/>
</svg>
