<svg width="20" height="20" fill="none" viewBox="0 0 24 24" xmlns="http://www.w3.org/2000/svg">
  <path d="M17.94 17.94A10.94 10.94 0 0 1 12 19c-7 0-11-7-11-7a21.77 21.77 0 0 1 5.06-5.94" stroke="#bbb" stroke-width="2"/>
  <path d="M1 1l22 22" stroke="#bbb" stroke-width="2"/>
  <path d="M9.53 9.53A3.001 3.001 0 0 0 12 15c1.66 0 3-1.34 3-3 0-.47-.11-.91-.29-1.29" stroke="#bbb" stroke-width="2"/>
  <path d="M22.94 12.94A10.94 10.94 0 0 0 12 5c-2.5 0-4.78.77-6.69 2.06" stroke="#bbb" stroke-width="2"/>
</svg> 
