<svg width="216" height="216" viewBox="0 0 216 216" fill="none" xmlns="http://www.w3.org/2000/svg">
<path d="M178.63 72.33V61.84C178.63 54.17 171.62 47.95 162.97 47.95H110.97C103.86 47.95 97.33 44.28 94.28 38.62L92.31 34.92C89.74 30.12 84.18 27.01 78.16 27.01H53.03C44.38 27.01 37.37 33.23 37.37 40.88V97.26C31.44 98.47 27 103.16 27 108.79V177.16C27 183.7 32.99 189.02 40.36 189.02H175.63C183.01 189.02 188.99 183.71 188.99 177.16V83.88C188.99 78.27 184.55 73.55 178.62 72.35L178.63 72.33ZM43.42 40.87C43.42 36.18 47.71 32.37 53.03 32.37H78.16C81.88 32.37 85.27 34.27 86.84 37.22L88.84 40.89C92.86 48.43 101.54 53.31 110.97 53.31H162.97C168.29 53.31 172.58 57.15 172.58 61.84V71.98H163.96V69.24C163.96 64.41 159.58 60.52 154.13 60.52H61.86C56.45 60.52 52.03 64.41 52.03 69.24V96.92H43.41V40.86L43.42 40.87ZM157.92 69.24V71.98H146.64C140.99 71.98 135.91 75.14 134 79.87L131.52 86.04C128.89 92.56 121.91 96.93 114.1 96.93H58.07V69.25C58.07 67.4 59.76 65.9 61.85 65.9H154.13C156.22 65.9 157.91 67.4 157.91 69.25L157.92 69.24ZM182.95 177.14C182.95 180.73 179.65 183.63 175.63 183.63H40.36C36.34 183.63 33.04 180.73 33.04 177.14V171.43H151.92C153.58 171.43 154.94 170.22 154.94 168.75C154.94 167.28 153.58 166.07 151.92 166.07H33.05V108.78C33.05 105.19 36.35 102.29 40.37 102.29H114.11C124.45 102.29 133.73 96.47 137.21 87.83L139.69 81.69C140.75 79.09 143.53 77.34 146.64 77.34H175.57C179.65 77.34 182.95 80.26 182.95 83.86V177.14Z" fill="#027DB3"/>
<path d="M172.58 61.8401V71.9801H163.96V69.2401C163.96 64.4101 159.58 60.5201 154.13 60.5201H61.8599C56.4499 60.5201 52.0299 64.4101 52.0299 69.2401V96.9201H43.4099V40.8601C43.4099 36.1701 47.6999 32.3601 53.0199 32.3601H78.1499C81.8699 32.3601 85.2599 34.2601 86.8299 37.2101L88.8299 40.8801C92.8499 48.4201 101.53 53.3001 110.96 53.3001H162.96C168.28 53.3001 172.57 57.1401 172.57 61.8301L172.58 61.8401Z" fill="#5CEBBE"/>
<path d="M154.14 65.8899H61.8601C59.7701 65.8899 58.0801 67.3899 58.0801 69.2399V96.9199H114.11C121.91 96.9199 128.89 92.5499 131.53 86.0299L134.01 79.8599C135.91 75.1399 140.99 71.9699 146.65 71.9699H157.93V69.2299C157.93 67.3799 156.24 65.8799 154.15 65.8799L154.14 65.8899ZM116.5 90.5399H70.6001C68.9401 90.5399 67.5801 89.3599 67.5801 87.8599C67.5801 86.3599 68.9401 85.1799 70.6001 85.1799H116.5C118.16 85.1799 119.52 86.3899 119.52 87.8599C119.52 89.3299 118.16 90.5399 116.5 90.5399ZM116.5 77.6099H70.6001C68.9401 77.6099 67.5801 76.3999 67.5801 74.9299C67.5801 73.4599 68.9401 72.2499 70.6001 72.2499H116.5C118.16 72.2499 119.52 73.4599 119.52 74.9299C119.52 76.3999 118.16 77.6099 116.5 77.6099Z" fill="#E6F9FA"/>
<path d="M182.95 83.8601V177.14C182.95 180.73 179.65 183.63 175.63 183.63H40.36C36.34 183.63 33.04 180.73 33.04 177.14V171.43H151.92C153.58 171.43 154.94 170.22 154.94 168.75C154.94 167.28 153.58 166.07 151.92 166.07H33.05V108.78C33.05 105.19 36.35 102.29 40.37 102.29H114.11C124.45 102.29 133.73 96.4701 137.21 87.8301L139.69 81.6901C140.75 79.0901 143.53 77.3401 146.64 77.3401H175.57C179.65 77.3401 182.95 80.2601 182.95 83.8601Z" fill="#83DFE8"/>
<path d="M119.52 74.93C119.52 76.41 118.16 77.61 116.5 77.61H70.6001C68.9401 77.61 67.5801 76.4 67.5801 74.93C67.5801 73.46 68.9401 72.25 70.6001 72.25H116.5C118.16 72.25 119.52 73.46 119.52 74.93Z" fill="#027DB3"/>
<path d="M119.52 87.8599C119.52 89.3599 118.16 90.5399 116.5 90.5399H70.6001C68.9401 90.5399 67.5801 89.3599 67.5801 87.8599C67.5801 86.3599 68.9401 85.1799 70.6001 85.1799H116.5C118.16 85.1799 119.52 86.3899 119.52 87.8599Z" fill="#027DB3"/>
</svg>
