<svg width="216" height="216" viewBox="0 0 216 216" fill="none" xmlns="http://www.w3.org/2000/svg">
<path d="M197.07 79.44L186.74 69.83C186.74 69.83 186.71 69.77 186.68 69.74L162.85 47.58V36.33C162.85 30.04 157.74 24.96 151.45 24.96H47.37C41.08 24.96 36 30.04 36 36.33V160C36 166.26 41.08 171.37 47.37 171.37H59.49V192.84C59.49 193.99 60.15 195 61.19 195.47C62.2 195.96 63.41 195.79 64.28 195.04L73.11 187.39L81.97 195.04C82.52 195.5 83.18 195.73 83.87 195.73C84.27 195.73 84.68 195.67 85.05 195.47C86.09 195.01 86.75 194 86.75 192.84V171.37H151.44C157.73 171.37 162.84 166.26 162.84 160V116.08H184.68C186.27 116.08 187.57 114.81 187.57 113.19V78.45L193.14 83.64C193.72 84.16 194.41 84.42 195.1 84.42C195.88 84.42 196.66 84.1 197.24 83.5C198.31 82.32 198.25 80.5 197.07 79.43V79.44ZM80.98 186.55L75.01 181.39C73.91 180.44 72.33 180.44 71.23 181.39L65.26 186.55V158.42C67.68 159.46 70.34 160.04 73.11 160.04C75.88 160.04 78.56 159.46 80.99 158.42V186.55H80.98ZM73.11 154.26C65.29 154.26 58.94 147.91 58.94 140.09C58.94 132.27 65.29 125.89 73.11 125.89C80.93 125.89 87.31 132.27 87.31 140.09C87.31 147.91 80.93 154.26 73.11 154.26ZM157.07 160C157.07 163.09 154.53 165.6 151.44 165.6H86.75V154.61C90.62 150.97 93.07 145.81 93.07 140.1C93.07 129.08 84.12 120.13 73.1 120.13C62.08 120.13 53.16 129.07 53.16 140.1C53.16 145.81 55.61 150.98 59.48 154.61V165.6H47.36C44.27 165.6 41.76 163.09 41.76 160V36.33C41.76 33.24 44.27 30.73 47.36 30.73H151.44C154.53 30.73 157.07 33.24 157.07 36.33V47.55L122.79 79.43C121.61 80.5 121.55 82.32 122.65 83.5C123.72 84.65 125.56 84.74 126.72 83.64L132.29 78.45V113.19C132.29 114.81 133.59 116.08 135.18 116.08H157.08V160H157.07ZM165.96 110.31H153.9V90.89H165.96V110.31ZM181.8 110.31H171.73V88.01C171.73 86.42 170.43 85.12 168.84 85.12H151.01C149.42 85.12 148.12 86.42 148.12 88.01V110.31H138.05V73.09L159.92 52.75L181.79 73.09V110.31H181.8Z" fill="#027DB3"/>
<path d="M117.02 74.39C117.02 75.98 115.75 77.28 114.13 77.28H83.17C81.58 77.28 80.28 75.98 80.28 74.39C80.28 72.8 81.58 71.5 83.17 71.5H114.13C115.75 71.5 117.02 72.77 117.02 74.39Z" fill="#027DB3"/>
<path d="M126.2 92.51C126.2 94.1 124.9 95.4 123.31 95.4H74.0299C72.4399 95.4 71.1399 94.1 71.1399 92.51C71.1399 90.92 72.4399 89.62 74.0299 89.62H123.31C124.9 89.62 126.2 90.92 126.2 92.51Z" fill="#027DB3"/>
<path d="M126.2 110.66C126.2 112.25 124.9 113.55 123.31 113.55H74.0299C72.4399 113.55 71.1399 112.25 71.1399 110.66C71.1399 109.07 72.4399 107.77 74.0299 107.77H123.31C124.9 107.77 126.2 109.04 126.2 110.66Z" fill="#027DB3"/>
<path d="M124.01 41.15H73.3099C71.7199 41.15 70.4199 42.45 70.4199 44.04V58.61C70.4199 60.2 71.7199 61.5 73.3099 61.5H124.01C125.63 61.5 126.9 60.2 126.9 58.61V44.04C126.9 42.45 125.63 41.15 124.01 41.15ZM121.12 55.72H76.1899V46.92H121.12V55.72Z" fill="#027DB3"/>
<path d="M146.2 140.73C145.8 140.96 139.51 144.42 132.7 144.42C128.98 144.42 125.14 143.38 121.99 140.24C116.19 134.44 105.2 140.64 105.08 140.7C103.7 141.51 101.93 141.02 101.13 139.66C100.35 138.28 100.81 136.51 102.2 135.71C102.81 135.36 117.12 127.23 126.06 136.17C131.89 142 143.29 135.77 143.4 135.68C144.78 134.93 146.55 135.42 147.32 136.81C148.09 138.2 147.58 139.96 146.19 140.73H146.2Z" fill="#027DB3"/>
</svg>
