<svg width="216" height="216" viewBox="0 0 216 216" fill="none" xmlns="http://www.w3.org/2000/svg">
<path d="M196.61 132.48L171.93 94.5599C170.68 92.5999 168.7 91.2799 166.42 90.7899C164.12 90.2999 161.79 90.6999 159.83 91.9699L157.82 93.2399V64.5999L172.1 78.6599C173.24 79.7799 175.07 79.7799 176.21 78.6599C177.35 77.5399 177.35 75.7299 176.21 74.6099L110.56 9.79988C109.45 8.73988 107.53 8.73988 106.42 9.79988L40.7699 74.5999C39.6299 75.7199 39.6299 77.5299 40.7699 78.6499C41.3199 79.2299 42.0799 79.4799 42.8399 79.4799C43.5999 79.4799 44.3299 79.2199 44.8799 78.6499L59.1299 64.5899V93.5099L56.1599 91.6399C54.2099 90.3999 51.8499 89.9699 49.5699 90.4599C47.2999 90.9499 45.3199 92.2999 44.0599 94.2599L19.3799 132.15C16.7899 136.18 17.9499 141.52 22.0299 144.08L39.1299 154.95C40.5599 155.84 42.1899 156.3 43.8499 156.3C44.4599 156.3 45.0999 156.24 45.7399 156.13C46.5299 155.96 47.2799 155.64 47.9799 155.27L50.3399 159.44C53.1699 164.41 57.2199 168.67 62.0499 171.75L86.0899 186.96C88.2199 188.31 90.6099 189 93.0799 189C94.0099 189 94.9399 188.91 95.8799 188.71C99.1999 187.99 102.06 186.04 103.95 183.22C104.88 183.77 105.84 184.11 106.86 184.31C109.25 187.19 112.86 188.62 117.26 188.62C120.67 188.62 124.57 187.76 128.74 186.03C128.86 185.97 128.94 185.92 129.03 185.89L153.89 172.03C158.73 168.95 162.78 164.7 165.6 159.72L167.96 155.55C168.66 155.92 169.42 156.24 170.2 156.41C170.84 156.55 171.48 156.61 172.09 156.61C173.75 156.61 175.38 156.15 176.81 155.23L193.91 144.39C195.89 143.12 197.23 141.2 197.76 138.96C198.26 136.69 197.82 134.39 196.57 132.46L196.61 132.48ZM64.9499 58.8499L108.49 15.8899L152 58.8099V96.8999L142.7 102.79C138.94 105.18 137.69 109.95 139.61 113.83L108.17 116.02L76.3799 113.58C77.2499 111.83 77.5499 109.87 77.1099 107.92C76.6099 105.68 75.2499 103.75 73.2899 102.49L64.9599 97.2299V58.8499H64.9499ZM46.3299 149.24C45.9199 149.9 45.2499 150.33 44.4899 150.51C43.7299 150.68 42.9499 150.54 42.2799 150.11L25.1799 139.27C23.8099 138.41 23.4299 136.62 24.2799 135.27L48.9599 97.3799C49.3999 96.7199 50.0399 96.2599 50.8199 96.1099C51.0199 96.0499 51.2299 96.0199 51.4299 96.0199C51.9799 96.0199 52.5399 96.1899 52.9999 96.4799L70.1299 107.35C70.7699 107.75 71.2399 108.41 71.4099 109.16C71.5599 109.91 71.4399 110.68 70.9999 111.35L46.3199 149.24H46.3299ZM112.19 176.98C111.05 178.76 108.72 179.31 106.89 178.25L90.8299 168.99C89.4299 168.19 87.6499 168.65 86.8399 170.02C86.0199 171.37 86.4899 173.15 87.8899 173.96L98.8999 180.31C97.8799 181.72 96.3899 182.7 94.6499 183.07C92.7899 183.47 90.8599 183.13 89.2599 182.12L65.2199 166.88C61.1699 164.32 57.7899 160.78 55.4299 156.62L52.1999 150.9L72.9199 119.07L91.5699 120.51C90.1399 121.86 89.1499 123.56 88.9499 125.8C88.3699 133.13 95.9699 134.2 101.01 134.91C103.84 135.34 106.75 135.74 108.53 136.81C108.53 136.81 108.55 136.82 108.59 136.84L137.88 154.29C138.4 154.61 138.58 155.09 138.64 155.35C138.76 155.81 138.67 156.3 138.41 156.67L136.2 160.12C135.7 160.87 134.66 161.13 133.84 160.7L100.68 141.98C99.2799 141.18 97.4999 141.66 96.7199 143.04C95.9299 144.42 96.3999 146.17 97.7999 146.95L128.25 164.14L125.83 167.71C124.23 170.1 120.99 170.84 118.52 169.41L98.0599 157.85C96.6599 157.07 94.8799 157.53 94.0999 158.91C93.2799 160.29 93.7799 162.04 95.1799 162.85L114.38 173.69L112.22 176.97L112.19 176.98ZM160.56 156.94C158.2 161.08 154.82 164.62 150.89 167.12L126.35 180.81C121.72 182.71 117.64 183.28 114.69 182.56C115.59 181.87 116.44 181.09 117.11 180.12L119.91 175.81C120.32 175.87 120.75 175.9 121.19 175.9C124.86 175.9 128.47 174.15 130.66 170.93L133.63 166.56C133.98 166.62 134.33 166.67 134.68 166.67C137.19 166.67 139.6 165.46 141.06 163.25L143.3 159.8C144.41 158.08 144.76 156.06 144.29 154.08C143.82 152.1 142.6 150.43 140.85 149.39L133.48 144.99H133.71C137.85 144.99 141.93 144.13 145.07 141.63C146.32 140.62 146.53 138.81 145.51 137.58C144.49 136.35 142.65 136.17 141.4 137.15C135.63 141.78 122.37 137.58 117.56 135.51L111.5 131.89C111.5 131.89 111.44 131.89 111.41 131.86C108.64 130.25 105.17 129.73 101.82 129.27C95.5799 128.38 94.6199 127.75 94.7399 126.25C94.9999 123 103.02 121.76 107.82 121.79H108.23L143.05 119.37L163.77 151.2L160.54 156.95L160.56 156.94ZM192.09 137.74C191.92 138.52 191.48 139.15 190.81 139.58L173.71 150.42C173.04 150.82 172.25 150.97 171.5 150.82C170.74 150.65 170.07 150.19 169.66 149.55L144.98 111.63C144.11 110.28 144.51 108.5 145.85 107.63L162.98 96.7899C163.45 96.4699 164 96.3299 164.55 96.3299C164.75 96.3299 164.96 96.3599 165.16 96.3899C165.95 96.5599 166.59 96.9899 167.02 97.6599L191.7 135.58C192.11 136.21 192.25 136.99 192.08 137.74H192.09Z" fill="#027DB3"/>
<path d="M108.49 15.8896L64.96 58.8396V97.2197L73.29 102.48C75.24 103.75 76.61 105.67 77.11 107.91C77.55 109.87 77.26 111.82 76.38 113.57L108.17 116.01L139.61 113.82C137.69 109.94 138.94 105.17 142.7 102.78L152 96.8896V58.7996L108.49 15.8896Z" fill="#83DFE8"/>
<path d="M192.09 137.74C191.92 138.52 191.48 139.15 190.81 139.58L173.71 150.42C173.04 150.82 172.25 150.97 171.5 150.82C170.74 150.65 170.07 150.19 169.66 149.55L144.98 111.63C144.11 110.28 144.51 108.5 145.85 107.63L162.98 96.7901C163.45 96.4701 164 96.3301 164.55 96.3301C164.75 96.3301 164.96 96.3601 165.16 96.3901C165.95 96.5601 166.59 96.9901 167.02 97.6601L191.7 135.58C192.11 136.21 192.25 136.99 192.08 137.74H192.09Z" fill="#5CEBBE"/>
<path d="M163.79 151.19L160.56 156.94C158.2 161.08 154.82 164.62 150.89 167.12L126.35 180.81C121.72 182.71 117.64 183.28 114.69 182.56C115.59 181.87 116.44 181.09 117.11 180.12L119.91 175.81C120.32 175.87 120.75 175.9 121.19 175.9C124.86 175.9 128.47 174.15 130.66 170.93L133.63 166.56C133.98 166.62 134.33 166.67 134.68 166.67C137.19 166.67 139.6 165.46 141.06 163.25L143.3 159.8C144.41 158.08 144.76 156.06 144.29 154.08C143.82 152.1 142.6 150.43 140.85 149.39L133.48 144.99H133.71C137.85 144.99 141.93 144.13 145.07 141.63C146.32 140.62 146.53 138.81 145.51 137.58C144.49 136.35 142.65 136.17 141.4 137.15C135.63 141.78 122.37 137.58 117.56 135.51L111.5 131.89C111.5 131.89 111.44 131.89 111.41 131.86C108.64 130.25 105.17 129.73 101.82 129.27C95.5798 128.38 94.6198 127.75 94.7398 126.25C94.9998 123 103.02 121.76 107.82 121.79H108.23L143.05 119.37L163.77 151.2L163.79 151.19Z" fill="#E6F9FA"/>
<path d="M138.38 156.68L136.17 160.13C135.67 160.88 134.63 161.14 133.81 160.71L100.65 141.99C99.2502 141.19 97.4702 141.67 96.6902 143.05C95.9002 144.43 96.3702 146.18 97.7702 146.96L128.22 164.15L125.8 167.72C124.2 170.11 120.96 170.85 118.49 169.42L98.0302 157.86C96.6302 157.08 94.8502 157.54 94.0702 158.92C93.2502 160.3 93.7502 162.05 95.1502 162.86L114.35 173.7L112.19 176.98C111.05 178.76 108.72 179.31 106.89 178.25L90.8302 168.99C89.4302 168.19 87.6502 168.65 86.8402 170.02C86.0202 171.37 86.4902 173.15 87.8902 173.96L98.9002 180.31C97.8802 181.72 96.3902 182.7 94.6502 183.07C92.7902 183.47 90.8602 183.13 89.2602 182.12L65.2202 166.88C61.1702 164.32 57.7902 160.78 55.4302 156.62L52.2002 150.9L72.9202 119.07L91.5702 120.51C90.1402 121.86 89.1502 123.56 88.9502 125.8C88.3702 133.13 95.9702 134.2 101.01 134.91C103.84 135.34 106.75 135.74 108.53 136.81C108.53 136.81 108.55 136.82 108.59 136.84L137.88 154.29C138.4 154.61 138.58 155.09 138.64 155.35C138.76 155.81 138.67 156.3 138.41 156.67L138.38 156.68Z" fill="#E6F9FA"/>
<path d="M71.0101 111.34L46.3301 149.23C45.9201 149.89 45.2501 150.32 44.4901 150.5C43.7301 150.67 42.9501 150.53 42.2801 150.1L25.1801 139.26C23.8101 138.4 23.4301 136.61 24.2801 135.26L48.9601 97.3698C49.4001 96.7098 50.0401 96.2498 50.8201 96.0998C51.0201 96.0398 51.2301 96.0098 51.4301 96.0098C51.9801 96.0098 52.5401 96.1798 53.0001 96.4698L70.1301 107.34C70.7701 107.74 71.2401 108.4 71.4101 109.15C71.5601 109.9 71.4401 110.67 71.0001 111.34H71.0101Z" fill="#5CEBBE"/>
<path d="M117.32 64.07V79.17C117.32 83.24 111.13 83.28 111.13 79.17V65.34C111.13 64.2 110.94 63.39 110.56 62.89C110.18 62.4 109.43 62.15 108.33 62.15H97.2405C95.4905 62.15 94.0705 63.69 94.0705 65.6V89.77C94.0705 91.68 92.6505 93.22 90.9005 93.22C89.1505 93.22 87.7305 91.68 87.7305 89.77V59.3C87.7305 57.39 89.1505 55.85 90.9005 55.85H110.61C112.87 55.85 114.55 56.5 115.66 57.81C116.77 59.12 117.32 61.2 117.32 64.08V64.07ZM129.22 57.8V83.95C129.22 87.02 128.57 89.33 127.27 90.88C125.97 92.44 124.21 93.22 122 93.22H102.84C101.09 93.22 99.6705 91.68 99.6705 89.77V71.54C99.6705 69.63 101.09 68.09 102.84 68.09C104.59 68.09 106.01 69.63 106.01 71.54V83.54C106.01 85.45 107.43 86.99 109.18 86.99H120.27C121.38 86.99 122.1 86.75 122.44 86.28C122.78 85.81 122.96 85.01 122.96 83.87V57.79C122.96 53.94 129.22 53.98 129.22 57.79V57.8Z" fill="#027DB3"/>
</svg>
