<svg width="216" height="216" viewBox="0 0 216 216" fill="none" xmlns="http://www.w3.org/2000/svg">
<path d="M146.48 47.1401H61.2802C51.4108 47.1401 43.4102 55.1408 43.4102 65.0101V178.81C43.4102 188.679 51.4108 196.68 61.2802 196.68H146.48C156.349 196.68 164.35 188.679 164.35 178.81V65.0101C164.35 55.1408 156.349 47.1401 146.48 47.1401Z" fill="#E6F9FA"/>
<path d="M103.88 19.5698C97.6002 19.5698 92.4902 24.7998 92.4902 31.2498C92.4902 37.6998 97.6002 42.8998 103.88 42.8998C110.16 42.8998 115.3 37.6698 115.3 31.2498C115.3 24.8298 110.19 19.5698 103.88 19.5698ZM103.88 36.9298C100.81 36.9298 98.3302 34.3898 98.3302 31.2498C98.3302 28.1098 100.81 25.5398 103.88 25.5398C106.95 25.5398 109.46 28.1098 109.46 31.2498C109.46 34.3898 106.95 36.9298 103.88 36.9298Z" fill="#027DB3"/>
<path d="M161.44 69.7899C163.05 69.7899 164.36 68.4499 164.36 66.7999V61.5999C164.36 53.3499 157.79 46.6299 149.73 46.6299H142.78C141.82 41.9399 137.76 38.4099 132.91 38.4099H124.47C125.23 36.1099 125.61 33.6899 125.61 31.2399C125.61 24.6699 122.81 18.4499 117.9 14.2099C113.02 9.99988 106.54 8.19988 100.12 9.30988C92.0302 10.6799 85.3502 16.7799 83.0702 24.8199C81.7902 29.3299 81.9002 34.0799 83.3302 38.4099H74.8902C70.0102 38.4099 65.9502 41.9399 64.9902 46.6299H58.0402C49.9802 46.6299 43.4102 53.3499 43.4102 61.5999V181.71C43.4102 189.96 49.9802 196.68 58.0402 196.68H149.73C157.79 196.68 164.36 189.96 164.36 181.71V148.78C164.36 147.14 163.05 145.79 161.44 145.79C159.83 145.79 158.52 147.13 158.52 148.78V181.71C158.52 186.67 154.58 190.7 149.73 190.7H58.0402C53.1902 190.7 49.2502 186.67 49.2502 181.71V61.6099C49.2502 56.6499 53.1902 52.6199 58.0402 52.6199H64.7902V57.0099C64.7902 62.7199 69.3202 67.3499 74.8902 67.3499H132.91C138.46 67.3499 142.98 62.7199 142.98 57.0099V52.6199H149.73C154.58 52.6199 158.52 56.6499 158.52 61.6099V66.8099C158.52 68.4499 159.83 69.7999 161.44 69.7999V69.7899ZM137.14 49.6299V57.0099C137.14 59.3999 135.24 61.3699 132.91 61.3699H74.8902C72.5202 61.3699 70.6302 59.3999 70.6302 57.0099V48.7299C70.6302 46.3399 72.5302 44.3999 74.8902 44.3999H87.9102C88.9602 44.3999 89.9502 43.7999 90.4502 42.8499C90.9802 41.8899 90.9502 40.7299 90.3902 39.8299C88.0002 35.9199 87.3802 31.0499 88.6702 26.4999C90.3102 20.7299 95.3002 16.1899 101.08 15.2099C105.87 14.3699 110.51 15.6599 114.13 18.7999C117.72 21.9099 119.77 26.4499 119.77 31.2599C119.77 34.3099 118.95 37.2699 117.4 39.8399C116.82 40.7399 116.79 41.8999 117.31 42.8599C117.84 43.8199 118.8 44.4099 119.88 44.4099H132.9C135.24 44.4099 137.13 46.3499 137.13 48.7399V49.6399L137.14 49.6299Z" fill="#027DB3"/>
<path d="M132.91 44.3999H119.89C118.81 44.3999 117.85 43.7999 117.32 42.8499C116.79 41.8899 116.82 40.7299 117.41 39.8299C118.96 37.2599 119.78 34.2999 119.78 31.2499C119.78 26.4399 117.74 21.8999 114.14 18.7899C110.52 15.6499 105.88 14.3699 101.09 15.1999C95.3101 16.1899 90.3201 20.7299 88.6801 26.4899C87.4001 31.0299 88.0101 35.8999 90.4001 39.8199C90.9501 40.7199 90.9801 41.8799 90.4601 42.8399C89.9601 43.7999 88.9701 44.3899 87.9201 44.3899H74.9001C72.5301 44.3899 70.6401 46.3299 70.6401 48.7199V56.9999C70.6401 59.3899 72.5401 61.3599 74.9001 61.3599H132.92C135.26 61.3599 137.15 59.3899 137.15 56.9999V48.7199C137.15 46.3299 135.25 44.3899 132.92 44.3899L132.91 44.3999ZM103.88 42.8999C97.6001 42.8999 92.4901 37.6699 92.4901 31.2499C92.4901 24.8299 97.6001 19.5699 103.88 19.5699C110.16 19.5699 115.3 24.7999 115.3 31.2499C115.3 37.6999 110.19 42.8999 103.88 42.8999Z" fill="#5CEBBE"/>
<path d="M193.7 73.8899L183.92 66.1499C181.58 64.3299 178.69 63.5199 175.77 63.9099C172.85 64.2999 170.25 65.8199 168.44 68.2099L130.63 118.44C127.07 123.16 125.08 129.05 125.02 135.02L124.87 150.98C124.87 151.94 125.31 152.8 126.01 153.37C126.54 153.79 127.18 154 127.79 154C128.05 154 128.32 153.97 128.58 153.91L143.65 149.7C149.26 148.12 154.31 144.68 157.87 139.93L191.83 94.8699L195.71 89.7299C199.42 84.7999 198.51 77.6899 193.7 73.8899ZM153.26 136.27C150.46 139.97 146.51 142.69 142.11 143.92L130.78 147.09L130.87 135.05C130.9 130.39 132.48 125.79 135.25 122.08L167.43 79.3799L185.42 93.5699L153.27 136.27H153.26ZM191.07 86.0499L189 88.8599L170.98 74.6399L173.08 71.8599C173.93 70.7499 175.15 70.0099 176.53 69.8299C176.73 69.7999 176.97 69.7999 177.2 69.7999C178.34 69.7999 179.45 70.1899 180.35 70.9099L190.13 78.6199C192.41 80.4099 192.82 83.7599 191.06 86.0599L191.07 86.0499Z" fill="#027DB3"/>
<path d="M191.07 86.0498L189 88.8598L170.98 74.6398L173.08 71.8598C173.93 70.7498 175.15 70.0098 176.53 69.8298C176.73 69.7998 176.97 69.7998 177.2 69.7998C178.34 69.7998 179.45 70.1898 180.35 70.9098L190.13 78.6198C192.41 80.4098 192.82 83.7598 191.06 86.0598L191.07 86.0498Z" fill="#5CEBBE"/>
<path d="M185.41 93.5801L153.26 136.28C150.46 139.98 146.51 142.7 142.11 143.93L130.78 147.1L130.87 135.06C130.9 130.4 132.48 125.8 135.25 122.09L167.43 79.3901L185.42 93.5801H185.41Z" fill="#83DFE8"/>
<path d="M118.33 149.78H86.7598C85.1498 149.78 83.8398 151.12 83.8398 152.77C83.8398 154.42 85.1498 155.76 86.7598 155.76H118.33C119.94 155.76 121.25 154.42 121.25 152.77C121.25 151.12 119.94 149.78 118.33 149.78Z" fill="#027DB3"/>
<path d="M75.9999 149.78H66.2999C64.6899 149.78 63.3799 151.12 63.3799 152.77C63.3799 154.42 64.6899 155.76 66.2999 155.76H75.9999C77.6099 155.76 78.9199 154.42 78.9199 152.77C78.9199 151.12 77.6099 149.78 75.9999 149.78Z" fill="#027DB3"/>
<path d="M118.33 126.67H86.7598C85.1498 126.67 83.8398 128.01 83.8398 129.66C83.8398 131.31 85.1498 132.65 86.7598 132.65H118.33C119.94 132.65 121.25 131.31 121.25 129.66C121.25 128.01 119.94 126.67 118.33 126.67Z" fill="#027DB3"/>
<path d="M75.9999 126.67H66.2999C64.6899 126.67 63.3799 128.01 63.3799 129.66C63.3799 131.31 64.6899 132.65 66.2999 132.65H75.9999C77.6099 132.65 78.9199 131.31 78.9199 129.66C78.9199 128.01 77.6099 126.67 75.9999 126.67Z" fill="#027DB3"/>
<path d="M130.73 106.92C130.73 105.27 129.42 103.93 127.81 103.93H86.7501C85.1401 103.93 83.8301 105.27 83.8301 106.92C83.8301 108.57 85.1401 109.91 86.7501 109.91H127.81C129.42 109.91 130.73 108.57 130.73 106.92Z" fill="#027DB3"/>
<path d="M75.9999 103.93H66.2999C64.6899 103.93 63.3799 105.27 63.3799 106.92C63.3799 108.57 64.6899 109.91 66.2999 109.91H75.9999C77.6099 109.91 78.9199 108.57 78.9199 106.92C78.9199 105.27 77.6099 103.93 75.9999 103.93Z" fill="#027DB3"/>
<path d="M142.99 85.6301C142.99 83.9801 141.68 82.6401 140.07 82.6401H86.7501C85.1401 82.6401 83.8301 83.9801 83.8301 85.6301C83.8301 87.2801 85.1401 88.6201 86.7501 88.6201H140.07C141.68 88.6201 142.99 87.2801 142.99 85.6301Z" fill="#027DB3"/>
<path d="M75.9999 82.6401H66.2999C64.6899 82.6401 63.3799 83.9801 63.3799 85.6301C63.3799 87.2801 64.6899 88.6201 66.2999 88.6201H75.9999C77.6099 88.6201 78.9199 87.2801 78.9199 85.6301C78.9199 83.9801 77.6099 82.6401 75.9999 82.6401Z" fill="#027DB3"/>
</svg>
