<svg width="216" height="216" viewBox="0 0 216 216" fill="none" xmlns="http://www.w3.org/2000/svg">
<path d="M153.83 64.4102H56.02V113.91H153.83V64.4102Z" fill="#07BED1"/>
<path d="M176.56 61.1699L104.1 91.9299L31.6401 61.1699L104.1 30.4199L176.56 61.1699Z" fill="#07BED1"/>
<path d="M172.13 96.2302L176.57 91.9302L181 96.2302L182.81 112.81H170.32L172.13 96.2302Z" fill="#5CEBBE"/>
<path d="M104.1 121.14C130.648 121.14 152.17 117.903 152.17 113.91C152.17 109.917 130.648 106.68 104.1 106.68C77.5515 106.68 56.0298 109.917 56.0298 113.91C56.0298 117.903 77.5515 121.14 104.1 121.14Z" fill="#DDDDDD"/>
<path d="M193.52 135.99L158.25 170.67C158.25 170.67 144.81 184.55 126.63 185.43C108.42 186.31 29.8398 186.07 29.8398 186.07V147.63L63.6698 147.89C83.1798 148.12 82.7598 133.16 101.42 134.24H120.59C127.88 134.3 132.03 143.05 133.41 151.01H133.86C143.52 151.01 152.92 147.77 160.63 141.79L183.28 124.26C193.67 115.01 197.82 131.17 193.53 135.98L193.52 135.99Z" fill="#5CEBBE"/>
<path d="M104.1 94.8502C103.73 94.8502 103.37 94.7802 103.03 94.6302L30.5698 63.8702C29.5098 63.4202 28.8198 62.3502 28.8198 61.1702C28.8198 59.9902 29.5098 58.9202 30.5698 58.4702L103.03 27.7102C103.72 27.4202 104.49 27.4202 105.18 27.7102L177.64 58.4702C178.7 58.9202 179.39 59.9902 179.39 61.1702C179.39 62.3502 178.7 63.4202 177.64 63.8702L105.18 94.6302C104.84 94.7802 104.47 94.8502 104.11 94.8502H104.1ZM39.0698 61.1702L104.1 88.7802L169.13 61.1702L104.1 33.5702L39.0698 61.1702Z" fill="#31323A"/>
<path d="M56.03 116.81C54.47 116.81 53.21 115.5 53.21 113.89V71.5401C53.21 69.9301 54.47 68.6201 56.03 68.6201C57.59 68.6201 58.85 69.9301 58.85 71.5401V113.89C58.85 115.5 57.59 116.81 56.03 116.81Z" fill="#31323A"/>
<path d="M152.16 116.81C150.6 116.81 149.34 115.5 149.34 113.89V71.5401C149.34 69.9301 150.6 68.6201 152.16 68.6201C153.72 68.6201 154.98 69.9301 154.98 71.5401V113.89C154.98 115.5 153.72 116.81 152.16 116.81Z" fill="#31323A"/>
<path d="M176.56 95.64C175 95.64 173.74 94.33 173.74 92.72V61.17C173.74 59.56 175 58.25 176.56 58.25C178.12 58.25 179.38 59.56 179.38 61.17V92.72C179.38 94.33 178.12 95.64 176.56 95.64Z" fill="#31323A"/>
<path d="M182.81 115.72H170.31C169.51 115.72 168.74 115.37 168.2 114.75C167.66 114.13 167.41 113.3 167.5 112.48L169.31 95.9C169.38 95.21 169.7 94.57 170.19 94.1L174.63 89.81C175.72 88.76 177.4 88.76 178.49 89.81L182.93 94.1C183.42 94.57 183.73 95.21 183.81 95.9L185.62 112.48C185.71 113.31 185.46 114.13 184.92 114.75C184.39 115.37 183.62 115.72 182.81 115.72ZM173.48 109.89H179.66L178.32 97.62L176.57 95.93L174.82 97.62L173.48 109.89Z" fill="#31323A"/>
<path d="M104.09 124.05C88.7902 124.05 53.2002 123.06 53.2002 113.91C53.2002 104.76 88.7902 103.77 104.09 103.77C119.39 103.77 154.99 104.76 154.99 113.91C154.99 123.06 119.4 124.05 104.09 124.05ZM60.4802 113.91C65.6502 115.79 80.2102 118.22 104.1 118.22C127.99 118.22 142.54 115.79 147.72 113.91C142.55 112.03 127.98 109.6 104.1 109.6C80.2202 109.6 65.6602 112.03 60.4802 113.91Z" fill="#31323A"/>
<path d="M52.74 189C39.63 189 30.09 188.97 29.82 188.97C28.26 188.97 27 187.66 27 186.04C27 184.43 28.27 183.13 29.82 183.13C30.6 183.13 108.55 183.36 126.47 182.5C143.31 181.7 156.11 168.73 156.24 168.6L191.57 133.86C192.86 132.41 192.68 127.27 190.65 125.1C190.2 124.62 188.82 123.14 185.11 126.44L162.31 144.11C154.15 150.43 144.05 153.91 133.86 153.91H107.3C105.74 153.91 104.48 152.6 104.48 150.99C104.48 149.38 105.74 148.07 107.3 148.07H133.86C142.84 148.07 151.74 145.01 158.92 139.44L181.57 121.89C188.62 115.62 193.41 119.65 194.71 121.04C198.68 125.29 199.14 133.98 195.59 137.94L160.18 172.76C159.65 173.31 145.8 187.4 126.73 188.31C114.93 188.87 77.47 188.97 52.72 188.97L52.74 189Z" fill="#31323A"/>
<path d="M131.2 153.93C129.64 153.93 128.38 152.62 128.38 151.01C128.38 149.53 129.44 148.31 130.82 148.12C131.06 147.38 131.09 145.3 129.88 142.87C128.83 140.75 126.21 137.18 120.57 137.15H101.43C92.9298 136.66 89.0198 139.65 84.4998 143.11C79.7198 146.77 74.2498 150.91 63.6298 150.8L29.8098 150.53C28.2498 150.52 26.9998 149.2 27.0098 147.59C27.0198 145.99 28.2798 144.7 29.8298 144.7H29.8498L63.6798 144.97C72.4598 145.02 76.6798 141.84 81.1298 138.43C85.8498 134.82 91.1898 130.74 101.58 131.32H120.58C131.54 131.38 136.62 140.73 136.6 147.04C136.59 151.79 133.88 153.92 131.2 153.92V153.93Z" fill="#31323A"/>
</svg>
