<svg width="216" height="216" viewBox="0 0 216 216" fill="none" xmlns="http://www.w3.org/2000/svg">
<path d="M171.65 113.67V186.19H47.8599V29.8101H171.65V76.9201V113.67Z" fill="#83DFE8"/>
<path d="M153.91 147.42L137.31 160.63L138.66 139.69L179.09 62.7399C180.88 59.3299 185.15 57.9899 188.62 59.7499L191.3 61.1099C194.77 62.8699 196.13 67.0599 194.34 70.4699L153.91 147.42Z" fill="#5CEBBE"/>
<path d="M99.16 84.53H64.79V56.79L81.97 45.71L99.16 56.79V84.53Z" fill="#E6F9FA"/>
<path d="M171.65 189H47.86C46.28 189 45 187.74 45 186.19V29.81C45 28.26 46.28 27 47.86 27H171.65C173.23 27 174.51 28.26 174.51 29.81V76.91C174.51 78.47 173.23 79.72 171.65 79.72C170.07 79.72 168.79 78.46 168.79 76.91V32.62H50.73V183.36H168.79V113.66C168.79 112.1 170.07 110.85 171.65 110.85C173.23 110.85 174.51 112.11 174.51 113.66V186.18C174.51 187.74 173.23 188.99 171.65 188.99V189Z" fill="#027DB3"/>
<path d="M137.31 163.45C136.86 163.45 136.41 163.35 136 163.14C134.99 162.63 134.38 161.58 134.45 160.46L135.8 139.52C135.83 139.13 135.93 138.75 136.11 138.41L176.54 61.4599C177.76 59.1399 179.82 57.4299 182.35 56.6399C184.88 55.8399 187.57 56.0699 189.93 57.2599L192.61 58.6199C194.97 59.8199 196.71 61.8399 197.52 64.3199C198.33 66.7999 198.1 69.4499 196.88 71.7599L156.45 148.71C156.27 149.05 156.02 149.36 155.71 149.61L139.11 162.82C138.59 163.23 137.95 163.45 137.31 163.45ZM141.48 140.45L140.58 154.4L151.64 145.6L191.8 69.1699C192.32 68.1899 192.41 67.0699 192.07 66.0199C191.73 64.9699 190.99 64.1099 189.99 63.5999L187.31 62.2399C186.31 61.7299 185.17 61.6399 184.1 61.9799C183.03 62.3199 182.16 63.0399 181.64 64.0199L141.48 140.45Z" fill="#027DB3"/>
<path d="M153.91 150.24C153.47 150.24 153.02 150.14 152.6 149.93L137.35 142.2C135.94 141.49 135.39 139.79 136.12 138.41C136.85 137.03 138.57 136.49 139.98 137.2L155.23 144.93C156.64 145.64 157.19 147.34 156.46 148.72C155.95 149.69 154.95 150.24 153.91 150.24Z" fill="#027DB3"/>
<path d="M99.1599 87.34H64.7799C63.1999 87.34 61.9199 86.08 61.9199 84.53V56.8C61.9199 55.85 62.4099 54.97 63.2099 54.45L80.3999 43.37C81.3499 42.75 82.5899 42.75 83.5399 43.37L100.73 54.45C101.54 54.97 102.02 55.85 102.02 56.8V84.53C102.02 86.09 100.74 87.34 99.1599 87.34ZM67.6499 81.71H96.2999V58.31L81.9799 49.08L67.6599 58.31V81.71H67.6499Z" fill="#027DB3"/>
<path d="M156.33 55.1901H119.34C117.76 55.1901 116.48 53.9301 116.48 52.3801C116.48 50.8301 117.76 49.5701 119.34 49.5701H156.33C157.91 49.5701 159.19 50.8301 159.19 52.3801C159.19 53.9301 157.91 55.1901 156.33 55.1901Z" fill="#027DB3"/>
<path d="M156.33 71.2699H119.34C117.76 71.2699 116.48 70.0099 116.48 68.4599C116.48 66.9099 117.76 65.6499 119.34 65.6499H156.33C157.91 65.6499 159.19 66.9099 159.19 68.4599C159.19 70.0099 157.91 71.2699 156.33 71.2699Z" fill="#027DB3"/>
<path d="M156.33 87.34H119.34C117.76 87.34 116.48 86.08 116.48 84.53C116.48 82.98 117.76 81.72 119.34 81.72H156.33C157.91 81.72 159.19 82.98 159.19 84.53C159.19 86.08 157.91 87.34 156.33 87.34Z" fill="#027DB3"/>
<path d="M130.55 110.81H64.6901C63.1101 110.81 61.8301 109.55 61.8301 108C61.8301 106.45 63.1101 105.19 64.6901 105.19H130.55C132.13 105.19 133.41 106.45 133.41 108C133.41 109.55 132.13 110.81 130.55 110.81Z" fill="#027DB3"/>
<path d="M123.54 130.08H64.6901C63.1101 130.08 61.8301 128.82 61.8301 127.27C61.8301 125.72 63.1101 124.46 64.6901 124.46H123.54C125.12 124.46 126.4 125.72 126.4 127.27C126.4 128.82 125.12 130.08 123.54 130.08Z" fill="#027DB3"/>
<path d="M123.54 149.34H64.6901C63.1101 149.34 61.8301 148.08 61.8301 146.53C61.8301 144.98 63.1101 143.72 64.6901 143.72H123.54C125.12 143.72 126.4 144.98 126.4 146.53C126.4 148.08 125.12 149.34 123.54 149.34Z" fill="#027DB3"/>
</svg>
