<svg width="20" height="20" viewBox="0 0 20 20" fill="none" xmlns="http://www.w3.org/2000/svg">
<path d="M10.0005 2.2863C10.8291 2.28631 11.6499 2.4526 12.4153 2.77596C13.1805 3.09932 13.8758 3.57316 14.4609 4.17043C15.046 4.76776 15.5094 5.47708 15.8249 6.25711C16.1402 7.03655 16.3014 7.87168 16.2993 8.71459L16.3059 9.22266C16.3704 11.693 16.9 13.1052 17.3263 13.8522C17.4379 14.0469 17.4969 14.2679 17.4981 14.4934C17.4993 14.7193 17.4421 14.9417 17.332 15.1379C17.2218 15.3341 17.0626 15.4979 16.8708 15.6116C16.6788 15.7253 16.4606 15.7851 16.2385 15.7857H3.76163C3.53953 15.7851 3.32129 15.7254 3.12936 15.6116C2.93743 15.4979 2.77828 15.3342 2.6681 15.1379C2.55804 14.9417 2.50083 14.7193 2.50202 14.4934C2.50324 14.2679 2.56304 14.0468 2.67468 13.8522C3.10116 13.1052 3.63051 11.6927 3.69503 9.22266L3.70161 8.71459C3.69955 7.87167 3.86075 7.03656 4.17602 6.25711C4.49152 5.47708 4.95493 4.76776 5.54004 4.17043C6.12513 3.57315 6.82039 3.09931 7.58567 2.77596C8.35102 2.45259 9.17182 2.2863 10.0005 2.2863ZM10.0005 3.57196C9.33796 3.57196 8.68185 3.70515 8.06995 3.96368C7.4581 4.22221 6.90238 4.60106 6.4346 5.07859C5.96679 5.55616 5.59579 6.12312 5.34354 6.74677C5.09134 7.37035 4.96266 8.03855 4.9645 8.71292V8.71459L4.9571 9.25782C4.8878 11.9036 4.3165 13.5338 3.76574 14.4984L3.76492 14.5001H16.2352L16.2344 14.4984C15.6472 13.4696 15.0364 11.6832 15.0364 8.71459H15.6679L15.0364 8.71292C15.0383 8.03848 14.9088 7.37041 14.6566 6.74677C14.4043 6.12315 14.0341 5.55614 13.5663 5.07859C13.0986 4.60107 12.5428 4.22222 11.931 3.96368C11.3191 3.70516 10.6629 3.57197 10.0005 3.57196Z" fill="#637381"/>
<path d="M6.84282 15.7859V15.143C6.84282 14.788 7.12553 14.5002 7.47427 14.5002C7.82301 14.5002 8.10572 14.788 8.10572 15.143V15.7859L8.11476 15.9767C8.15786 16.4181 8.3499 16.833 8.6607 17.1494C9.01596 17.511 9.49765 17.7143 10.0001 17.7143C10.5025 17.7143 10.9842 17.511 11.3394 17.1494C11.6947 16.7877 11.8944 16.2973 11.8944 15.7859V15.143C11.8944 14.788 12.1771 14.5002 12.5259 14.5002C12.8746 14.5002 13.1573 14.788 13.1573 15.143V15.7859C13.1573 16.6383 12.8244 17.4556 12.2323 18.0584C11.6402 18.6611 10.8374 19 10.0001 19C9.16271 19 8.35989 18.6611 7.76779 18.0584C7.1757 17.4556 6.84282 16.6383 6.84282 15.7859Z" fill="#637381"/>
<path d="M13.8418 1.29949C14.028 0.999425 14.4177 0.909964 14.7125 1.09945C16.0957 1.98841 17.2109 3.24881 17.9347 4.74215C18.089 5.06053 17.9605 5.44636 17.6478 5.60344C17.335 5.76049 16.956 5.62969 16.8017 5.31132C16.1809 4.03035 15.2248 2.94841 14.0383 2.1859C13.7435 1.99633 13.6557 1.59964 13.8418 1.29949Z" fill="#637381"/>
<path d="M5.28748 1.09945C5.58237 0.909925 5.97284 0.999284 6.15901 1.29949C6.34505 1.59966 6.25647 1.99639 5.96168 2.18589C4.7752 2.94841 3.81909 4.03032 3.19827 5.31132C3.04397 5.6297 2.66498 5.76051 2.35223 5.60344C2.03954 5.44633 1.911 5.0605 2.06528 4.74214C2.78902 3.24882 3.90436 1.98841 5.28748 1.09945Z" fill="#637381"/>
<circle cx="15" cy="5" r="4.5" fill="#EA4C34" stroke="white"/>
</svg>
