<svg width="216" height="216" viewBox="0 0 216 216" fill="none" xmlns="http://www.w3.org/2000/svg">
<path d="M108 27C63.33 27 27 63.33 27 108C27 152.67 63.33 189 108 189C152.67 189 189 152.67 189 108C189 63.33 152.67 27 108 27ZM108 183.54C66.37 183.54 32.46 149.64 32.46 108C32.46 66.36 66.37 32.46 108 32.46C149.63 32.46 183.54 66.36 183.54 108C183.54 149.64 149.64 183.54 108 183.54Z" fill="#027DB3"/>
<path d="M108 44.51C72.9998 44.51 44.5098 73 44.5098 108C44.5098 143 72.9998 171.49 108 171.49C143 171.49 171.49 143 171.49 108C171.49 73 143 44.51 108 44.51ZM108 166.03C76.0098 166.03 49.9798 140 49.9798 108.01C49.9798 76.02 76.0098 49.99 108 49.99C139.99 49.99 166.02 76.02 166.02 108.01C166.02 140 139.99 166.03 108 166.03Z" fill="#027DB3"/>
<path d="M114.97 68.96H89.4302C87.9002 68.96 86.7002 70.16 86.7002 71.69V144.3C86.7002 145.83 87.9002 147.03 89.4302 147.03H105.49C106.99 147.03 108.22 145.83 108.22 144.3V119.39H114.97C128.88 119.39 140.21 108.08 140.21 94.17C140.21 80.26 128.87 68.95 114.97 68.95V68.96ZM114.97 113.93H105.49C103.96 113.93 102.76 115.16 102.76 116.66V141.57H92.1602V74.42H114.97C125.87 74.42 134.75 83.27 134.75 94.17C134.75 105.07 125.87 113.92 114.97 113.92V113.93Z" fill="#027DB3"/>
<path d="M115.46 83.17H103.14C101.64 83.17 100.41 84.37 100.41 85.9V102.46C100.41 103.96 101.64 105.19 103.14 105.19H115.46C121.52 105.19 126.47 100.25 126.47 94.18C126.47 88.11 121.53 83.17 115.46 83.17ZM115.46 99.72H105.87V88.63H115.46C118.52 88.63 121.01 91.12 121.01 94.18C121.01 97.24 118.52 99.73 115.46 99.73V99.72Z" fill="#027DB3"/>
</svg>
