<svg width="21" height="20" viewBox="0 0 21 20" fill="none" xmlns="http://www.w3.org/2000/svg">
<path d="M13.2973 12.4216L12.9181 12.7991C12.9181 12.7991 12.0156 13.6957 9.55313 11.2474C7.09063 8.79907 7.99313 7.9024 7.99313 7.9024L8.23147 7.66407C8.82063 7.07907 8.87647 6.13907 8.3623 5.4524L7.3123 4.0499C6.67563 3.1999 5.44647 3.0874 4.7173 3.8124L3.40897 5.1124C3.04813 5.4724 2.80647 5.9374 2.83563 6.45407C2.91063 7.77657 3.50897 10.6207 6.84563 13.9391C10.3848 17.4574 13.7056 17.5974 15.0631 17.4707C15.4931 17.4307 15.8665 17.2124 16.1673 16.9124L17.3506 15.7357C18.1506 14.9416 17.9256 13.5791 16.9023 13.0232L15.3106 12.1574C14.639 11.7924 13.8223 11.8999 13.2973 12.4216Z" fill="#5B1F3F"/>
</svg>
