<svg width="48" height="48" viewBox="0 0 48 48" fill="none" xmlns="http://www.w3.org/2000/svg">
<rect width="48" height="48" rx="8" fill="url(#paint0_linear_3_17002)"/>
<path d="M35.7206 19.1923L36.0784 18.3691C36.7075 16.9127 37.8596 15.7451 39.3074 15.0965L40.4113 14.6034C40.5453 14.5418 40.6587 14.4431 40.7382 14.319C40.8178 14.1948 40.86 14.0505 40.86 13.9031C40.86 13.7557 40.8178 13.6114 40.7382 13.4872C40.6587 13.3631 40.5453 13.2644 40.4113 13.2028L39.3685 12.7388C37.8843 12.0717 36.7125 10.8609 36.0944 9.35569L35.725 8.467C35.671 8.32934 35.5767 8.21116 35.4545 8.12786C35.3323 8.04456 35.1878 8 35.04 8C34.8921 8 34.7476 8.04456 34.6254 8.12786C34.5032 8.21116 34.4089 8.32934 34.3549 8.467L33.9869 9.35423C33.3695 10.8597 32.1982 12.0711 30.7143 12.7388L29.67 13.2042C29.5365 13.266 29.4235 13.3647 29.3442 13.4887C29.265 13.6127 29.2229 13.7567 29.2229 13.9038C29.2229 14.051 29.265 14.195 29.3442 14.319C29.4235 14.4429 29.5365 14.5416 29.67 14.6034L30.7754 15.095C32.2229 15.7443 33.3745 16.9124 34.0029 18.3691L34.3607 19.1923C34.6225 19.7944 35.4574 19.7944 35.7206 19.1923ZM26.876 15.767C27.2745 16.3973 27.8195 16.8632 28.5108 17.1648L29.3326 17.524C29.8853 17.7655 30.3333 18.1039 30.6765 18.5392V25.4553C30.6765 27.384 29.9103 29.2338 28.5465 30.5976C27.1827 31.9614 25.3329 32.7276 23.4042 32.7276C21.4754 32.7276 19.6257 31.9614 18.2618 30.5976C16.898 29.2338 16.1318 27.384 16.1318 25.4553V16.7284C16.1318 15.3785 16.5075 14.0552 17.217 12.9066C17.9264 11.7581 18.9415 10.8298 20.1486 10.2254C21.3557 9.62111 22.7072 9.36471 24.0518 9.48494C25.3964 9.60516 26.681 10.0973 27.7618 10.9062C27.4127 11.168 27.117 11.4899 26.8745 11.8719C26.5041 12.4536 26.3096 13.1299 26.3146 13.8195C26.3146 14.5234 26.5007 15.1726 26.876 15.767ZM9.14014 28.306L11.9938 27.7359C12.5238 30.372 13.9501 32.7434 16.0304 34.4471C18.1107 36.1508 20.7167 37.0817 23.4056 37.0817C26.0945 37.0817 28.7005 36.1508 30.7808 34.4471C32.8611 32.7434 34.2874 30.372 34.8174 27.7359L37.6711 28.306C36.3446 34.9748 30.4627 40 23.4056 40C16.3485 40 10.4666 34.9748 9.14014 28.3075" fill="url(#paint1_linear_3_17002)"/>
<defs>
<linearGradient id="paint0_linear_3_17002" x1="9.69231" y1="-3.23077" x2="44.3077" y2="55.3846" gradientUnits="userSpaceOnUse">
<stop stop-color="#75E2F8"/>
<stop offset="1" stop-color="#2BA2F8"/>
</linearGradient>
<linearGradient id="paint1_linear_3_17002" x1="15.5451" y1="5.84615" x2="38.7195" y2="44.7447" gradientUnits="userSpaceOnUse">
<stop stop-color="#B30CFF"/>
<stop offset="1" stop-color="#6C0AED"/>
</linearGradient>
</defs>
</svg>
