<svg width="216" height="216" viewBox="0 0 216 216" fill="none" xmlns="http://www.w3.org/2000/svg">
<path d="M172.62 68.56H158.96C157.46 68.56 156.24 69.78 156.24 71.28V95.88H132.11L127.95 77.13C129.99 73.67 131.16 69.67 131.16 65.4C131.16 55.93 125.45 47.77 117.26 44.2V36.45C117.26 33.97 116.31 31.66 114.54 29.89C112.77 28.18 110.46 27.22 108.01 27.22C102.89 27.22 98.76 31.36 98.76 36.44V44.19C90.6 47.75 84.86 55.92 84.86 65.39C84.86 69.69 86.06 73.69 88.1 77.14L83.94 95.86H59.78V71.26C59.78 70.53 59.48 69.85 58.99 69.33C58.47 68.81 57.79 68.54 57.06 68.54H43.4C38.99 68.54 34.88 70.25 31.84 73.33C28.74 76.38 27.05 80.46 27.02 84.84V172.61C27.02 181.64 34.37 188.99 43.4 188.99H172.64C181.67 188.99 189.02 181.64 189.02 172.61V84.64C188.88 75.72 181.59 68.53 172.64 68.53L172.62 68.56ZM135.54 136.47L127 138.4L115.65 87.25C118.62 86.19 121.28 84.58 123.57 82.52L135.54 136.47ZM104.19 36.45C104.19 34.36 105.9 32.67 108 32.67C109.01 32.67 109.99 33.08 110.69 33.76C111.42 34.49 111.81 35.45 111.81 36.45V42.6C110.56 42.38 109.31 42.25 108 42.25C106.69 42.25 105.44 42.39 104.19 42.6V36.45ZM108 47.69C117.77 47.69 125.71 55.63 125.71 65.4C125.71 75.17 117.77 83.11 108 83.11C98.23 83.11 90.29 75.17 90.29 65.4C90.29 55.63 98.23 47.69 108 47.69ZM111.97 95.88H104.02L105.65 88.45C106.44 88.53 107.2 88.56 107.99 88.56C108.78 88.56 109.57 88.53 110.33 88.45L111.96 95.88H111.97ZM92.46 82.52C94.72 84.59 97.41 86.19 100.35 87.25L89 138.4L80.46 136.47L92.46 82.52ZM32.44 84.99V84.94C32.44 82 33.58 79.25 35.65 77.19C37.69 75.12 40.44 74.01 43.38 74.01H54.32V156.26H43.38C39.27 156.26 35.41 157.76 32.44 160.48V85V84.99ZM172.62 183.57H43.38C37.34 183.57 32.44 178.65 32.44 172.63C32.44 169.69 33.58 166.94 35.65 164.88C37.69 162.81 40.44 161.7 43.38 161.7H57.04C57.75 161.7 58.45 161.4 58.97 160.91C59.46 160.39 59.76 159.69 59.76 158.98V101.33H82.72L74.56 137.95C74.23 139.42 75.16 140.89 76.63 141.22L80.87 142.17L77.31 158.14C76.98 159.61 77.91 161.08 79.38 161.4C79.6 161.43 79.79 161.45 79.98 161.45C81.23 161.45 82.35 160.58 82.65 159.33L86.19 143.33L90.49 144.31C90.68 144.34 90.9 144.36 91.09 144.36C91.61 144.36 92.12 144.22 92.56 143.92C93.16 143.54 93.59 142.94 93.76 142.23L102.82 101.31H113.21L122.27 142.23C122.43 142.94 122.87 143.54 123.47 143.94C123.91 144.21 124.42 144.35 124.94 144.35C125.13 144.35 125.35 144.32 125.54 144.3L129.84 143.32L133.38 159.32C133.68 160.57 134.79 161.44 136.05 161.44C136.24 161.44 136.43 161.41 136.65 161.39C138.12 161.06 139.04 159.59 138.72 158.13L135.16 142.16L139.4 141.21C140.87 140.88 141.79 139.41 141.47 137.94L133.33 101.32H156.27V158.97C156.27 160.47 157.49 161.69 158.99 161.69H172.65C178.69 161.69 183.59 166.59 183.59 172.63C183.59 178.67 178.69 183.57 172.65 183.57H172.62ZM183.56 160.44C180.68 157.83 176.81 156.25 172.62 156.25H161.68V74H172.62C178.66 74 183.56 78.9 183.56 84.94V160.44Z" fill="#027DB3"/>
<path d="M108 53.79C101.61 53.79 96.3799 59.01 96.3799 65.41C96.3799 71.81 101.6 77.03 108 77.03C114.4 77.03 119.62 71.83 119.62 65.41C119.62 58.99 114.42 53.79 108 53.79ZM108 71.58C104.6 71.58 101.82 68.8 101.82 65.4C101.82 62 104.6 59.22 108 59.22C111.4 59.22 114.18 62 114.18 65.4C114.18 68.8 111.4 71.58 108 71.58Z" fill="#027DB3"/>
</svg>
