<svg width="216" height="216" viewBox="0 0 216 216" fill="none" xmlns="http://www.w3.org/2000/svg">
<path d="M177.22 45.45C138.63 44.86 110.16 19.03 109.88 18.76C108.8 17.75 107.21 17.75 106.13 18.76C105.85 19.03 77.3798 44.86 38.7898 45.45C37.2298 45.48 36.0098 46.81 36.0098 48.41V84.9C36.0098 136.74 64.5698 182.12 107.07 197.85C107.35 197.94 107.7 198 108.01 198C108.32 198 108.66 197.94 108.95 197.85C151.46 182.12 180.01 136.74 180.01 84.9V48.41C180.01 46.81 178.79 45.48 177.23 45.45H177.22ZM174.32 84.9C174.32 133.84 147.72 176.7 108 191.9C68.2798 176.7 41.6798 133.84 41.6798 84.9V51.31C75.6598 49.77 101.01 30.66 108 24.83C114.99 30.67 140.33 49.77 174.32 51.31V84.9Z" fill="#027DB3"/>
<path d="M163.72 57.09C132.89 56.62 110.1 35.94 109.88 35.73C108.8 34.75 107.21 34.75 106.13 35.73C105.9 35.94 83.1098 56.61 52.2898 57.09C50.7598 57.12 49.5098 58.42 49.5098 60.05V89.41C49.5098 131.38 72.6398 168.12 107.08 180.85C107.36 180.97 107.71 181.03 108.02 181.03C108.33 181.03 108.67 180.97 108.96 180.85C143.4 168.11 166.53 131.38 166.53 89.41V60.05C166.53 58.42 165.28 57.12 163.75 57.09H163.72ZM160.82 89.4C160.82 128.47 139.65 162.69 108 174.89C76.3498 162.69 55.1798 128.47 55.1798 89.4V62.92C81.8898 61.56 101.92 46.81 108 41.8C114.08 46.81 134.11 61.56 160.82 62.92V89.4Z" fill="#027DB3"/>
<path d="M151.27 103.24C150.5 102.17 131.78 77.35 108 77.35C84.2199 77.35 65.4899 102.17 64.7299 103.24C63.9299 104.31 63.9299 105.79 64.7299 106.85C65.4999 107.92 84.2199 132.74 108 132.74C131.78 132.74 150.51 107.92 151.27 106.85C152.07 105.78 152.07 104.3 151.27 103.24ZM108 126.82C90.4999 126.82 75.3199 110.59 70.6599 105.05C75.3199 99.51 90.4899 83.28 108 83.28C125.51 83.28 140.68 99.51 145.34 105.05C140.68 110.59 125.51 126.82 108 126.82Z" fill="#027DB3"/>
<path d="M108 89.46C99.7598 89.46 93.0498 96.45 93.0498 105.04C93.0498 113.63 99.7598 120.62 108 120.62C116.24 120.62 122.95 113.63 122.95 105.04C122.95 96.45 116.24 89.46 108 89.46ZM108 114.7C102.89 114.7 98.7398 110.38 98.7398 105.04C98.7398 99.7 102.89 95.38 108 95.38C113.11 95.38 117.26 99.7 117.26 105.04C117.26 110.38 113.11 114.7 108 114.7Z" fill="#027DB3"/>
</svg>
