<svg width="216" height="216" viewBox="0 0 216 216" fill="none" xmlns="http://www.w3.org/2000/svg">
<path d="M173.81 56.3101H29.9101C28.7001 56.3101 27.6101 55.56 27.1801 54.43C26.7501 53.3001 27.0701 52.0201 27.9801 51.2201C31.1101 48.4601 32.7401 45.43 32.8301 42.21C33.0001 36.2 27.9101 31.0901 27.8601 31.0401C27.0201 30.2101 26.7601 28.9501 27.2101 27.8601C27.6601 26.7701 28.7201 26.05 29.9001 26.05H173.77C178.15 26.05 182.12 28.4 184.14 32.19C188.06 39.51 186.34 45.9701 184.21 50.09C182.22 53.93 178.23 56.32 173.79 56.32L173.81 56.3101ZM36.2101 50.4901H173.81C176.03 50.4901 178.09 49.28 179.05 47.42C181.22 43.22 181.21 39.02 179.02 34.94C178.01 33.05 176 31.88 173.78 31.88H35.7201C37.3001 34.6 38.7601 38.2401 38.6601 42.3301C38.5901 45.2201 37.7701 47.9501 36.2101 50.4901Z" fill="#027DB3"/>
<path d="M149.92 49.84C149.25 49.84 148.59 49.61 148.06 49.17L140.99 43.3L133.95 49.16C133.09 49.88 131.87 50.03 130.85 49.56C129.83 49.08 129.17 48.05 129.17 46.92V28.95C129.17 27.34 130.47 26.04 132.08 26.04C133.69 26.04 134.99 27.34 134.99 28.95V40.7L139.11 37.27C140.18 36.37 141.75 36.37 142.83 37.27L146.99 40.72V28.96C146.99 27.35 148.29 26.05 149.9 26.05C151.51 26.05 152.81 27.35 152.81 28.96V46.93C152.81 48.06 152.16 49.09 151.13 49.57C150.73 49.75 150.31 49.85 149.89 49.85L149.92 49.84Z" fill="#027DB3"/>
<path d="M166.19 153.76H47.1098C42.8998 153.76 38.8298 152 35.9398 148.94C33.0398 145.87 31.5798 141.87 31.8298 137.69C31.8298 137.68 31.8498 137.35 31.8498 137.34C32.3998 129.48 39.0998 123.32 47.0998 123.32H47.1198L166.2 123.46C167.4 123.46 168.48 124.2 168.92 125.33C169.35 126.45 169.05 127.73 168.15 128.53C165.07 131.32 163.47 134.38 163.38 137.62C163.22 143.65 168.2 148.73 168.25 148.78C169.08 149.61 169.33 150.87 168.88 151.96C168.43 153.05 167.37 153.76 166.19 153.76ZM37.6598 137.74C37.6598 137.8 37.6498 137.89 37.6498 137.9C37.4898 140.6 38.3898 143.06 40.1798 144.95C41.9998 146.88 44.4598 147.94 47.1198 147.94H160.45C158.9 145.23 157.47 141.61 157.56 137.53C157.63 134.62 158.44 131.86 159.99 129.28L47.1198 129.15H47.1098C42.1498 129.15 38.0098 132.92 37.6698 137.74H37.6598Z" fill="#027DB3"/>
<path d="M157.89 140.96H78.93C77.32 140.96 76.02 139.66 76.02 138.05C76.02 136.44 77.32 135.14 78.93 135.14H157.89C159.5 135.14 160.8 136.44 160.8 138.05C160.8 139.66 159.5 140.96 157.89 140.96Z" fill="#027DB3"/>
<path d="M65.7598 140.96H55.1898C53.5798 140.96 52.2798 139.66 52.2798 138.05C52.2798 136.44 53.5798 135.14 55.1898 135.14H65.7598C67.3698 135.14 68.6698 136.44 68.6698 138.05C68.6698 139.66 67.3698 140.96 65.7598 140.96Z" fill="#027DB3"/>
<path d="M166.19 129.29C164.59 129.29 163.28 127.99 163.28 126.39C163.28 124.78 164.58 123.47 166.18 123.47L179.16 123.43C180.76 123.43 182.07 124.73 182.07 126.33C182.07 127.94 180.77 129.25 179.17 129.25L166.19 129.29Z" fill="#027DB3"/>
<path d="M166.19 153.96C164.59 153.96 163.28 152.66 163.28 151.06C163.28 149.45 164.58 148.14 166.18 148.14L179.16 148.1C180.76 148.1 182.07 149.4 182.07 151C182.07 152.61 180.77 153.92 179.17 153.92L166.19 153.96Z" fill="#027DB3"/>
<path d="M176.31 189H32.4201C31.2401 189 30.1801 188.29 29.7301 187.2C29.2801 186.11 29.5301 184.86 30.3601 184.03C41.3501 173.03 30.7101 160.83 30.2501 160.32C29.4801 159.46 29.2901 158.23 29.7601 157.19C30.2301 156.14 31.2601 155.46 32.4101 155.46H176.28C180.72 155.46 184.72 158.1 186.72 162.34C190.52 170.39 188.85 177.48 186.78 182.02C184.85 186.26 180.74 189 176.3 189H176.31ZM38.3701 183.17H176.31C178.5 183.17 180.49 181.8 181.49 179.6C183.75 174.63 183.75 169.66 181.46 164.82C180.43 162.63 178.44 161.28 176.29 161.28H37.9901C41.1301 167 43.0401 175.23 38.3701 183.17Z" fill="#027DB3"/>
<path d="M166.26 121.78H166.24L47.16 121.64C45.96 121.64 44.88 120.9 44.44 119.77C44.01 118.65 44.31 117.37 45.21 116.57C48.29 113.78 49.89 110.72 49.98 107.48C50.14 101.45 45.16 96.3701 45.11 96.3201C44.28 95.4901 44.03 94.2301 44.48 93.1401C44.93 92.0501 45.99 91.3401 47.17 91.3401H166.25C170.46 91.3401 174.53 93.1001 177.42 96.1601C180.32 99.2301 181.78 103.23 181.53 107.41C181.53 107.42 181.51 107.75 181.51 107.76C180.96 115.62 174.27 121.78 166.26 121.78ZM53.37 115.83L166.24 115.96H166.25C171.21 115.96 175.35 112.19 175.68 107.37C175.68 107.36 175.68 107.35 175.68 107.33L178.58 107.57L175.68 107.21C175.84 104.51 174.94 102.05 173.16 100.16C171.34 98.2301 168.88 97.1701 166.22 97.1701H52.92C54.47 99.8801 55.9 103.5 55.81 107.58C55.74 110.49 54.93 113.25 53.38 115.83H53.37Z" fill="#027DB3"/>
<path d="M54.5499 181.29C54.1899 181.29 53.8299 181.22 53.4799 181.09C52.3699 180.65 51.6299 179.58 51.6299 178.38V160.53C51.6299 158.92 52.9299 157.62 54.5399 157.62C56.1499 157.62 57.4499 158.92 57.4499 160.53V170.97L61.3099 166.82C61.8599 166.23 62.6299 165.89 63.4399 165.89C64.2499 165.89 65.0199 166.23 65.5699 166.82L69.4599 170.99V160.53C69.4599 158.92 70.7599 157.62 72.3699 157.62C73.9799 157.62 75.2799 158.92 75.2799 160.53V178.38C75.2799 179.58 74.5499 180.65 73.4299 181.09C72.3199 181.53 71.0499 181.25 70.2299 180.37L63.4299 173.08L56.6599 180.36C56.0999 180.96 55.3199 181.29 54.5299 181.29H54.5499Z" fill="#027DB3"/>
<path d="M174.98 88.51H44.92C36.71 88.51 30.04 81.83 30.04 73.63C30.04 65.43 36.72 58.75 44.92 58.75H174.98C176.05 58.75 177.03 59.33 177.54 60.27C178.05 61.21 178 62.35 177.42 63.25C173.32 69.56 173.32 77.71 177.42 84.01C178 84.91 178.05 86.05 177.54 86.99C177.03 87.93 176.05 88.51 174.98 88.51ZM44.92 64.56C39.92 64.56 35.86 68.62 35.86 73.62C35.86 78.62 39.92 82.68 44.92 82.68H170.22C167.95 76.86 167.95 70.38 170.22 64.56H44.92Z" fill="#027DB3"/>
</svg>
