<svg width="216" height="216" viewBox="0 0 216 216" fill="none" xmlns="http://www.w3.org/2000/svg">
<path d="M115.15 198C155.936 198 189 165.124 189 124.57C189 84.0159 155.936 51.1401 115.15 51.1401C74.3638 51.1401 41.3 84.0159 41.3 124.57C41.3 165.124 74.3638 198 115.15 198Z" fill="#5CEBBE"/>
<path d="M115.15 180.42C146.172 180.42 171.32 155.415 171.32 124.57C171.32 93.7251 146.172 68.7202 115.15 68.7202C84.1281 68.7202 58.98 93.7251 58.98 124.57C58.98 155.415 84.1281 180.42 115.15 180.42Z" fill="#83DFE8"/>
<path d="M165.09 70.53L169.11 66.53C170.54 65.14 171.33 63.26 171.33 61.29C171.33 59.32 170.54 57.44 169.14 56.05L165.44 52.37C162.55 49.5 157.8 49.47 154.91 52.37L148.23 58.98C142.43 56.05 136.19 53.88 129.62 52.58V43.95C134.2 43.46 137.79 39.63 137.79 34.94V27.15C137.79 22.11 133.68 18.02 128.6 18.02H101.59C96.5199 18.02 92.3999 22.11 92.3999 27.15V34.94C92.3999 39.63 95.9899 43.46 100.57 43.95V52.61C94.1299 53.91 87.8499 56.06 81.9299 58.98L75.3099 52.37C72.3899 49.5 67.6699 49.5 64.7499 52.37L61.0799 56.05C59.6499 57.44 58.8899 59.3 58.8899 61.29C58.8899 63.28 59.6499 65.14 61.0799 66.53L65.1299 70.56C60.2299 75.02 55.9399 80.06 52.4699 85.6C51.6199 86.96 52.0299 88.76 53.3999 89.6C54.7699 90.44 56.5799 90.01 57.4199 88.67C61.1199 82.76 65.7599 77.46 71.2399 72.85C74.6799 69.95 78.5299 67.32 82.7299 65.06C92.6199 59.76 103.82 56.95 115.07 56.95C152.6 56.95 183.14 87.29 183.14 124.58C183.14 161.87 152.61 192.21 115.07 192.21C86.0199 192.21 60.1599 173.87 50.7099 146.57C50.1899 145.06 48.5199 144.25 47.0099 144.77C45.4999 145.29 44.6799 146.94 45.1999 148.45C55.4399 178.09 83.5199 198 115.08 198C155.82 198 188.98 165.05 188.98 124.57C188.98 103.21 179.76 83.97 165.07 70.53H165.09ZM69.5799 66.77L65.2099 62.42C64.9199 62.13 64.7399 61.72 64.7399 61.29C64.7399 60.86 64.8899 60.45 65.2099 60.13L68.8799 56.48C69.5199 55.84 70.5699 55.84 71.1799 56.48L76.6299 61.87C74.1499 63.38 71.7899 65.03 69.5699 66.77H69.5799ZM123.79 51.67C120.93 51.32 118.04 51.15 115.1 51.15C112.16 51.15 109.3 51.32 106.41 51.67V44.05H123.79V51.67ZM101.6 38.25C99.7299 38.25 98.2499 36.74 98.2499 34.92V27.13C98.2499 25.3 99.7399 23.8 101.6 23.8H128.61C130.48 23.8 131.96 25.31 131.96 27.13V34.92C131.96 36.75 130.47 38.25 128.61 38.25H101.6ZM160.59 66.77C158.34 65.03 156.01 63.38 153.53 61.9L159.01 56.48C159.65 55.84 160.67 55.84 161.31 56.48L164.98 60.13C165.3 60.45 165.48 60.85 165.48 61.29C165.48 61.73 165.31 62.13 164.98 62.42L160.58 66.77H160.59Z" fill="#027DB3"/>
<path d="M165.49 61.29C165.49 61.72 165.32 62.13 164.99 62.42L160.59 66.77C158.34 65.03 156.01 63.38 153.53 61.9L159.01 56.48C159.65 55.84 160.67 55.84 161.31 56.48L164.98 60.13C165.3 60.45 165.48 60.85 165.48 61.29H165.49Z" fill="#83DFE8"/>
<path d="M76.63 61.87C74.15 63.38 71.79 65.03 69.57 66.77L65.2 62.42C64.91 62.13 64.73 61.72 64.73 61.29C64.73 60.86 64.88 60.45 65.2 60.13L68.87 56.48C69.51 55.84 70.56 55.84 71.17 56.48L76.62 61.87H76.63Z" fill="#83DFE8"/>
<path d="M131.96 27.1298V34.9198C131.96 36.7498 130.47 38.2498 128.61 38.2498H101.6C99.73 38.2498 98.25 36.7398 98.25 34.9198V27.1298C98.25 25.2998 99.74 23.7998 101.6 23.7998H128.61C130.48 23.7998 131.96 25.3098 131.96 27.1298Z" fill="#83DFE8"/>
<path d="M123.79 44.0498V51.6698C120.93 51.3198 118.04 51.1498 115.1 51.1498C112.16 51.1498 109.3 51.3198 106.41 51.6698V44.0498H123.79Z" fill="#5CEBBE"/>
<path d="M115.1 68.7099C100.05 68.7099 85.9401 74.5299 75.3501 85.0799C74.2101 86.2099 74.2101 88.0599 75.3501 89.1899C76.5201 90.3199 78.3501 90.3199 79.4901 89.1599C88.3001 80.4099 99.8201 75.3399 112.18 74.6399V123.23L74.9401 154.78C72.9301 152.11 71.1501 149.27 69.6901 146.23C68.9901 144.81 67.2401 144.2 65.7801 144.9C64.3501 145.6 63.7401 147.31 64.4401 148.75C66.5401 153.1 69.1901 157.15 72.3401 160.78V160.81C83.0401 173.27 98.6201 180.4 115.09 180.4C146.09 180.4 171.32 155.36 171.32 124.56C171.32 93.7599 146.09 68.6899 115.09 68.6899L115.1 68.7099ZM115.1 174.62C101.31 174.62 88.2701 169 78.7901 159.15L116.99 126.78C117.63 126.23 118.01 125.42 118.01 124.58V74.6499C144.43 76.1899 165.49 97.9499 165.49 124.58C165.49 151.21 142.89 174.62 115.1 174.62Z" fill="#027DB3"/>
<path d="M165.49 124.57C165.49 152.16 142.89 174.61 115.1 174.61C101.31 174.61 88.27 168.99 78.79 159.14L116.99 126.77C117.63 126.22 118.01 125.41 118.01 124.57V74.6401C144.43 76.1801 165.49 97.9401 165.49 124.57Z" fill="#E6F9FA"/>
<path d="M11.92 103.01H39.8C41.41 103.01 42.72 101.71 42.72 100.11C42.72 98.51 41.41 97.21 39.8 97.21H11.92C10.31 97.21 9 98.51 9 100.11C9 101.71 10.31 103.01 11.92 103.01Z" fill="#027DB3"/>
<path d="M53.0301 97.21C51.4201 97.21 50.1201 98.51 50.1101 100.1C50.1101 101.7 51.4101 103 53.0201 103L85.5501 103.02C87.1601 103.02 88.4601 101.72 88.4701 100.13C88.4701 98.53 87.1701 97.23 85.5601 97.23L53.0301 97.21Z" fill="#027DB3"/>
<path d="M92.6999 115.3C94.3099 115.3 95.6099 114.01 95.6199 112.41C95.6199 110.81 94.3199 109.51 92.7099 109.51L74.5599 109.47C72.9499 109.47 71.6499 110.76 71.6399 112.36C71.6399 113.96 72.9399 115.26 74.5499 115.26L92.6999 115.3Z" fill="#027DB3"/>
<path d="M61.81 109.47H19.42C17.81 109.47 16.5 110.77 16.5 112.37C16.5 113.97 17.81 115.27 19.42 115.27H61.81C63.42 115.27 64.73 113.97 64.73 112.37C64.73 110.77 63.42 109.47 61.81 109.47Z" fill="#027DB3"/>
<path d="M67.0599 121.67C65.4499 121.67 64.1499 122.96 64.1399 124.56C64.1399 126.16 65.4399 127.46 67.0499 127.46L97.6999 127.5C99.3099 127.5 100.61 126.21 100.62 124.61C100.62 123.01 99.3199 121.71 97.7099 121.71L67.0599 121.67Z" fill="#027DB3"/>
<path d="M59.16 124.57C59.16 122.97 57.85 121.67 56.24 121.67H13.7C12.09 121.67 10.78 122.97 10.78 124.57C10.78 126.17 12.09 127.47 13.7 127.47H56.24C57.85 127.47 59.16 126.17 59.16 124.57Z" fill="#027DB3"/>
<path d="M56.2501 138.88H83.6401C85.2501 138.88 86.5601 137.58 86.5601 135.98C86.5601 134.38 85.2501 133.08 83.6401 133.08H56.2501C54.6401 133.08 53.3301 134.38 53.3301 135.98C53.3301 137.58 54.6401 138.88 56.2501 138.88Z" fill="#027DB3"/>
<path d="M17.37 133.09C15.76 133.09 14.45 134.39 14.45 135.99C14.45 137.59 15.76 138.89 17.37 138.89H44.7599C46.3699 138.89 47.68 137.59 47.68 135.99C47.68 134.39 46.3699 133.09 44.7599 133.09H17.37Z" fill="#027DB3"/>
</svg>
