<svg width="20" height="20" viewBox="0 0 20 20" fill="none" xmlns="http://www.w3.org/2000/svg">
<path d="M12.6 5.53488C12.6 4.19913 11.4359 3.11628 10 3.11628C8.56408 3.11628 7.40004 4.19913 7.40004 5.53488C7.40004 6.87064 8.56408 7.95349 10 7.95349C11.4359 7.95349 12.6 6.87064 12.6 5.53488ZM13.7999 5.53488C13.7999 7.48715 12.0986 9.06977 10 9.06977C7.90135 9.06977 6.20006 7.48715 6.20006 5.53488C6.20006 3.58262 7.90135 2 10 2C12.0986 2 13.7999 3.58262 13.7999 5.53488Z" fill="#637381"/>
<path d="M15.7999 14.093C15.7999 13.4596 15.3028 12.7722 14.2312 12.2115C13.1784 11.6606 11.6836 11.3023 10 11.3023C8.31639 11.3023 6.8216 11.6606 5.76881 12.2115C4.69719 12.7722 4.20009 13.4596 4.20009 14.093C4.20009 15.0662 4.23236 15.6142 4.77899 16.0283C5.07539 16.2528 5.5709 16.4718 6.4188 16.6315C7.26435 16.7908 8.42065 16.8837 10 16.8837C11.5794 16.8837 12.7357 16.7908 13.5812 16.6315C14.4291 16.4718 14.9246 16.2528 15.221 16.0283C15.7676 15.6142 15.7999 15.0662 15.7999 14.093ZM16.9999 14.093C16.9999 14.9692 17.0322 16.0959 15.9788 16.8939C15.4753 17.2753 14.7704 17.5468 13.8187 17.726C12.8643 17.9057 11.6204 18 10 18C8.3796 18 7.13569 17.9057 6.18131 17.726C5.22958 17.5468 4.52474 17.2753 4.02119 16.8939C2.96784 16.0959 3.00011 14.9692 3.00011 14.093C3.00011 12.8771 3.9358 11.8897 5.18054 11.2384C6.4441 10.5772 8.14935 10.186 10 10.186C11.8506 10.186 13.5559 10.5772 14.8195 11.2384C16.0642 11.8897 16.9999 12.8771 16.9999 14.093Z" fill="#637381"/>
</svg>
