<svg width="20" height="20" viewBox="0 0 20 20" fill="none" xmlns="http://www.w3.org/2000/svg">
<path d="M7.50106 8.33342C9.34201 8.33342 10.8344 6.84103 10.8344 5.00008C10.8344 3.15913 9.34201 1.66675 7.50106 1.66675C5.66011 1.66675 4.16772 3.15913 4.16772 5.00008C4.16772 6.84103 5.66011 8.33342 7.50106 8.33342Z" fill="#637381"/>
<path d="M7.50106 17.5009C10.7227 17.5009 13.3344 16.0085 13.3344 14.1676C13.3344 12.3266 10.7227 10.8342 7.50106 10.8342C4.2794 10.8342 1.66772 12.3266 1.66772 14.1676C1.66772 16.0085 4.2794 17.5009 7.50106 17.5009Z" fill="#637381"/>
<path d="M17.5002 14.1667C17.5002 15.5476 15.8036 16.6667 13.7327 16.6667C14.3427 16.0001 14.7627 15.1626 14.7627 14.1684C14.7627 13.1726 14.3419 12.3351 13.7302 11.6676C15.8019 11.6667 17.5002 12.7867 17.5002 14.1667ZM15.0002 5.00008C15.0005 5.40234 14.9037 5.79873 14.718 6.15559C14.5324 6.51244 14.2633 6.81923 13.9338 7.04989C13.6042 7.28056 13.2239 7.4283 12.825 7.48056C12.4262 7.53282 12.0206 7.48806 11.6427 7.35008C12.0498 6.63387 12.2632 5.82391 12.2619 5.00008C12.2619 4.14591 12.0369 3.34425 11.6436 2.65091C12.0214 2.51311 12.4269 2.46848 12.8256 2.52082C13.2243 2.57316 13.6046 2.72093 13.934 2.95157C14.2635 3.18222 14.5324 3.48894 14.718 3.84571C14.9036 4.20247 15.0004 4.59792 15.0002 5.00008Z" fill="#637381"/>
</svg>
