<svg width="216" height="216" viewBox="0 0 216 216" fill="none" xmlns="http://www.w3.org/2000/svg">
<path d="M187.25 109.74H181.4V90.7701C181.34 86.4101 178.67 82.6901 174.9 81.0601C173.61 80.5001 172.17 80.1901 170.65 80.1901H162.77L166.77 76.2201C168.63 74.3301 169.64 71.8601 169.64 69.2401C169.64 66.6201 168.6 64.1501 166.77 62.3201L161.68 57.2301H178.59C180.14 57.2301 181.4 55.9601 181.4 54.4201C181.4 52.8801 180.13 51.6101 178.59 51.6101H156.05L125.35 20.9101C121.52 17.1101 115.3 17.1101 111.48 20.9101L80.8 51.6101H44.13C39.57 51.6101 35.26 53.3801 32.03 56.6201C28.79 59.8301 27.02 64.1301 27.02 68.6901V171.13C27.02 180.56 34.7 188.24 44.13 188.24H170.66C176.6 188.24 181.41 183.43 181.41 177.49V159.68H187.26C193.2 159.68 198.01 154.87 198.01 148.93V120.51C198.01 114.57 193.2 109.76 187.26 109.76L187.25 109.74ZM162.79 66.3201C163.58 67.1101 164 68.1501 164 69.2501C164 70.3501 163.58 71.4501 162.76 72.2301L154.8 80.1901H111.46L144.05 47.5701L162.79 66.3101V66.3201ZM139.63 44.0301L103.49 80.1901H83.17L129.47 33.8901L139.63 44.0201V44.0301ZM83.93 56.4101L115.45 24.8901C117.05 23.2601 119.73 23.2601 121.36 24.8901L125.95 29.4801L75.24 80.1901H60.13L83.94 56.4101H83.93ZM35.98 60.5701C38.15 58.4001 41.05 57.2201 44.11 57.2201H75.15L52.16 80.1901H44.11C41.04 80.1901 38.17 78.9801 36 76.8101C33.83 74.6401 32.62 71.7701 32.62 68.7001C32.62 65.6301 33.8 62.7301 35.97 60.5701H35.98ZM175.77 177.48C175.77 180.29 173.46 182.6 170.65 182.6H44.11C37.78 182.6 32.63 177.45 32.63 171.12V81.3701C35.78 84.2401 39.83 85.8201 44.11 85.8201H170.64C173.45 85.8201 175.76 88.1301 175.76 90.9401V109.74H150.06C136.3 109.74 125.1 120.94 125.1 134.7C125.1 148.46 136.3 159.66 150.06 159.66H175.76V177.47L175.77 177.48ZM192.37 148.92C192.37 151.76 190.06 154.04 187.25 154.04H150.07C139.43 154.04 130.74 145.37 130.74 134.71C130.74 124.05 139.44 115.38 150.07 115.38H187.25C190.06 115.38 192.37 117.69 192.37 120.5V148.92Z" fill="#027DB3"/>
<path d="M151.96 122.29C145.12 122.29 139.55 127.86 139.55 134.7C139.55 141.54 145.12 147.11 151.96 147.11C158.8 147.11 164.37 141.54 164.37 134.7C164.37 127.86 158.8 122.29 151.96 122.29ZM151.96 141.49C148.22 141.49 145.18 138.45 145.18 134.71C145.18 130.97 148.22 127.93 151.96 127.93C155.7 127.93 158.74 130.97 158.74 134.71C158.74 138.45 155.7 141.49 151.96 141.49Z" fill="#027DB3"/>
<path d="M50.1102 106.34V163.08C50.1102 164.66 48.8702 165.89 47.3002 165.89C45.7302 165.89 44.4902 164.65 44.4902 163.08V106.34C44.4902 104.76 45.7602 103.53 47.3002 103.53C48.8402 103.53 50.1102 104.77 50.1102 106.34Z" fill="#027DB3"/>
</svg>
