<svg width="216" height="216" viewBox="0 0 216 216" fill="none" xmlns="http://www.w3.org/2000/svg">
<path d="M95.1501 189C93.5401 189 92.2301 187.73 92.2301 186.17V139.56C92.2301 136.34 90.9701 133.29 88.6701 130.96L68.5201 113.88C67.0001 112.65 64.7101 112.65 63.1301 113.93L56.4301 119.37C55.1901 120.38 53.3501 120.22 52.3101 119.02C51.2701 117.82 51.4301 116.04 52.6701 115.03L59.3701 109.59C63.1201 106.55 68.5601 106.54 72.3201 109.59L92.7101 126.89C96.2401 130.45 98.0801 134.89 98.0801 139.58V186.19C98.0801 187.75 96.7701 189.02 95.1601 189.02L95.1501 189Z" fill="#027DB3"/>
<path d="M57.6102 189C56.0002 189 54.6902 187.73 54.6902 186.17V158.78L33.8002 140.53C33.7102 140.45 33.6202 140.36 33.5402 140.27C28.7302 134.83 26.4002 127.62 27.1402 120.49L29.7502 68.8C30.2302 64.15 34.1102 60.75 38.7902 60.75H39.1902C43.9702 60.75 47.9402 64.37 48.2402 68.98L52.1302 103.16C53.2202 108.8 54.4102 112.63 57.4602 116.14L70.8302 128.85C71.9802 129.95 72.0002 131.74 70.8602 132.85C69.7302 133.96 67.8802 133.98 66.7302 132.88L53.1702 119.97C49.1202 115.32 47.6302 110.61 46.3502 103.97L42.4202 69.45C42.3002 67.68 40.8902 66.39 39.1902 66.39H38.7902C37.1302 66.39 35.7502 67.6 35.5802 69.2L32.9702 120.89C32.3802 126.57 34.1702 132.17 37.8602 136.43L59.5702 155.4C60.1802 155.94 60.5402 156.7 60.5402 157.5V186.15C60.5402 187.71 59.2302 188.98 57.6202 188.98L57.6102 189Z" fill="#027DB3"/>
<path d="M120.85 189C119.24 189 117.93 187.73 117.93 186.17V139.56C117.93 134.88 119.77 130.43 123.11 127.05L143.63 109.62C147.43 106.54 152.88 106.54 156.63 109.59L163.33 115.03C164.57 116.04 164.73 117.82 163.69 119.02C162.65 120.22 160.81 120.37 159.57 119.37L152.87 113.93C151.3 112.65 149.01 112.65 147.43 113.93L127.15 131.14C125.04 133.3 123.77 136.35 123.77 139.57V186.18C123.77 187.74 122.46 189.01 120.85 189.01V189Z" fill="#027DB3"/>
<path d="M158.38 189C156.77 189 155.46 187.73 155.46 186.17V157.52C155.46 156.72 155.81 155.96 156.42 155.42L178.13 136.45C181.82 132.19 183.61 126.59 183.04 121.05L180.41 69.07C180.26 67.61 178.88 66.4 177.21 66.4H176.82C175.12 66.4 173.71 67.69 173.6 69.33L169.69 103.77C168.38 110.61 166.89 115.33 163.03 119.78L149.28 132.89C148.13 133.98 146.28 133.97 145.15 132.86C144.02 131.74 144.03 129.95 145.18 128.86L158.74 115.95C161.6 112.63 162.79 108.8 163.91 102.95L167.77 68.84C168.06 64.36 172.04 60.74 176.81 60.74H177.2C181.88 60.74 185.76 64.14 186.23 68.65L188.86 120.63C189.59 127.61 187.25 134.82 182.45 140.26C182.37 140.35 182.28 140.44 182.19 140.52L161.3 158.77V186.16C161.3 187.72 159.99 188.99 158.38 188.99V189Z" fill="#027DB3"/>
<path d="M108 115.49C107.39 115.49 106.78 115.3 106.26 114.93C104.2 113.46 56.0899 78.57 73.2799 54.39C74.1999 53.1 76.0199 52.77 77.3499 53.66C78.6799 54.55 79.0099 56.31 78.0999 57.6C66.9799 73.23 94.4199 98.89 107.98 109.08C116.18 102.79 150.29 75.06 137.87 57.6C136.95 56.31 137.29 54.55 138.62 53.66C139.95 52.77 141.77 53.1 142.69 54.39C159.88 78.56 111.8 113.46 109.74 114.93C109.22 115.3 108.61 115.49 108 115.49Z" fill="#027DB3"/>
<path d="M108 79.14C107.39 79.14 106.78 78.95 106.26 78.58C104.79 77.52 70.3099 52.51 82.8699 34.84C86.5799 29.63 90.8599 26.99 95.5899 26.99H95.6799C101.02 27.03 105.43 30.56 108 33.23C110.57 30.57 114.98 27.03 120.32 26.99H120.41C125.14 26.99 129.42 29.63 133.13 34.84C145.69 52.5 111.21 77.52 109.74 78.58C109.22 78.95 108.61 79.14 108 79.14ZM95.5899 32.66C92.8899 32.66 90.2399 34.48 87.6899 38.06C80.3699 48.35 98.4899 65.48 108 72.74C117.5 65.47 135.62 48.33 128.32 38.06C125.77 34.48 123.11 32.66 120.42 32.66H120.39C115.99 32.68 111.72 37.45 110.44 39.28C109.9 40.06 108.99 40.53 108.01 40.53C107.04 40.53 106.13 40.06 105.58 39.28C104.3 37.44 100.02 32.68 95.6299 32.66H95.5999H95.5899Z" fill="#027DB3"/>
</svg>
