<svg width="216" height="216" viewBox="0 0 216 216" fill="none" xmlns="http://www.w3.org/2000/svg">
<path d="M205.16 58.2502C204.23 55.7102 202.36 53.6702 199.88 52.5302L194.33 49.9602C191.88 48.8202 189.1 48.7002 186.57 49.6702C184.99 50.2502 183.62 51.2502 182.54 52.4702L179.97 51.3002V31.8002C179.97 24.1802 173.78 17.9902 166.16 17.9902H60.81C53.4 17.9902 47.38 23.8602 47.06 31.1802H42.42C38.89 31.1802 36 34.0702 36 37.6002V40.7502C36 44.2802 38.89 47.1702 42.42 47.1702H47V52.6002H42.42C38.89 52.6002 36 55.4902 36 59.0202V62.1702C36 65.7302 38.89 68.5902 42.42 68.5902H47V74.0502H42.42C38.89 74.0502 36 76.9102 36 80.4702V83.5902C36 87.1502 38.89 90.0402 42.42 90.0402H47V95.4702H42.42C38.89 95.4702 36 98.3602 36 101.89V105.04C36 108.57 38.89 111.46 42.42 111.46H47V116.89H42.42C38.89 116.89 36 119.78 36 123.34V126.46C36 130.02 38.89 132.88 42.42 132.88H47V138.34H42.42C38.89 138.34 36 141.2 36 144.76V147.91C36 151.44 38.89 154.33 42.42 154.33H47V159.76H42.42C38.89 159.76 36 162.65 36 166.18V169.33C36 172.86 38.89 175.75 42.42 175.75H47.06C47.38 183.08 53.39 188.94 60.81 188.94H166.16C173.78 188.94 179.97 182.75 179.97 175.13V119.7L193.72 90.0102V89.9802L204.84 65.9602C205.98 63.4802 206.1 60.7302 205.16 58.2002V58.2502ZM42.42 41.3502C42.1 41.3502 41.84 41.0902 41.84 40.7702V37.6202C41.84 37.3002 42.1 37.0402 42.42 37.0402H57.39C57.71 37.0402 57.97 37.3002 57.97 37.6202V40.7702C57.97 41.0902 57.71 41.3502 57.39 41.3502H42.42ZM42.42 62.7802C42.1 62.7802 41.84 62.5202 41.84 62.2002V59.0502C41.84 58.7302 42.1 58.4702 42.42 58.4702H49.83C49.83 58.4702 49.89 58.5002 49.92 58.5002C49.95 58.5002 49.95 58.4702 49.98 58.4702H57.39C57.71 58.4702 57.97 58.7302 57.97 59.0502V62.2002C57.97 62.5202 57.71 62.7802 57.39 62.7802H42.42ZM42.42 84.2302C42.1 84.2302 41.84 83.9702 41.84 83.6202V80.5002C41.84 80.1802 42.1 79.9202 42.42 79.9202H57.39C57.71 79.9202 57.97 80.1802 57.97 80.5002V83.6202C57.97 83.9702 57.71 84.2302 57.39 84.2302H49.98C49.98 84.2302 49.95 84.2002 49.92 84.2002C49.89 84.2002 49.86 84.2302 49.86 84.2302H42.42ZM42.42 105.66C42.1 105.66 41.84 105.4 41.84 105.08V101.93C41.84 101.61 42.1 101.35 42.42 101.35H57.39C57.71 101.35 57.97 101.61 57.97 101.93V105.08C57.97 105.4 57.71 105.66 57.39 105.66H42.42ZM42.42 127.09C42.1 127.09 41.84 126.83 41.84 126.51V123.39C41.84 123.04 42.1 122.78 42.42 122.78H49.86C49.86 122.78 49.89 122.81 49.92 122.81C49.95 122.81 49.95 122.78 49.98 122.78H57.39C57.71 122.78 57.97 123.04 57.97 123.39V126.51C57.97 126.83 57.71 127.09 57.39 127.09H42.42ZM42.42 148.54C42.1 148.54 41.84 148.28 41.84 147.96V144.81C41.84 144.49 42.1 144.23 42.42 144.23H57.39C57.71 144.23 57.97 144.49 57.97 144.81V147.96C57.97 148.28 57.71 148.54 57.39 148.54H49.98C49.98 148.54 49.95 148.51 49.92 148.51C49.89 148.51 49.86 148.54 49.83 148.54H42.42ZM42.42 169.97C42.1 169.97 41.84 169.71 41.84 169.39V166.24C41.84 165.92 42.1 165.66 42.42 165.66H57.39C57.71 165.66 57.97 165.92 57.97 166.24V169.39C57.97 169.71 57.71 169.97 57.39 169.97H42.42ZM174.13 175.19C174.13 179.6 170.57 183.16 166.16 183.16H60.81C56.64 183.16 53.22 179.92 52.9 175.8H57.4C60.96 175.8 63.82 172.91 63.82 169.38V166.23C63.82 162.7 60.96 159.81 57.4 159.81H52.85V154.38H57.4C60.96 154.38 63.82 151.49 63.82 147.96V144.81C63.82 141.25 60.96 138.39 57.4 138.39H52.85V132.93H57.4C60.96 132.93 63.82 130.07 63.82 126.51V123.39C63.82 119.83 60.96 116.94 57.4 116.94H52.85V111.51H57.4C60.96 111.51 63.82 108.62 63.82 105.09V101.94C63.82 98.4102 60.96 95.5202 57.4 95.5202H52.85V90.0902H57.4C60.96 90.0902 63.82 87.2002 63.82 83.6402V80.5202C63.82 76.9602 60.96 74.1002 57.4 74.1002H52.85V68.6402H57.4C60.96 68.6402 63.82 65.7802 63.82 62.2202V59.0702C63.82 55.5402 60.96 52.6502 57.4 52.6502H52.85V47.2202H57.4C60.96 47.2202 63.82 44.3302 63.82 40.8002V37.6502C63.82 34.1202 60.96 31.2302 57.4 31.2302H52.9C53.22 27.1102 56.64 23.8702 60.81 23.8702H166.16C170.57 23.8702 174.13 27.4302 174.13 31.8402V50.5802C173.63 50.6702 173.14 50.7802 172.64 50.9602C170.3 51.8402 168.41 53.5602 167.36 55.8302L161.29 69.0202C160.59 70.4802 161.23 72.2002 162.69 72.9002C163.1 73.0802 163.51 73.1602 163.92 73.1602C165.03 73.1602 166.08 72.5202 166.58 71.4702L172.68 58.2802C173 57.6102 173.53 57.1402 174.14 56.7602V69.4902L146.23 129.83C144.39 133.86 143.66 138.3 144.16 142.7L145.74 156.45C145.86 157.47 146.47 158.35 147.4 158.76C147.78 158.94 148.22 159.05 148.63 159.05C149.21 159.05 149.77 158.87 150.26 158.55L161.76 150.81C165.44 148.36 168.36 144.91 170.2 140.91L174.14 132.39V175.21L174.13 175.19ZM150.54 135L163.44 140.98C162.13 142.94 160.46 144.63 158.48 145.94L150.98 150.99L149.96 142C149.7 139.64 149.9 137.27 150.54 134.99V135ZM174.39 117.89C174.39 117.89 174.36 117.95 174.36 117.98L166.13 135.79L152.76 129.6L173.81 84.0602L187.18 90.2502L174.39 117.89ZM199.53 63.5702L189.63 84.9702L176.26 78.7802L179.73 71.3102C179.73 71.3102 179.73 71.2802 179.76 71.2502L186.15 57.3802C186.65 56.3302 187.49 55.5402 188.57 55.1302C189.07 54.9502 189.56 54.8702 190.06 54.8702C190.67 54.8702 191.29 55.0202 191.87 55.2802L197.42 57.8502C198.47 58.3202 199.26 59.1902 199.67 60.2702C200.05 61.3502 200.02 62.5202 199.52 63.5702H199.53Z" fill="#484848"/>
<path d="M57.3998 37.0298H42.4198C42.0995 37.0298 41.8398 37.2895 41.8398 37.6098V40.7698C41.8398 41.0901 42.0995 41.3498 42.4198 41.3498H57.3998C57.7202 41.3498 57.9798 41.0901 57.9798 40.7698V37.6098C57.9798 37.2895 57.7202 37.0298 57.3998 37.0298Z" fill="#DDDDDD"/>
<path d="M57.9801 59.04V62.19C57.9801 62.51 57.7201 62.77 57.4001 62.77H42.4301C42.1101 62.77 41.8501 62.51 41.8501 62.19V59.04C41.8501 58.72 42.1101 58.46 42.4301 58.46H49.8401C49.8401 58.46 49.9001 58.49 49.9301 58.49C49.9601 58.49 49.9601 58.46 49.9901 58.46H57.4001C57.7201 58.46 57.9801 58.72 57.9801 59.04Z" fill="#DDDDDD"/>
<path d="M57.9801 80.4999V83.6199C57.9801 83.9699 57.7201 84.2299 57.4001 84.2299H49.9901C49.9901 84.2299 49.9601 84.1999 49.9301 84.1999C49.9001 84.1999 49.8701 84.2299 49.8701 84.2299H42.4301C42.1101 84.2299 41.8501 83.9699 41.8501 83.6199V80.4999C41.8501 80.1799 42.1101 79.9199 42.4301 79.9199H57.4001C57.7201 79.9199 57.9801 80.1799 57.9801 80.4999Z" fill="#DDDDDD"/>
<path d="M57.3998 101.34H42.4198C42.0995 101.34 41.8398 101.6 41.8398 101.92V105.08C41.8398 105.4 42.0995 105.66 42.4198 105.66H57.3998C57.7202 105.66 57.9798 105.4 57.9798 105.08V101.92C57.9798 101.6 57.7202 101.34 57.3998 101.34Z" fill="#DDDDDD"/>
<path d="M57.9801 123.38V126.5C57.9801 126.82 57.7201 127.08 57.4001 127.08H42.4301C42.1101 127.08 41.8501 126.82 41.8501 126.5V123.38C41.8501 123.03 42.1101 122.77 42.4301 122.77H49.8701C49.8701 122.77 49.9001 122.8 49.9301 122.8C49.9601 122.8 49.9601 122.77 49.9901 122.77H57.4001C57.7201 122.77 57.9801 123.03 57.9801 123.38Z" fill="#DDDDDD"/>
<path d="M57.9801 144.81V147.96C57.9801 148.28 57.7201 148.54 57.4001 148.54H49.9901C49.9901 148.54 49.9601 148.51 49.9301 148.51C49.9001 148.51 49.8701 148.54 49.8401 148.54H42.4301C42.1101 148.54 41.8501 148.28 41.8501 147.96V144.81C41.8501 144.49 42.1101 144.23 42.4301 144.23H57.4001C57.7201 144.23 57.9801 144.49 57.9801 144.81Z" fill="#DDDDDD"/>
<path d="M57.3998 165.65H42.4198C42.0995 165.65 41.8398 165.91 41.8398 166.23V169.39C41.8398 169.71 42.0995 169.97 42.4198 169.97H57.3998C57.7202 169.97 57.9798 169.71 57.9798 169.39V166.23C57.9798 165.91 57.7202 165.65 57.3998 165.65Z" fill="#DDDDDD"/>
<path d="M199.53 63.5701L189.63 84.9701L176.26 78.7801L179.73 71.3101C179.73 71.3101 179.73 71.2801 179.76 71.2501L186.15 57.3801C186.65 56.3301 187.49 55.5401 188.57 55.1301C189.07 54.9501 189.56 54.8701 190.06 54.8701C190.67 54.8701 191.29 55.0201 191.87 55.2801L197.42 57.8501C198.47 58.3201 199.26 59.1901 199.67 60.2701C200.05 61.3501 200.02 62.5201 199.52 63.5701H199.53Z" fill="#DDDDDD"/>
<path d="M187.18 90.2501L174.39 117.89C174.39 117.89 174.36 117.95 174.36 117.98L166.13 135.79L152.76 129.6L173.81 84.0601L187.18 90.2501Z" fill="#5CEBBE"/>
<path d="M163.45 140.98C162.14 142.94 160.47 144.63 158.49 145.94L150.99 150.99L149.97 142C149.71 139.64 149.91 137.27 150.55 134.99L163.45 140.97V140.98Z" fill="#DDDDDD"/>
<path d="M167.36 55.7998C168.41 53.5198 170.31 51.7998 172.64 50.9298C173.14 50.7498 173.63 50.6398 174.13 50.5498V31.8098C174.13 27.3998 170.57 23.8398 166.16 23.8398H60.8101C56.6401 23.8398 53.2201 27.0798 52.9001 31.1998H57.4001C60.9601 31.1998 63.8201 34.0898 63.8201 37.6198V40.7698C63.8201 44.2998 60.9601 47.1898 57.4001 47.1898H52.8501V52.6198H57.4001C60.9601 52.6198 63.8201 55.5098 63.8201 59.0398V62.1898C63.8201 65.7498 60.9601 68.6098 57.4001 68.6098H52.8501V74.0698H57.4001C60.9601 74.0698 63.8201 76.9298 63.8201 80.4898V83.6098C63.8201 87.1698 60.9601 90.0598 57.4001 90.0598H52.8501V95.4898H57.4001C60.9601 95.4898 63.8201 98.3799 63.8201 101.91V105.06C63.8201 108.59 60.9601 111.48 57.4001 111.48H52.8501V116.91H57.4001C60.9601 116.91 63.8201 119.8 63.8201 123.36V126.48C63.8201 130.04 60.9601 132.9 57.4001 132.9H52.8501V138.36H57.4001C60.9601 138.36 63.8201 141.22 63.8201 144.78V147.93C63.8201 151.46 60.9601 154.35 57.4001 154.35H52.8501V159.78H57.4001C60.9601 159.78 63.8201 162.67 63.8201 166.2V169.35C63.8201 172.88 60.9601 175.77 57.4001 175.77H52.9001C53.2201 179.89 56.6401 183.13 60.8101 183.13H166.16C170.57 183.13 174.13 179.57 174.13 175.16V132.34L170.19 140.86C168.35 144.86 165.43 148.3 161.75 150.76L150.25 158.5C149.75 158.82 149.2 159 148.62 159C148.21 159 147.77 158.88 147.39 158.71C146.46 158.3 145.84 157.43 145.73 156.4L144.15 142.65C143.65 138.24 144.38 133.81 146.22 129.78L174.13 69.4398V56.7098C173.52 57.0898 172.99 57.5598 172.67 58.2298L166.57 71.4198C166.07 72.4698 165.02 73.1098 163.91 73.1098C163.5 73.1098 163.09 73.0198 162.68 72.8498C161.22 72.1498 160.58 70.4298 161.28 68.9698L167.35 55.7798L167.36 55.7998ZM153.61 87.2098C153.61 92.8098 149.09 97.3698 143.48 97.3698H88.2801C82.6801 97.3698 78.1201 92.8198 78.1201 87.2098V60.4998C78.1201 54.8998 82.6701 50.3698 88.2801 50.3698H143.48C149.08 50.3698 153.61 54.8898 153.61 60.4998V87.2098Z" fill="#07BED1"/>
<path d="M143.48 50.3701H88.2801C82.6801 50.3701 78.1201 54.8901 78.1201 60.5001V87.2101C78.1201 92.8101 82.6701 97.3701 88.2801 97.3701H143.48C149.08 97.3701 153.61 92.8201 153.61 87.2101V60.5001C153.61 54.9001 149.09 50.3701 143.48 50.3701ZM147.77 87.2101C147.77 89.6001 145.84 91.5301 143.48 91.5301H88.2801C85.8901 91.5301 83.9601 89.6001 83.9601 87.2101V60.5001C83.9601 58.1401 85.8901 56.2101 88.2801 56.2101H143.48C145.84 56.2101 147.77 58.1401 147.77 60.5001V87.2101Z" fill="#484848"/>
<path d="M143.48 56.21H88.28C85.89 56.21 83.96 58.14 83.96 60.5V87.21C83.96 89.6 85.89 91.53 88.28 91.53H143.48C145.84 91.53 147.77 89.6 147.77 87.21V60.5C147.77 58.14 145.84 56.21 143.48 56.21ZM134.55 84.03H97.21C95.6 84.03 94.29 82.72 94.29 81.11C94.29 79.5 95.6 78.19 97.21 78.19H134.55C136.16 78.19 137.47 79.5 137.47 81.11C137.47 82.72 136.16 84.03 134.55 84.03ZM134.55 69.55H97.21C95.6 69.55 94.29 68.24 94.29 66.63C94.29 65.02 95.6 63.71 97.21 63.71H134.55C136.16 63.71 137.47 64.99 137.47 66.63C137.47 68.27 136.16 69.55 134.55 69.55Z" fill="#5CEBBE"/>
<path d="M137.47 66.63C137.47 68.24 136.16 69.55 134.55 69.55H97.21C95.6 69.55 94.29 68.24 94.29 66.63C94.29 65.02 95.6 63.71 97.21 63.71H134.55C136.16 63.71 137.47 64.99 137.47 66.63Z" fill="#484848"/>
<path d="M137.47 81.1099C137.47 82.7199 136.16 84.0299 134.55 84.0299H97.21C95.6 84.0299 94.29 82.7199 94.29 81.1099C94.29 79.4999 95.6 78.1899 97.21 78.1899H134.55C136.16 78.1899 137.47 79.4999 137.47 81.1099Z" fill="#484848"/>
</svg>
