<svg width="188" height="180" viewBox="0 0 188 180" fill="none" xmlns="http://www.w3.org/2000/svg">
<g>
<path d="M4.76958 109.299C4.76958 109.299 4.74044 109.299 4.72587 109.299C4.32272 109.275 4.01672 108.929 4.04587 108.525L4.41015 102.692C4.43444 102.332 4.71129 102.045 5.07072 102.011L8.83987 101.671L4.72587 92.4956C4.60929 92.2329 4.65787 91.9216 4.85215 91.7075C5.04644 91.4935 5.35244 91.4156 5.62444 91.5081L17.335 95.4486C17.7187 95.5751 17.9227 95.9886 17.7916 96.3729C17.6653 96.7524 17.2524 96.9616 16.8687 96.8302L6.73672 93.42L10.5884 102.006C10.6856 102.22 10.671 102.469 10.5544 102.673C10.4379 102.877 10.2242 103.009 9.99101 103.033L5.82844 103.408L5.50301 108.613C5.47872 108.997 5.15815 109.299 4.77444 109.299H4.76958Z" fill="#07BED1"/>
<path d="M76.757 165.893H64.1284V178.541H76.757V165.893Z" fill="#07BED1"/>
<path d="M66.5573 144.487H56.3573V140.682L53.9287 139.096V131.838H66.5573V144.487Z" fill="#07BED1"/>
<path d="M152.286 180H1.22857C0.825429 180 0.5 179.675 0.5 179.271C0.5 178.867 0.825429 178.541 1.22857 178.541H152.286C152.689 178.541 153.014 178.867 153.014 179.271C153.014 179.675 152.689 180 152.286 180Z" fill="#027DB3"/>
<path d="M29.2882 116.047L37.5163 119.973C37.1325 121.204 40.1343 128.91 39.8234 134.222L28.7394 135.521L29.8808 145.022L37.2103 146.934L33.6014 157.136H14.9985C14.9985 157.136 16.7811 149.663 18.3062 143.781C19.846 137.851 19.7828 125.786 23.6783 120.907C25.7474 118.319 29.2834 116.047 29.2834 116.047H29.2882Z" fill="#07BED1"/>
<path d="M47.3911 180.001H44.4574C44.0542 180.001 43.7288 179.675 43.7288 179.271C43.7288 178.867 44.0542 178.541 44.4574 178.541H47.3911C49.2368 178.541 50.9805 177.734 52.1802 176.328C53.3945 174.902 53.8996 173.078 53.5985 171.2C53.3605 169.702 52.5348 168.31 51.2768 167.284C46.4974 163.373 40.2365 160.113 34.5245 158.571C34.1359 158.464 33.9076 158.065 34.0096 157.676C34.1116 157.287 34.5099 157.058 34.9034 157.16C40.8048 158.756 47.2696 162.117 52.1996 166.15C53.7345 167.405 54.7399 169.118 55.0362 170.967C55.4005 173.243 54.7594 175.54 53.2876 177.271C51.8111 179.003 49.6642 179.996 47.3911 179.996V180.001Z" fill="#027DB3"/>
<path d="M34.2574 158.595H15.3145C14.9114 158.595 14.5859 158.269 14.5859 157.865C14.5859 157.462 14.9114 157.136 15.3145 157.136H34.2574C34.6605 157.136 34.9859 157.462 34.9859 157.865C34.9859 158.269 34.6605 158.595 34.2574 158.595Z" fill="#027DB3"/>
<path d="M16.2226 179.095C16.1158 179.095 16.0089 179.071 15.9021 179.022C15.5378 178.847 15.3921 178.409 15.5669 178.049L19.5498 169.857C19.7246 169.492 20.1618 169.346 20.5212 169.521C20.8855 169.696 21.0312 170.134 20.8563 170.494L16.8735 178.687C16.7472 178.944 16.4898 179.095 16.2178 179.095H16.2226Z" fill="#027DB3"/>
<path d="M7.27584 177.821C7.09612 177.821 6.91641 177.758 6.77555 177.622C6.48412 177.344 6.46955 176.882 6.74155 176.59L13.1336 169.78C13.4104 169.483 13.8718 169.473 14.1633 169.746C14.4547 170.023 14.4693 170.485 14.1973 170.777L7.80527 177.588C7.66441 177.739 7.47012 177.816 7.27584 177.816V177.821Z" fill="#027DB3"/>
<path d="M20.2053 170.903C20.1179 170.903 20.0304 170.889 19.943 170.855C17.3493 169.853 15.5376 168.067 14.5662 165.542C12.8953 161.217 14.2359 156.109 14.7604 155.049C15.2073 154.158 16.3779 149.848 16.9413 147.781L17.0724 147.304C17.699 145.003 18.8744 140.717 19.5253 134.524C20.1567 128.54 23.0419 117.764 29.8516 115.347C30.2304 115.21 30.6482 115.41 30.7842 115.789C30.9202 116.169 30.721 116.587 30.3422 116.718C26.607 118.047 22.085 124.23 20.9776 134.675C20.3122 140.984 19.1173 145.343 18.481 147.688L18.3499 148.16C17.4902 151.313 16.5382 154.757 16.067 155.701C15.6396 156.562 14.4739 161.256 15.9262 165.012C16.747 167.133 18.277 168.641 20.4724 169.488C20.8464 169.634 21.0359 170.057 20.8902 170.431C20.7784 170.723 20.5016 170.898 20.2102 170.898L20.2053 170.903Z" fill="#027DB3"/>
<path d="M19.5402 171.117C19.171 171.117 18.8553 170.835 18.8165 170.46C18.7776 170.061 19.069 169.701 19.4673 169.662C21.2402 169.482 22.571 169.176 23.9796 168.85C26.243 168.324 28.5842 167.784 32.9896 167.668C37.1327 167.546 42.8933 169.19 43.1362 169.258C43.5248 169.37 43.7482 169.774 43.6365 170.158C43.5248 170.548 43.1216 170.766 42.7379 170.659C42.6796 170.645 36.9482 169.035 33.0285 169.122C28.7688 169.234 26.5053 169.759 24.3099 170.27C22.8528 170.606 21.4782 170.927 19.6179 171.117C19.5936 171.117 19.5693 171.117 19.545 171.117H19.5402Z" fill="#027DB3"/>
<path d="M39.4058 134.562C39.4058 134.562 39.3573 134.562 39.3378 134.562C38.9347 134.523 38.6433 134.168 38.6821 133.764C38.6918 133.677 39.4933 124.755 36.4818 119.972C36.2681 119.632 36.3701 119.179 36.7101 118.965C37.0501 118.751 37.5018 118.854 37.7156 119.194C40.9941 124.399 40.1684 133.516 40.1344 133.905C40.1004 134.285 39.7798 134.567 39.4107 134.567L39.4058 134.562Z" fill="#027DB3"/>
<path d="M33.8491 158.517C33.7908 158.517 33.7326 158.512 33.6743 158.498C33.2857 158.401 33.0477 158.007 33.14 157.612L35.3111 148.831C35.4083 148.442 35.8017 148.204 36.1951 148.296C36.5837 148.394 36.8217 148.788 36.7294 149.182L34.5583 157.963C34.4757 158.294 34.1794 158.517 33.8491 158.517Z" fill="#027DB3"/>
<path d="M36.6564 147.367C33.0718 147.367 29.9972 146.55 29.1909 143.972C27.1995 137.613 27.4472 130.652 28.5158 126.877C28.6275 126.487 29.0306 126.264 29.4144 126.375C29.8029 126.487 30.0264 126.891 29.9146 127.275C28.8704 130.963 28.7635 137.735 30.5801 143.539C31.2358 145.64 34.8301 146.37 40.6975 145.587C45.4429 144.954 50.0281 143.558 50.0718 143.544C50.2224 143.495 50.3924 143.5 50.5429 143.558C51.8301 144.04 54.0061 144.439 54.5938 143.763C54.8949 143.412 55.1281 142.921 55.2932 142.288C55.5118 141.423 55.1281 140.513 54.3509 140.07C53.0298 139.321 51.3978 139.336 50.0961 140.109C49.9989 140.167 49.8872 140.201 49.7706 140.211L36.7389 141.077C36.3358 141.101 35.9909 140.8 35.9618 140.396C35.9326 139.992 36.2386 139.647 36.6418 139.618L49.5084 138.761C51.2326 137.808 53.3504 137.818 55.0698 138.8C56.4152 139.569 57.0904 141.15 56.7066 142.648C56.4881 143.5 56.1481 144.196 55.7012 144.716C54.3752 146.248 51.2278 145.329 50.2758 145.008C48.5904 145.514 42.0526 147.367 36.6612 147.367H36.6564Z" fill="#027DB3"/>
<path d="M37.0937 120.309C36.9917 120.309 36.8848 120.284 36.7828 120.24C36.4185 120.07 36.2631 119.637 36.4331 119.272L38.036 115.848C38.1962 115.507 38.5897 115.342 38.9442 115.473C39.8865 115.813 40.8094 115.755 41.6982 115.303C43.0631 114.602 44.1414 113.026 44.4668 111.897C45.2148 109.28 45.6082 106.565 45.6325 103.826C45.6325 103.428 45.9628 103.102 46.3611 103.102H46.366C46.7691 103.102 47.0897 103.437 47.0897 103.836C47.0654 106.706 46.6525 109.552 45.8657 112.296C45.4625 113.712 44.19 115.663 42.3588 116.597C41.3194 117.127 40.1974 117.273 39.09 117.03L37.7494 119.89C37.6231 120.153 37.3608 120.309 37.0888 120.309H37.0937Z" fill="#027DB3"/>
<path d="M30.0945 116.766C29.9099 116.766 29.7205 116.694 29.5797 116.552C29.2979 116.27 29.2931 115.808 29.5797 115.526C29.6137 115.487 30.2791 114.782 30.3908 113.526C30.5559 111.668 30.0508 109.965 29.5165 108.161C29.2105 107.129 28.8948 106.059 28.7005 104.935C28.2391 102.284 28.9434 99.7395 30.6822 97.7643C32.7514 95.4146 36.1611 94.0524 39.5708 94.213C43.8208 94.4124 47.0022 97.9638 48.5371 99.6665C48.6779 99.8222 48.7994 99.9584 48.9062 100.075C49.3628 100.566 49.4745 101.233 49.2122 101.899C48.6148 103.427 46.0211 105.028 43.8791 105.193C43.4857 105.227 43.1262 104.925 43.0971 104.522C43.0679 104.118 43.3642 103.768 43.7674 103.738C45.448 103.607 47.4977 102.294 47.8571 101.369C47.9348 101.17 47.8862 101.116 47.8425 101.068C47.7308 100.946 47.5997 100.8 47.4539 100.639C46.0551 99.0827 43.1457 95.8378 39.5077 95.6676C36.5205 95.5265 33.5625 96.6989 31.7799 98.7276C30.3179 100.386 29.7545 102.444 30.1382 104.682C30.3179 105.723 30.6239 106.75 30.9154 107.742C31.4642 109.601 32.0325 111.517 31.8431 113.653C31.6828 115.463 30.6579 116.509 30.6142 116.552C30.4734 116.694 30.2839 116.766 30.0994 116.766H30.0945Z" fill="#027DB3"/>
<path d="M139.414 132.811C139.414 132.811 138.035 131.274 137.894 120.391C137.758 109.508 131.006 102.201 131.006 102.201C128.005 107.017 123.06 107.528 120.199 108.827L115.104 117.642C113.516 120.289 113.506 123.597 115.085 126.248L121.331 123.83L123.113 131.93L121.098 134.416L125.94 150.047C132.706 148.388 139.055 148.091 144.635 142.823L139.414 132.811Z" fill="#07BED1"/>
<path d="M118.902 92.3109C112.365 92.3109 107.605 86.4196 107.391 86.1472C107.143 85.8309 107.192 85.3736 107.507 85.1207C107.823 84.8726 108.28 84.9212 108.532 85.2374C108.586 85.3055 113.841 91.7904 120.403 90.7299C120.806 90.6666 121.175 90.9342 121.239 91.3331C121.302 91.732 121.035 92.1066 120.636 92.1699C120.049 92.2672 119.471 92.3109 118.902 92.3109Z" fill="#027DB3"/>
<path d="M129.748 104.362C129.535 104.362 129.321 104.265 129.175 104.085C128.928 103.768 128.981 103.311 129.297 103.058L132.779 100.319C132.561 97.9452 131.036 85.0582 123.682 80.7139C120.243 78.6852 115.051 78.1501 111.204 81.5311C107.143 85.0971 107.794 91.7522 109.222 95.3522C110.728 99.1517 113.424 103.024 116.474 102.499C116.95 102.416 117.266 102.246 117.79 101.964C119.17 101.224 119.675 100.46 120.432 99.3074C120.656 98.9717 121.108 98.8793 121.443 99.0982C121.778 99.322 121.87 99.7744 121.652 100.11C120.836 101.351 120.19 102.328 118.485 103.248C117.897 103.564 117.436 103.812 116.726 103.934C113.409 104.508 110.101 101.497 107.877 95.8874C106.517 92.4576 105.264 84.8149 110.252 80.4317C114.643 76.569 120.534 77.1576 124.43 79.4539C128.121 81.6333 130.904 85.8706 132.692 92.0441C134.008 96.583 134.261 100.436 134.27 100.601C134.285 100.84 134.183 101.073 133.994 101.219L130.205 104.201C130.074 104.308 129.914 104.357 129.753 104.357L129.748 104.362Z" fill="#027DB3"/>
<path d="M125.304 150.145C124.95 150.145 124.639 149.887 124.585 149.527C124.522 149.128 124.794 148.754 125.192 148.695L125.396 148.661C130.443 147.878 139.842 146.423 143.509 142.755C143.795 142.468 144.257 142.468 144.538 142.755C144.825 143.042 144.825 143.504 144.538 143.787C140.536 147.795 130.832 149.299 125.62 150.106L125.416 150.14C125.377 150.145 125.338 150.15 125.304 150.15V150.145Z" fill="#027DB3"/>
<path d="M90.44 142.794C89.7454 142.794 89.2257 142.721 88.8614 142.57C87.5937 142.049 86.7825 140.673 86.5882 138.693C86.394 136.771 87.1954 135.749 89.2645 135.263C89.318 135.248 89.3762 135.243 89.4297 135.243H94.9765C95.3797 135.243 95.7051 135.569 95.7051 135.973C95.7051 136.377 95.3797 136.703 94.9765 136.703H89.5171C88.0502 137.063 87.9385 137.545 88.0357 138.547C88.1182 139.369 88.4048 140.809 89.4102 141.222C89.6774 141.329 90.6682 141.519 94.112 140.931L94.2722 140.901C94.5442 140.858 95.438 140.405 95.9188 140.162C96.5454 139.846 96.832 139.705 97.0457 139.661C98.4202 139.374 99.8434 139.106 101.223 138.843C109.849 137.199 118.767 135.496 125.222 129.06C125.509 128.778 125.97 128.778 126.252 129.06C126.533 129.347 126.533 129.809 126.252 130.092C119.481 136.844 110.335 138.591 101.495 140.274C100.125 140.536 98.702 140.804 97.342 141.086C97.2642 141.115 96.866 141.315 96.5745 141.461C95.6517 141.923 94.9668 142.259 94.5102 142.336L94.3597 142.361C92.6888 142.648 91.3968 142.789 90.44 142.789V142.794Z" fill="#027DB3"/>
<path d="M95.4574 136.703C95.1465 136.703 94.8551 136.499 94.7579 136.182C94.6414 135.798 94.8599 135.389 95.2436 135.273C104.419 132.505 117.538 125.718 123.779 118.591C124.047 118.289 124.503 118.255 124.809 118.523C125.11 118.79 125.139 119.248 124.877 119.554C119.967 125.163 108.353 132.845 95.6662 136.674C95.5982 136.693 95.5254 136.703 95.4574 136.703Z" fill="#027DB3"/>
<path d="M126.572 167.308C126.305 167.308 126.047 167.162 125.921 166.904C125.741 166.544 125.882 166.106 126.247 165.926L139.827 159.071C142.848 157.169 144.655 154.601 145.199 151.434C146.175 145.742 142.95 139.228 139.89 135.375C137.734 132.66 137.753 130.948 137.787 127.537C137.811 125.445 137.841 122.585 137.355 118.304C136.879 114.139 135.271 107.781 132.852 103.67C132.648 103.325 132.765 102.877 133.11 102.673C133.455 102.469 133.901 102.585 134.105 102.931C136.631 107.227 138.312 113.828 138.802 118.138C139.298 122.512 139.269 125.426 139.244 127.557C139.21 130.811 139.196 132.159 141.032 134.47C144.276 138.556 147.696 145.518 146.637 151.686C146.02 155.291 143.98 158.201 140.57 160.331C140.551 160.341 140.531 160.356 140.512 160.365L126.902 167.235C126.795 167.288 126.684 167.312 126.577 167.312L126.572 167.308Z" fill="#027DB3"/>
<path d="M125.304 148.875C124.979 148.875 124.687 148.656 124.6 148.33L120.748 133.653C120.646 133.263 120.879 132.864 121.268 132.762C121.656 132.66 122.055 132.894 122.157 133.283L126.008 147.96C126.11 148.349 125.877 148.748 125.489 148.85C125.425 148.865 125.362 148.875 125.304 148.875Z" fill="#027DB3"/>
<path d="M110.029 180H107.479C103.044 180 100.64 177.704 100.528 173.355C100.475 171.214 101.218 169.142 102.631 167.522C106.099 163.537 115.226 153.74 124.979 148.773C125.338 148.588 125.776 148.734 125.96 149.094C126.145 149.454 125.999 149.892 125.64 150.076C115.848 155.063 106.396 165.425 103.729 168.485C102.558 169.828 101.942 171.545 101.985 173.321C102.078 176.882 103.821 178.541 107.479 178.541H110.029C110.432 178.541 110.757 178.867 110.757 179.27C110.757 179.674 110.432 180 110.029 180Z" fill="#027DB3"/>
<path d="M114.862 180.001C114.488 180.001 114.167 179.714 114.138 179.33C114.104 178.926 114.4 178.575 114.803 178.541C125.562 177.641 133.338 174.62 138.477 172.621C142.304 171.132 144.612 170.237 146.122 170.928C146.258 170.991 146.37 171.093 146.448 171.22C146.467 171.249 148.274 174.299 149.984 176.921C150.586 177.841 151.786 178.537 152.772 178.537H154.423L149.653 164.419C149.522 164.039 149.731 163.621 150.11 163.494C150.494 163.363 150.906 163.572 151.033 163.952L156.128 179.033C156.206 179.257 156.167 179.5 156.031 179.69C155.895 179.879 155.671 179.996 155.438 179.996H152.772C151.285 179.996 149.634 179.062 148.76 177.719C147.307 175.486 145.782 172.952 145.326 172.193C144.262 171.93 141.921 172.845 139.002 173.983C133.78 176.012 125.892 179.081 114.92 179.996C114.9 179.996 114.881 179.996 114.857 179.996L114.862 180.001Z" fill="#027DB3"/>
<path d="M114.861 171.589C114.619 171.589 114.381 171.467 114.245 171.249C114.031 170.908 114.133 170.456 114.473 170.241C122.123 165.44 132.493 164.822 140.823 164.331C144.286 164.126 147.565 163.932 150.217 163.474C150.615 163.406 150.989 163.674 151.057 164.068C151.125 164.462 150.858 164.841 150.464 164.91C147.73 165.381 144.417 165.576 140.91 165.785C132.318 166.296 122.579 166.87 115.25 171.477C115.129 171.555 114.997 171.589 114.861 171.589Z" fill="#027DB3"/>
<path d="M140.628 173.189C140.225 173.189 139.9 172.863 139.9 172.459V165.649C139.9 165.245 140.225 164.919 140.628 164.919C141.032 164.919 141.357 165.245 141.357 165.649V172.459C141.357 172.863 141.032 173.189 140.628 173.189Z" fill="#027DB3"/>
<path d="M77.4857 180H63.4C62.9968 180 62.6714 179.674 62.6714 179.27V165.162C62.6714 164.759 62.9968 164.433 63.4 164.433H77.4857C77.8888 164.433 78.2142 164.759 78.2142 165.162V179.27C78.2142 179.674 77.8888 180 77.4857 180ZM64.1285 178.541H76.7571V165.892H64.1285V178.541Z" fill="#027DB3"/>
<path d="M91.0858 180C90.6826 180 90.3572 179.674 90.3572 179.27V165.892H77.0001C76.5969 165.892 76.2715 165.566 76.2715 165.162C76.2715 164.759 76.5969 164.433 77.0001 164.433H91.0858C91.4889 164.433 91.8143 164.759 91.8143 165.162V179.27C91.8143 179.674 91.4889 180 91.0858 180Z" fill="#027DB3"/>
<path d="M77.4857 166.379C77.0825 166.379 76.7571 166.053 76.7571 165.649V152.271H64.1285V165.649C64.1285 166.053 63.8031 166.379 63.4 166.379C62.9968 166.379 62.6714 166.053 62.6714 165.649V151.541C62.6714 151.137 62.9968 150.812 63.4 150.812H77.4857C77.8888 150.812 78.2142 151.137 78.2142 151.541V165.649C78.2142 166.053 77.8888 166.379 77.4857 166.379Z" fill="#027DB3"/>
<path d="M67.2855 145.946H57.0855C56.6823 145.946 56.3569 145.621 56.3569 145.217C56.3569 144.813 56.6823 144.487 57.0855 144.487H66.5569V131.838H53.9283V136.46C53.9283 136.864 53.6029 137.19 53.1998 137.19C52.7966 137.19 52.4712 136.864 52.4712 136.46V131.109C52.4712 130.705 52.7966 130.379 53.1998 130.379H67.2855C67.6886 130.379 68.014 130.705 68.014 131.109V145.217C68.014 145.621 67.6886 145.946 67.2855 145.946Z" fill="#027DB3"/>
<path d="M85.7429 140.595H77.0001C76.5969 140.595 76.2715 140.269 76.2715 139.865V125.757C76.2715 125.353 76.5969 125.027 77.0001 125.027H91.0858C91.4889 125.027 91.8143 125.353 91.8143 125.757V133.054C91.8143 133.458 91.4889 133.784 91.0858 133.784C90.6826 133.784 90.3572 133.458 90.3572 133.054V126.487H77.7286V139.135H85.7429C86.1461 139.135 86.4715 139.461 86.4715 139.865C86.4715 140.269 86.1461 140.595 85.7429 140.595Z" fill="#027DB3"/>
<path d="M74.5717 104.595C60.2431 104.595 48.5859 92.9194 48.5859 78.568C48.5859 64.2167 60.2431 52.541 74.5717 52.541C88.9002 52.541 100.557 64.2167 100.557 78.568C100.557 92.9194 88.9002 104.595 74.5717 104.595ZM74.5717 54.0005C61.0445 54.0005 50.0431 65.0194 50.0431 78.568C50.0431 92.1167 61.0445 103.136 74.5717 103.136C88.0988 103.136 99.1002 92.1167 99.1002 78.568C99.1002 65.0194 88.0988 54.0005 74.5717 54.0005Z" fill="#07BED1"/>
<path d="M81.4882 86.0013C81.3036 86.0013 81.1141 85.9283 80.9733 85.7873L73.979 78.7819C73.7216 78.524 73.6924 78.1202 73.911 77.8283L84.4073 63.8127C84.6501 63.4916 85.1067 63.4235 85.4273 63.6667C85.7479 63.91 85.8159 64.3673 85.573 64.6883L75.4556 78.1981L82.003 84.7559C82.2896 85.0429 82.2896 85.5051 82.003 85.7873C81.8621 85.9283 81.6727 86.0013 81.4882 86.0013Z" fill="#07BED1"/>
<path d="M74.5718 65.6765C74.1687 65.6765 73.8433 65.3506 73.8433 64.9468V61.0549C73.8433 60.6511 74.1687 60.3252 74.5718 60.3252C74.975 60.3252 75.3004 60.6511 75.3004 61.0549V64.9468C75.3004 65.3506 74.975 65.6765 74.5718 65.6765Z" fill="#07BED1"/>
<path d="M74.5718 96.3251C74.1687 96.3251 73.8433 95.9992 73.8433 95.5954V91.217C73.8433 90.8133 74.1687 90.4873 74.5718 90.4873C74.975 90.4873 75.3004 90.8133 75.3004 91.217V95.5954C75.3004 95.9992 74.975 96.3251 74.5718 96.3251Z" fill="#07BED1"/>
<path d="M61.4575 78.811H57.5718C57.1687 78.811 56.8433 78.4851 56.8433 78.0813C56.8433 77.6775 57.1687 77.3516 57.5718 77.3516H61.4575C61.8607 77.3516 62.1861 77.6775 62.1861 78.0813C62.1861 78.4851 61.8607 78.811 61.4575 78.811Z" fill="#07BED1"/>
<path d="M91.5718 78.811H87.6861C87.2829 78.811 86.9575 78.4851 86.9575 78.0813C86.9575 77.6775 87.2829 77.3516 87.6861 77.3516H91.5718C91.9749 77.3516 92.3004 77.6775 92.3004 78.0813C92.3004 78.4851 91.9749 78.811 91.5718 78.811Z" fill="#07BED1"/>
<path d="M185.023 165.892H166.857C166.454 165.892 166.129 165.566 166.129 165.162C166.129 164.758 166.454 164.432 166.857 164.432H185.023C185.587 164.432 186.043 163.975 186.043 163.411V97.8957C186.043 97.5649 185.776 97.2974 185.446 97.2974H172.2C171.797 97.2974 171.472 96.9714 171.472 96.5676C171.472 96.1638 171.797 95.8379 172.2 95.8379H185.446C186.577 95.8379 187.5 96.7622 187.5 97.8957V163.411C187.5 164.778 186.388 165.892 185.023 165.892Z" fill="#027DB3"/>
<path d="M144.514 97.2974H139.657C139.254 97.2974 138.929 96.9714 138.929 96.5676C138.929 96.1638 139.254 95.8379 139.657 95.8379H144.514C144.918 95.8379 145.243 96.1638 145.243 96.5676C145.243 96.9714 144.918 97.2974 144.514 97.2974Z" fill="#027DB3"/>
<path d="M170.743 101.189H161.811C161.461 101.189 161.16 100.94 161.097 100.595C160.912 99.6026 159.747 98.2161 158.28 98.2161C156.813 98.2161 155.647 99.6026 155.463 100.595C155.4 100.94 155.098 101.189 154.749 101.189H145.982C145.578 101.189 145.253 100.863 145.253 100.459V94.261C145.253 92.9864 146.288 91.9453 147.565 91.9453H169.286C170.496 91.9453 171.482 92.9329 171.482 94.1442V100.459C171.482 100.863 171.156 101.189 170.753 101.189H170.743ZM162.36 99.7291H170.015V94.1442C170.015 93.7356 169.684 93.4048 169.276 93.4048H147.555C147.084 93.4048 146.7 93.7891 146.7 94.261V99.7291H154.19C154.758 98.2015 156.376 96.7567 158.275 96.7567C160.174 96.7567 161.787 98.2015 162.36 99.7291Z" fill="#07BED1"/>
<path d="M162.486 121.622H157.143C156.74 121.622 156.415 121.296 156.415 120.892C156.415 120.488 156.74 120.162 157.143 120.162H162.486C162.889 120.162 163.215 120.488 163.215 120.892C163.215 121.296 162.889 121.622 162.486 121.622Z" fill="#027DB3"/>
<path d="M152.286 121.622H145.972C145.569 121.622 145.243 121.296 145.243 120.892C145.243 120.488 145.569 120.162 145.972 120.162H152.286C152.689 120.162 153.015 120.488 153.015 120.892C153.015 121.296 152.689 121.622 152.286 121.622Z" fill="#027DB3"/>
<path d="M162.486 111.405H143.543C143.14 111.405 142.814 111.079 142.814 110.675C142.814 110.271 143.14 109.945 143.543 109.945H162.486C162.889 109.945 163.214 110.271 163.214 110.675C163.214 111.079 162.889 111.405 162.486 111.405Z" fill="#027DB3"/>
<path d="M162.486 151.297H152.286C151.883 151.297 151.557 150.971 151.557 150.568C151.557 150.164 151.883 149.838 152.286 149.838H162.486C162.889 149.838 163.214 150.164 163.214 150.568C163.214 150.971 162.889 151.297 162.486 151.297Z" fill="#027DB3"/>
<path d="M162.486 134.756H152.286C151.883 134.756 151.557 134.43 151.557 134.027C151.557 133.623 151.883 133.297 152.286 133.297H162.486C162.889 133.297 163.214 133.623 163.214 134.027C163.214 134.43 162.889 134.756 162.486 134.756Z" fill="#027DB3"/>
<path d="M173.259 117.015C173.259 117.015 173.249 117.015 173.245 117.015C173.031 117.015 172.832 116.913 172.701 116.752L169.5 112.904C169.242 112.593 169.286 112.135 169.592 111.877C169.903 111.62 170.359 111.663 170.617 111.97L173.283 115.171L178.485 109.382C178.757 109.08 179.214 109.061 179.515 109.328C179.816 109.596 179.841 110.058 179.569 110.36L173.803 116.776C173.662 116.932 173.468 117.02 173.259 117.02V117.015Z" fill="#07BED1"/>
<path d="M173.259 134.98C173.259 134.98 173.249 134.98 173.245 134.98C173.031 134.98 172.832 134.878 172.701 134.718L169.5 130.87C169.242 130.558 169.286 130.101 169.592 129.843C169.903 129.585 170.359 129.629 170.617 129.936L173.283 133.137L178.485 127.348C178.757 127.046 179.214 127.026 179.515 127.294C179.816 127.562 179.841 128.024 179.569 128.325L173.803 134.742C173.662 134.898 173.468 134.985 173.259 134.985V134.98Z" fill="#07BED1"/>
<path d="M173.259 152.941C173.259 152.941 173.249 152.941 173.245 152.941C173.031 152.941 172.832 152.839 172.701 152.679L169.5 148.831C169.242 148.519 169.286 148.062 169.592 147.804C169.903 147.546 170.359 147.59 170.617 147.897L173.283 151.098L178.485 145.308C178.757 145.007 179.214 144.982 179.515 145.255C179.816 145.522 179.841 145.985 179.569 146.286L173.803 152.703C173.662 152.859 173.468 152.946 173.259 152.946V152.941Z" fill="#07BED1"/>
<path d="M164.914 92.9187C164.511 92.9187 164.186 92.5928 164.186 92.189V90.4912C164.186 89.6836 163.53 89.0268 162.724 89.0268H153.5C152.694 89.0268 152.038 89.6836 152.038 90.4912V92.189C152.038 92.5928 151.713 92.9187 151.31 92.9187C150.906 92.9187 150.581 92.5928 150.581 92.189V90.4912C150.581 88.8809 151.888 87.5674 153.5 87.5674H162.724C164.332 87.5674 165.643 88.876 165.643 90.4912V92.189C165.643 92.5928 165.318 92.9187 164.914 92.9187Z" fill="#07BED1"/>
<path d="M44.4572 8.75731H37.1714C36.7683 8.75731 36.4429 8.43137 36.4429 8.02758C36.4429 7.6238 36.7683 7.29785 37.1714 7.29785H44.4572C44.8603 7.29785 45.1857 7.6238 45.1857 8.02758C45.1857 8.43137 44.8603 8.75731 44.4572 8.75731Z" fill="#027DB3"/>
<path d="M59.5143 8.75731H52.2286C51.8254 8.75731 51.5 8.43137 51.5 8.02758C51.5 7.6238 51.8254 7.29785 52.2286 7.29785H59.5143C59.9174 7.29785 60.2429 7.6238 60.2429 8.02758C60.2429 8.43137 59.9174 8.75731 59.5143 8.75731Z" fill="#027DB3"/>
<path d="M87.686 42.3249C87.2828 42.3249 86.9574 41.9989 86.9574 41.5951V11.4379C86.9574 9.95893 85.5051 8.75731 83.7225 8.75731H68.2574C67.8542 8.75731 67.5288 8.43137 67.5288 8.02758C67.5288 7.6238 67.8542 7.29785 68.2574 7.29785H83.7225C86.3114 7.29785 88.4145 9.15623 88.4145 11.4379V41.5951C88.4145 41.9989 88.0891 42.3249 87.686 42.3249Z" fill="#027DB3"/>
<path d="M43.0002 75.4058H9.4859C9.08275 75.4058 8.75732 75.0798 8.75732 74.6761V11.9144C8.75732 9.63769 10.8605 7.78418 13.4396 7.78418H28.9145C29.3176 7.78418 29.643 8.11013 29.643 8.51391C29.643 8.91769 29.3176 9.24364 28.9145 9.24364H13.4396C11.6619 9.24364 10.2145 10.4404 10.2145 11.9144V73.9463H43.0002C43.4033 73.9463 43.7288 74.2723 43.7288 74.6761C43.7288 75.0798 43.4033 75.4058 43.0002 75.4058Z" fill="#027DB3"/>
<path d="M64.4639 11.6759H62.8222C61.1028 11.6759 59.7573 10.6299 59.7573 9.30182V4.81155C59.7573 3.47858 61.1028 2.4375 62.8222 2.4375H64.4639C66.1833 2.4375 67.5288 3.48345 67.5288 4.81155V9.30182C67.5288 10.6348 66.1833 11.6759 64.4639 11.6759ZM62.8222 3.89209C61.9042 3.89209 61.2145 4.37372 61.2145 4.80669V9.29696C61.2145 9.72993 61.9042 10.2116 62.8222 10.2116H64.4639C65.3819 10.2116 66.0716 9.72993 66.0716 9.29696V4.80669C66.0716 4.37372 65.3819 3.89209 64.4639 3.89209H62.8222Z" fill="#027DB3"/>
<path d="M33.8638 11.6759H32.2221C30.5027 11.6759 29.1572 10.6299 29.1572 9.30182V4.81155C29.1572 3.47858 30.5027 2.4375 32.2221 2.4375H33.8638C35.5832 2.4375 36.9287 3.48345 36.9287 4.81155V9.30182C36.9287 10.6348 35.5832 11.6759 33.8638 11.6759ZM32.2221 3.89209C31.3041 3.89209 30.6144 4.37372 30.6144 4.80669V9.29696C30.6144 9.72993 31.3041 10.2116 32.2221 10.2116H33.8638C34.7818 10.2116 35.4715 9.72993 35.4715 9.29696V4.80669C35.4715 4.37372 34.7818 3.89209 33.8638 3.89209H32.2221Z" fill="#027DB3"/>
<path d="M49.4068 11.6759H47.7651C46.0456 11.6759 44.7002 10.6299 44.7002 9.30182V4.81155C44.7002 3.47858 46.0456 2.4375 47.7651 2.4375H49.4068C51.1262 2.4375 52.4716 3.48345 52.4716 4.81155V9.30182C52.4716 10.6348 51.1262 11.6759 49.4068 11.6759ZM47.7651 3.89209C46.8471 3.89209 46.1573 4.37372 46.1573 4.80669V9.29696C46.1573 9.72993 46.8471 10.2116 47.7651 10.2116H49.4068C50.3248 10.2116 51.0145 9.72993 51.0145 9.29696V4.80669C51.0145 4.37372 50.3248 3.89209 49.4068 3.89209H47.7651Z" fill="#027DB3"/>
<path d="M32.0328 44.2707H20.4583C19.3654 44.2707 18.4766 43.3269 18.4766 42.1691V30.8047C18.4766 29.6469 19.3654 28.7031 20.4583 28.7031H32.0328C33.1257 28.7031 34.0146 29.6469 34.0146 30.8047V42.1691C34.0146 43.3269 33.1257 44.2707 32.0328 44.2707ZM20.4534 30.1626C20.162 30.1626 19.9288 30.4496 19.9288 30.8047V42.1691C19.9288 42.5242 20.1669 42.8112 20.4534 42.8112H32.028C32.3194 42.8112 32.5526 42.5242 32.5526 42.1691V30.8047C32.5526 30.4496 32.3146 30.1626 32.028 30.1626H20.4534Z" fill="#07BED1"/>
<path d="M32.0328 65.676H20.4583C19.3654 65.676 18.4766 64.7322 18.4766 63.5743V52.21C18.4766 51.0522 19.3654 50.1084 20.4583 50.1084H32.0328C33.1257 50.1084 34.0146 51.0522 34.0146 52.21V63.5743C34.0146 64.7322 33.1257 65.676 32.0328 65.676ZM20.4534 51.5679C20.162 51.5679 19.9288 51.8549 19.9288 52.21V63.5743C19.9288 63.9295 20.1669 64.2165 20.4534 64.2165H32.028C32.3194 64.2165 32.5526 63.9295 32.5526 63.5743V52.21C32.5526 51.8549 32.3146 51.5679 32.028 51.5679H20.4534Z" fill="#027DB3"/>
<path d="M54.8615 44.2707H43.2869C42.194 44.2707 41.3052 43.3269 41.3052 42.1691V30.8047C41.3052 29.6469 42.194 28.7031 43.2869 28.7031H54.8615C55.9543 28.7031 56.8432 29.6469 56.8432 30.8047V42.1691C56.8432 43.3269 55.9543 44.2707 54.8615 44.2707ZM43.282 30.1626C42.9906 30.1626 42.7575 30.4496 42.7575 30.8047V42.1691C42.7575 42.5242 42.9955 42.8112 43.282 42.8112H54.8566C55.148 42.8112 55.3812 42.5242 55.3812 42.1691V30.8047C55.3812 30.4496 55.1432 30.1626 54.8566 30.1626H43.282Z" fill="#027DB3"/>
<path d="M42.0289 64.2165C41.6257 64.2165 41.3003 63.8906 41.3003 63.4868V52.2149C41.3003 51.0522 42.194 50.1084 43.2869 50.1084H54.6574C55.0606 50.1084 55.386 50.4343 55.386 50.8381C55.386 51.2419 55.0606 51.5679 54.6574 51.5679H43.2869C42.9954 51.5679 42.7574 51.8598 42.7574 52.2149V63.4868C42.7574 63.8906 42.432 64.2165 42.0289 64.2165Z" fill="#027DB3"/>
<path d="M64.8575 42.8112C64.4543 42.8112 64.1289 42.4853 64.1289 42.0815V30.8096C64.1289 29.6469 65.0226 28.7031 66.1155 28.7031H77.486C77.8892 28.7031 78.2146 29.0291 78.2146 29.4329C78.2146 29.8366 77.8892 30.1626 77.486 30.1626H66.1155C65.824 30.1626 65.586 30.4545 65.586 30.8096V42.0815C65.586 42.4853 65.2606 42.8112 64.8575 42.8112Z" fill="#027DB3"/>
<path d="M80.376 21.4057H79.3074C78.9043 21.4057 78.5788 21.0798 78.5788 20.676C78.5788 20.2722 78.9043 19.9463 79.3074 19.9463H80.376C80.7791 19.9463 81.1045 20.2722 81.1045 20.676C81.1045 21.0798 80.7791 21.4057 80.376 21.4057ZM75.752 21.4057H74.6834C74.2803 21.4057 73.9548 21.0798 73.9548 20.676C73.9548 20.2722 74.2803 19.9463 74.6834 19.9463H75.752C76.1551 19.9463 76.4805 20.2722 76.4805 20.676C76.4805 21.0798 76.1551 21.4057 75.752 21.4057ZM71.128 21.4057H70.0594C69.6563 21.4057 69.3308 21.0798 69.3308 20.676C69.3308 20.2722 69.6563 19.9463 70.0594 19.9463H71.128C71.5311 19.9463 71.8565 20.2722 71.8565 20.676C71.8565 21.0798 71.5311 21.4057 71.128 21.4057ZM66.504 21.4057H65.4354C65.0323 21.4057 64.7068 21.0798 64.7068 20.676C64.7068 20.2722 65.0323 19.9463 65.4354 19.9463H66.504C66.9071 19.9463 67.2325 20.2722 67.2325 20.676C67.2325 21.0798 66.9071 21.4057 66.504 21.4057ZM61.88 21.4057H60.8114C60.4082 21.4057 60.0828 21.0798 60.0828 20.676C60.0828 20.2722 60.4082 19.9463 60.8114 19.9463H61.88C62.2831 19.9463 62.6085 20.2722 62.6085 20.676C62.6085 21.0798 62.2831 21.4057 61.88 21.4057ZM57.256 21.4057H56.1874C55.7843 21.4057 55.4588 21.0798 55.4588 20.676C55.4588 20.2722 55.7843 19.9463 56.1874 19.9463H57.256C57.6591 19.9463 57.9845 20.2722 57.9845 20.676C57.9845 21.0798 57.6591 21.4057 57.256 21.4057ZM52.632 21.4057H51.5634C51.1603 21.4057 50.8348 21.0798 50.8348 20.676C50.8348 20.2722 51.1603 19.9463 51.5634 19.9463H52.632C53.0351 19.9463 53.3605 20.2722 53.3605 20.676C53.3605 21.0798 53.0351 21.4057 52.632 21.4057ZM48.008 21.4057H46.9394C46.5363 21.4057 46.2108 21.0798 46.2108 20.676C46.2108 20.2722 46.5363 19.9463 46.9394 19.9463H48.008C48.4111 19.9463 48.7365 20.2722 48.7365 20.676C48.7365 21.0798 48.4111 21.4057 48.008 21.4057ZM43.384 21.4057H42.3154C41.9122 21.4057 41.5868 21.0798 41.5868 20.676C41.5868 20.2722 41.9122 19.9463 42.3154 19.9463H43.384C43.7871 19.9463 44.1125 20.2722 44.1125 20.676C44.1125 21.0798 43.7871 21.4057 43.384 21.4057ZM38.76 21.4057H37.6914C37.2883 21.4057 36.9628 21.0798 36.9628 20.676C36.9628 20.2722 37.2883 19.9463 37.6914 19.9463H38.76C39.1631 19.9463 39.4885 20.2722 39.4885 20.676C39.4885 21.0798 39.1631 21.4057 38.76 21.4057ZM34.136 21.4057H33.0674C32.6643 21.4057 32.3388 21.0798 32.3388 20.676C32.3388 20.2722 32.6643 19.9463 33.0674 19.9463H34.136C34.5391 19.9463 34.8645 20.2722 34.8645 20.676C34.8645 21.0798 34.5391 21.4057 34.136 21.4057ZM29.5168 21.4057H28.4483C28.0451 21.4057 27.7197 21.0798 27.7197 20.676C27.7197 20.2722 28.0451 19.9463 28.4483 19.9463H29.5168C29.92 19.9463 30.2454 20.2722 30.2454 20.676C30.2454 21.0798 29.92 21.4057 29.5168 21.4057ZM24.8928 21.4057H23.8243C23.4211 21.4057 23.0957 21.0798 23.0957 20.676C23.0957 20.2722 23.4211 19.9463 23.8243 19.9463H24.8928C25.296 19.9463 25.6214 20.2722 25.6214 20.676C25.6214 21.0798 25.296 21.4057 24.8928 21.4057ZM20.2688 21.4057H19.2003C18.7971 21.4057 18.4717 21.0798 18.4717 20.676C18.4717 20.2722 18.7971 19.9463 19.2003 19.9463H20.2688C20.672 19.9463 20.9974 20.2722 20.9974 20.676C20.9974 21.0798 20.672 21.4057 20.2688 21.4057Z" fill="#027DB3"/>
<path d="M153.874 84.2353C153.495 84.2353 153.18 83.9434 153.151 83.559C152.048 68.7845 138.346 62.6012 133.343 62.3288C131.522 67.7045 126.295 69.6261 122.274 69.6261C118.252 69.6261 113.031 67.7045 111.209 62.3288C109.762 62.4115 107.314 63.0099 104.429 64.5082C104.069 64.6931 103.632 64.552 103.447 64.1969C103.263 63.8369 103.404 63.3991 103.758 63.2142C106.687 61.6963 109.757 60.7915 111.768 60.8645C112.083 60.8742 112.355 61.0882 112.443 61.3947C114.284 67.8407 120.957 68.1715 122.274 68.1715C123.59 68.1715 130.269 67.8455 132.105 61.3947C132.192 61.0931 132.464 60.879 132.78 60.8645C137.608 60.699 153.379 67.1645 154.598 83.452C154.627 83.8558 154.326 84.2061 153.928 84.2353C153.908 84.2353 153.889 84.2353 153.874 84.2353Z" fill="#027DB3"/>
<path d="M169.888 19.0804C169.738 19.0804 169.587 19.0317 169.461 18.9393C169.237 18.7788 169.126 18.5063 169.169 18.2339L169.699 14.9598L167.348 12.6247C167.154 12.4301 167.086 12.1431 167.168 11.8804C167.251 11.6177 167.479 11.428 167.751 11.3842L171.025 10.8782L172.516 7.91552C172.637 7.66741 172.89 7.5166 173.167 7.5166C173.444 7.5166 173.691 7.67228 173.818 7.91552L175.309 10.8782L178.583 11.3842C178.855 11.428 179.078 11.6177 179.165 11.8804C179.248 12.1431 179.18 12.4301 178.986 12.6247L176.635 14.9598L177.164 18.2339C177.208 18.5063 177.096 18.7788 176.873 18.9393C176.649 19.0998 176.353 19.1242 176.11 18.9977L173.162 17.4798L170.219 18.9977C170.112 19.0512 170 19.0804 169.883 19.0804H169.888ZM173.167 15.9328C173.283 15.9328 173.395 15.962 173.502 16.0155L175.498 17.042L175.139 14.8236C175.1 14.5901 175.178 14.3566 175.343 14.1912L176.936 12.6052L174.716 12.2598C174.483 12.2258 174.284 12.0798 174.177 11.8658L173.167 9.86147L172.157 11.8658C172.05 12.075 171.851 12.2209 171.617 12.2598L169.398 12.6052L170.991 14.1912C171.156 14.3566 171.234 14.595 171.195 14.8236L170.835 17.042L172.832 16.0155C172.934 15.962 173.05 15.9328 173.167 15.9328Z" fill="#07BED1"/>
<path d="M154.297 30.5413C154.185 30.5413 154.069 30.517 153.962 30.4586L151.018 28.9408L148.07 30.4586C147.827 30.5851 147.531 30.5608 147.308 30.4002C147.084 30.2397 146.972 29.9673 147.016 29.6948L147.546 26.4208L145.195 24.0856C145 23.8911 144.932 23.604 145.015 23.3413C145.098 23.0786 145.326 22.8889 145.598 22.8451L148.872 22.3392L150.363 19.3765C150.484 19.1284 150.737 18.9775 151.014 18.9775C151.29 18.9775 151.538 19.1332 151.664 19.3765L153.156 22.3392L156.429 22.8451C156.701 22.8889 156.925 23.0786 157.012 23.3413C157.095 23.604 157.027 23.8911 156.832 24.0856L154.482 26.4208L155.011 29.6948C155.055 29.9673 154.943 30.2397 154.72 30.4002C154.593 30.4927 154.443 30.5413 154.292 30.5413H154.297ZM147.254 24.0662L148.847 25.6521C149.012 25.8175 149.09 26.0559 149.051 26.2846L148.692 28.5029L150.688 27.4765C150.897 27.3694 151.145 27.3694 151.354 27.4765L153.35 28.5029L152.99 26.2846C152.952 26.0511 153.029 25.8175 153.194 25.6521L154.788 24.0662L152.568 23.7208C152.335 23.6867 152.136 23.5408 152.029 23.3267L151.018 21.3224L150.008 23.3267C149.901 23.5359 149.702 23.6819 149.469 23.7208L147.249 24.0662H147.254Z" fill="#07BED1"/>
<path d="M146.661 19.1819C146.55 19.1819 146.433 19.1576 146.326 19.0992L143.383 17.5814L140.434 19.0992C140.191 19.2257 139.895 19.2014 139.672 19.0409C139.448 18.8803 139.337 18.6079 139.38 18.3355L139.91 15.0614L137.559 12.7263C137.365 12.5317 137.297 12.2446 137.379 11.9819C137.462 11.7192 137.69 11.5295 137.962 11.4857L141.236 10.9798L142.727 8.01708C142.848 7.76897 143.101 7.61816 143.378 7.61816C143.655 7.61816 143.902 7.77384 144.029 8.01708L145.52 10.9798L148.793 11.4857C149.065 11.5295 149.289 11.7192 149.376 11.9819C149.459 12.2446 149.391 12.5317 149.197 12.7263L146.846 15.0614L147.375 18.3355C147.419 18.6079 147.307 18.8803 147.084 19.0409C146.957 19.1333 146.807 19.1819 146.656 19.1819H146.661ZM139.613 12.7019L141.207 14.2879C141.372 14.4533 141.449 14.6917 141.411 14.9203L141.051 17.1387L143.047 16.1122C143.256 16.0052 143.504 16.0052 143.713 16.1122L145.709 17.1387L145.35 14.9203C145.311 14.6868 145.389 14.4533 145.554 14.2879L147.147 12.7019L144.927 12.3565C144.694 12.3225 144.495 12.1765 144.388 11.9625L143.378 9.95816L142.367 11.9625C142.261 12.1717 142.061 12.3176 141.828 12.3565L139.609 12.7019H139.613Z" fill="#07BED1"/>
<path d="M155.074 19.1819C154.923 19.1819 154.773 19.1333 154.646 19.0409C154.423 18.8803 154.311 18.6079 154.355 18.3355L154.884 15.0614L152.534 12.7263C152.339 12.5317 152.271 12.2446 152.354 11.9819C152.436 11.7192 152.665 11.5295 152.937 11.4857L156.21 10.9798L157.702 8.01708C157.823 7.76897 158.076 7.61816 158.352 7.61816C158.629 7.61816 158.877 7.77384 159.003 8.01708L160.494 10.9798L163.768 11.4857C164.04 11.5295 164.264 11.7192 164.351 11.9819C164.434 12.2446 164.366 12.5317 164.171 12.7263L161.82 15.0614L162.35 18.3355C162.394 18.6079 162.282 18.8803 162.058 19.0409C161.835 19.2014 161.539 19.2257 161.296 19.0992L158.348 17.5814L155.404 19.0992C155.297 19.1528 155.186 19.1819 155.069 19.1819H155.074ZM158.352 16.0344C158.469 16.0344 158.581 16.0636 158.688 16.1171L160.684 17.1436L160.324 14.9252C160.286 14.6917 160.363 14.4582 160.528 14.2928L162.122 12.7068L159.902 12.3614C159.669 12.3274 159.47 12.1814 159.363 11.9674L158.352 9.96303L157.342 11.9674C157.235 12.1765 157.036 12.3225 156.803 12.3614L154.583 12.7068L156.176 14.2928C156.342 14.4582 156.419 14.6965 156.38 14.9252L156.021 17.1436L158.017 16.1171C158.119 16.0636 158.236 16.0344 158.352 16.0344Z" fill="#07BED1"/>
<path d="M162.714 30.5413C162.564 30.5413 162.413 30.4927 162.287 30.4002C162.064 30.2397 161.952 29.9673 161.996 29.6948L162.525 26.4208L160.174 24.0856C159.98 23.8911 159.912 23.604 159.994 23.3413C160.077 23.0786 160.305 22.8889 160.577 22.8451L163.851 22.3392L165.342 19.3765C165.464 19.1284 165.716 18.9775 165.993 18.9775C166.27 18.9775 166.518 19.1332 166.644 19.3765L168.135 22.3392L171.409 22.8451C171.681 22.8889 171.904 23.0786 171.992 23.3413C172.074 23.604 172.006 23.8911 171.812 24.0856L169.461 26.4208L169.99 29.6948C170.034 29.9673 169.922 30.2397 169.699 30.4002C169.476 30.5608 169.179 30.5851 168.936 30.4586L165.988 28.9408L163.045 30.4586C162.938 30.5121 162.826 30.5413 162.71 30.5413H162.714ZM165.993 27.3938C166.11 27.3938 166.221 27.4229 166.328 27.4765L168.324 28.5029L167.965 26.2846C167.926 26.0511 168.004 25.8175 168.169 25.6521L169.762 24.0662L167.542 23.7208C167.309 23.6867 167.11 23.5408 167.003 23.3267L165.993 21.3224L164.983 23.3267C164.876 23.5359 164.677 23.6819 164.444 23.7208L162.224 24.0662L163.817 25.6521C163.982 25.8175 164.06 26.0559 164.021 26.2846L163.662 28.5029L165.658 27.4765C165.76 27.4229 165.876 27.3938 165.993 27.3938Z" fill="#07BED1"/>
<path d="M111.875 55.6981C111.743 55.6981 111.607 55.6641 111.486 55.5862C111.365 55.5084 99.4451 47.7976 100.99 33.0911C101.582 27.4576 104.283 21.4543 110.082 21.1089C112.239 15.3781 122.05 13.3398 129.423 15.4462C134.859 17.003 141.649 21.9116 142.892 30.6343C144.179 39.6587 141.566 45.7495 139.143 49.2716C136.505 53.11 133.576 54.7787 133.45 54.8468C133.1 55.0462 132.653 54.9198 132.459 54.5646C132.265 54.2143 132.386 53.7716 132.736 53.5722C133.188 53.3192 143.771 47.1311 141.445 30.8387C140.299 22.8116 134.038 18.2825 129.02 16.8473C122.22 14.9014 112.807 16.7743 111.311 22.0187C111.224 22.33 110.937 22.5489 110.612 22.5489C105.41 22.5489 102.981 28.0706 102.437 33.2419C100.99 47.0289 112.151 54.2776 112.263 54.3506C112.603 54.5646 112.705 55.017 112.491 55.3576C112.351 55.5765 112.117 55.6981 111.875 55.6981Z" fill="#027DB3"/>
<path d="M108.086 43.5499C107.702 43.5499 107.377 43.2483 107.357 42.8591C107.338 42.4553 107.644 42.1148 108.047 42.0905C108.086 42.0905 110.145 41.9397 112.987 40.3002C115.814 38.6705 118.534 33.1148 118.558 33.0613C118.689 32.7937 118.966 32.6332 119.257 32.6526C119.554 32.6721 119.806 32.8667 119.903 33.144C120.457 34.7543 121.22 36.3548 121.632 36.8072C127.869 33.6207 130.298 29.6851 130.322 29.6462C130.453 29.4272 130.691 29.291 130.944 29.291C131.91 29.291 133.97 31.0521 138.292 39.444C138.477 39.804 138.336 40.2418 137.977 40.4267C137.622 40.6116 137.18 40.4705 136.996 40.1105C134.99 36.2137 132.352 31.9132 131.196 30.9353C130.268 32.2099 127.519 35.484 122.05 38.2229C121.778 38.3591 121.467 38.3689 121.176 38.2472C120.413 37.9359 119.66 36.5007 119.097 35.1386C118.024 37.031 115.964 40.2564 113.71 41.5553C110.524 43.3943 108.217 43.5353 108.12 43.5402C108.105 43.5402 108.096 43.5402 108.081 43.5402L108.086 43.5499Z" fill="#027DB3"/>
<path d="M121.934 60.1783C114.425 60.1783 107.911 53.1242 106.454 43.4042C106.396 43.0053 106.668 42.6356 107.066 42.5723C107.464 42.5139 107.834 42.7864 107.897 43.1853C109.247 52.1853 115.153 58.7188 121.939 58.7188C128.724 58.7188 134.626 52.1853 135.981 43.1853C136.039 42.7864 136.408 42.5139 136.811 42.5723C137.21 42.6307 137.482 43.0053 137.423 43.4042C135.961 53.1242 129.453 60.1783 121.944 60.1783H121.934Z" fill="#027DB3"/>
<path d="M117.315 43.7837H114.4C113.997 43.7837 113.672 43.4577 113.672 43.0539C113.672 42.6502 113.997 42.3242 114.4 42.3242H117.315C117.718 42.3242 118.043 42.6502 118.043 43.0539C118.043 43.4577 117.718 43.7837 117.315 43.7837Z" fill="#027DB3"/>
<path d="M129.457 43.7837H126.543C126.14 43.7837 125.814 43.4577 125.814 43.0539C125.814 42.6502 126.14 42.3242 126.543 42.3242H129.457C129.86 42.3242 130.186 42.6502 130.186 43.0539C130.186 43.4577 129.86 43.7837 129.457 43.7837Z" fill="#027DB3"/>
<path d="M121.934 54.2824C120.472 54.2824 118.981 53.7375 117.621 52.7013C117.3 52.4581 117.237 52.0008 117.48 51.6797C117.723 51.3586 118.179 51.2954 118.5 51.5386C120.744 53.2413 123.129 53.2413 125.373 51.5386C125.693 51.2954 126.15 51.3586 126.393 51.6797C126.635 52.0008 126.572 52.4581 126.252 52.7013C124.892 53.7327 123.401 54.2824 121.934 54.2824Z" fill="#027DB3"/>
<path d="M186.286 70.5405H155.686C155.283 70.5405 154.957 70.2146 154.957 69.8108C154.957 69.407 155.283 69.0811 155.686 69.0811H185.557V1.45946H131.157V10.4595C131.157 10.8632 130.832 11.1892 130.429 11.1892C130.026 11.1892 129.7 10.8632 129.7 10.4595V0.72973C129.7 0.325946 130.026 0 130.429 0H186.286C186.689 0 187.014 0.325946 187.014 0.72973V69.8108C187.014 70.2146 186.689 70.5405 186.286 70.5405Z" fill="#027DB3"/>
<path d="M174.143 41.8374H148.4C147.997 41.8374 147.672 41.5114 147.672 41.1077C147.672 40.7039 147.997 40.3779 148.4 40.3779H174.143C174.546 40.3779 174.872 40.7039 174.872 41.1077C174.872 41.5114 174.546 41.8374 174.143 41.8374Z" fill="#027DB3"/>
<path d="M174.143 51.5679H148.4C147.997 51.5679 147.672 51.2419 147.672 50.8381C147.672 50.4343 147.997 50.1084 148.4 50.1084H174.143C174.546 50.1084 174.872 50.4343 174.872 50.8381C174.872 51.2419 174.546 51.5679 174.143 51.5679Z" fill="#027DB3"/>
</g>
</svg>
