<svg width="216" height="216" viewBox="0 0 216 216" fill="none" xmlns="http://www.w3.org/2000/svg">
<path d="M206.66 140.55C205.36 134.06 200.14 128.91 193.69 127.67C190.28 126.99 186.3 127.51 183.08 129.1V49.9C183.08 40.56 175.43 32.94 166.05 32.94H158.72C159.86 30.67 160.44 28.14 160.44 25.55C160.44 20.59 158.27 15.95 154.41 12.77C150.55 9.61999 145.49 8.38999 140.5 9.35999C134.08 10.62 128.92 15.85 127.66 22.37C126.95 26.07 127.53 29.73 129.12 32.94H49.91C40.54 32.94 32.92 40.56 32.92 49.9V57.29C30.65 56.15 28.12 55.54 25.56 55.54C20.57 55.54 15.9 57.75 12.75 61.6C9.57004 65.46 8.34004 70.55 9.34004 75.51C10.64 81.96 15.86 87.12 22.31 88.35C25.78 89.03 29.7 88.54 32.92 86.92V166.09C32.92 175.43 40.54 183.08 49.91 183.08H57.24C56.14 185.32 55.52 187.82 55.52 190.44C55.52 195.43 57.73 200.07 61.58 203.25C64.56 205.68 68.26 206.98 72.09 206.98C73.23 206.98 74.36 206.88 75.46 206.66C81.91 205.36 87.1 200.14 88.34 193.62C89.02 189.96 88.47 186.26 86.88 183.08H107.96L107.99 183.05H166.04C175.41 183.05 183.07 175.46 183.07 166.09V158.73C185.34 159.83 187.87 160.45 190.43 160.45C195.42 160.45 200.09 158.24 203.27 154.39C206.42 150.53 207.65 145.5 206.64 140.54L206.66 140.55ZM111.21 39.42H135.92C137.7 39.42 139.16 37.96 139.16 36.18C139.16 35.73 139.03 35.34 138.9 34.95C138.87 34.95 138.87 34.92 138.84 34.89C138.71 34.53 138.48 34.21 138.22 33.92C138.19 33.89 138.16 33.86 138.12 33.86C137.99 33.73 137.86 33.6 137.73 33.5C134.71 31.17 133.29 27.37 134 23.61C134.78 19.65 137.89 16.51 141.75 15.73C144.86 15.11 147.91 15.86 150.28 17.81C152.62 19.72 153.94 22.55 153.94 25.56C153.94 28.74 152.48 31.72 149.98 33.6C148.84 34.44 148.39 35.87 148.84 37.2C149.26 38.53 150.53 39.44 151.92 39.44H166.03C171.84 39.44 176.57 44.14 176.57 49.92V104.83H158.93C158.31 92.6 153.42 80.6 144.11 71.3C134.96 62.15 123.19 57.26 111.19 56.51V39.45L111.21 39.42ZM37.2 77.04C35.87 76.59 34.44 77.04 33.6 78.14C31.2 81.25 27.21 82.71 23.55 82C19.69 81.25 16.48 78.08 15.7 74.22C15.08 71.14 15.8 68.12 17.78 65.72C19.69 63.39 22.55 62.02 25.56 62.02C28.57 62.02 31.72 63.51 33.57 66.01C34.41 67.11 35.87 67.6 37.2 67.15C38.53 66.7 39.41 65.46 39.41 64.07V49.9C39.41 44.13 44.11 39.42 49.92 39.42H104.73V56.48C92.73 57.23 80.96 62.12 71.81 71.27C62.53 80.58 57.64 92.58 56.99 104.8H39.41V80.12C39.41 78.73 38.53 77.46 37.2 77.04ZM104.72 176.61H80.3C79.39 176.51 78.48 176.87 77.77 177.55C76.86 178.49 76.57 179.88 77.09 181.08C77.35 181.73 77.8 182.25 78.35 182.6C81.3 184.93 82.66 188.7 81.95 192.43C81.2 196.35 78.09 199.53 74.2 200.31C71.09 200.93 68.07 200.18 65.7 198.23C63.36 196.32 62 193.46 62 190.45C62 187.44 63.39 184.48 65.83 182.54C66.28 182.25 66.67 181.79 66.97 181.28C67.49 180.18 67.39 178.88 66.65 177.87C66.13 177.19 65.35 176.73 64.51 176.61C64.25 176.58 64.02 176.58 63.76 176.61H49.91C44.1 176.61 39.4 171.88 39.4 166.1V111.29H57.04C57.92 123.06 62.81 134.61 71.8 143.59C80.95 152.74 92.72 157.63 104.72 158.38V176.61ZM107.97 152.06C96.52 152.06 85.11 147.71 76.41 138.99C67.88 130.46 63.53 119.3 63.37 108.08L63.4 108.05L63.37 107.99C63.24 96.38 67.55 84.7 76.41 75.85C85.1 67.16 96.55 62.81 107.97 62.81C119.39 62.81 130.83 67.16 139.56 75.85C147.99 84.31 152.63 95.5 152.63 107.44C152.63 107.6 152.6 107.76 152.6 107.93C152.6 107.96 152.57 107.99 152.57 108.06C152.57 108.09 152.6 108.09 152.6 108.12C152.41 119.8 147.83 130.73 139.56 139C130.84 147.72 119.42 152.07 107.97 152.07V152.06ZM198.26 150.28C196.31 152.62 193.49 153.98 190.44 153.98C187.39 153.98 184.28 152.49 182.43 149.99C181.59 148.89 180.13 148.43 178.8 148.89C177.47 149.31 176.59 150.54 176.59 151.94V166.11C176.59 171.88 171.85 176.59 166.05 176.59H111.21V158.4C123.21 157.65 134.98 152.76 144.13 143.61C153.11 134.63 158.01 123.08 158.92 111.31H176.6V135.96C176.6 137.35 177.48 138.59 178.81 139.01C180.11 139.46 181.57 139.04 182.41 137.91C184.39 135.35 187.31 133.89 190.45 133.89C191.16 133.89 191.81 133.95 192.46 134.08C196.32 134.79 199.53 138 200.31 141.83C200.93 144.91 200.21 147.93 198.27 150.29L198.26 150.28Z" fill="#027DB3"/>
<path d="M141.21 94.52L109.49 77.69C108.55 77.2 107.41 77.2 106.44 77.69L74.7498 94.52C73.6798 95.07 73.0298 96.17 73.0298 97.37C73.0298 98.57 73.6798 99.67 74.7498 100.22L83.7698 105.02V127.85C83.7698 129.67 85.2298 131.09 87.0098 131.09H128.94C130.72 131.09 132.18 129.66 132.18 127.85V105.02L141.2 100.22C142.24 99.67 142.92 98.57 142.92 97.37C142.92 96.17 142.24 95.07 141.2 94.52H141.21ZM125.71 124.62H90.2598V108.47L106.44 117.06C106.93 117.32 107.45 117.45 107.96 117.45C108.47 117.45 109 117.32 109.48 117.06L125.7 108.47V124.62H125.71ZM107.97 110.51L83.1898 97.38L107.97 84.25L132.75 97.38L107.97 110.51Z" fill="#027DB3"/>
</svg>
