<svg width="216" height="216" viewBox="0 0 216 216" fill="none" xmlns="http://www.w3.org/2000/svg">
<path d="M170.56 36.98V86.61C170.56 88.07 169.39 89.27 167.9 89.27C166.41 89.27 165.24 88.07 165.24 86.61V36.98C165.24 34.27 163.03 32.06 160.32 32.06H46.23C43.52 32.06 41.31 34.27 41.31 36.98V178.79C41.31 181.5 43.52 183.68 46.23 183.68H160.32C163.03 183.68 165.24 181.5 165.24 178.79V139.4C165.24 137.94 166.44 136.74 167.9 136.74C169.36 136.74 170.56 137.94 170.56 139.4V178.79C170.56 184.43 165.99 189 160.33 189H46.23C40.59 189 36 184.43 36 178.79V36.98C36 31.32 40.6 26.75 46.23 26.75H160.32C165.98 26.75 170.55 31.32 170.55 36.98H170.56Z" fill="#027DB3"/>
<path d="M101.21 41.87C86.7798 41.87 75.0298 53.59 75.0298 68.03C75.0298 82.47 86.7798 94.21 101.21 94.21C115.64 94.21 127.39 82.46 127.39 68.03C127.39 53.6 115.64 41.87 101.21 41.87ZM101.21 88.89C89.6998 88.89 80.3398 79.53 80.3398 68.02C80.3398 56.51 89.6998 47.18 101.21 47.18C112.72 47.18 122.08 56.54 122.08 68.02C122.08 79.5 112.72 88.89 101.21 88.89Z" fill="#027DB3"/>
<path d="M142.93 105.49C142.93 104.02 141.74 102.83 140.27 102.83H62.1502C60.6802 102.83 59.4902 104.02 59.4902 105.49C59.4902 106.96 60.6802 108.15 62.1502 108.15H140.28C141.75 108.15 142.94 106.96 142.94 105.49H142.93Z" fill="#027DB3"/>
<path d="M62.1502 126.77H77.7002C79.1702 126.77 80.3602 125.58 80.3602 124.11C80.3602 122.64 79.1702 121.45 77.7002 121.45H62.1502C60.6802 121.45 59.4902 122.64 59.4902 124.11C59.4902 125.58 60.6802 126.77 62.1502 126.77Z" fill="#027DB3"/>
<path d="M129.6 124.11C129.6 122.64 128.41 121.45 126.94 121.45H89.12C87.65 121.45 86.46 122.64 86.46 124.11C86.46 125.58 87.65 126.77 89.12 126.77H126.94C128.41 126.77 129.6 125.58 129.6 124.11Z" fill="#027DB3"/>
<path d="M110.69 142.73C110.69 141.26 109.5 140.07 108.03 140.07H62.14C60.67 140.07 59.48 141.26 59.48 142.73C59.48 144.2 60.67 145.39 62.14 145.39H108.03C109.5 145.39 110.69 144.2 110.69 142.73Z" fill="#027DB3"/>
<path d="M100.27 166.37C100.02 166.46 93.9 168.62 86.19 164.31C70.89 155.77 60.82 164.26 60.4 164.62C59.3 165.58 59.18 167.24 60.13 168.35C61.08 169.46 62.75 169.59 63.87 168.65C64.18 168.39 71.68 162.29 83.6 168.95C88.31 171.58 92.63 172.29 95.92 172.29C99.59 172.29 101.97 171.41 102.16 171.34C103.52 170.82 104.2 169.3 103.69 167.93C103.18 166.56 101.65 165.86 100.28 166.37H100.27Z" fill="#027DB3"/>
<path d="M120.83 162.67L141.1 154.01H141.13C141.42 153.89 141.68 153.7 141.91 153.47L194.56 100.82C198.41 96.97 199.12 91.65 196.17 88.71L191.56 84.1C188.61 81.15 183.3 81.86 179.45 85.71L126.8 138.36C126.57 138.59 126.4 138.86 126.26 139.14V139.17L117.6 159.44C117.2 160.36 117.43 161.42 118.14 162.13C118.85 162.84 119.91 163.07 120.83 162.67ZM180.85 91.25L182.93 89.17C184.84 87.26 187.28 86.73 188.11 87.56L192.72 92.17C193.45 92.9 193.17 95.29 191.11 97.35L189.03 99.43L180.85 91.25ZM132.01 140.09L177.39 94.71L185.57 102.89L140.19 148.27L132.01 140.09ZM129.38 144.39L135.89 150.9L124.52 155.75L129.37 144.38L129.38 144.39Z" fill="#027DB3"/>
<path d="M107.13 60.9199V70.0299C107.13 72.4899 103.5 72.5099 103.5 70.0299V61.6799C103.5 60.9899 103.39 60.4999 103.17 60.1999C102.95 59.8999 102.51 59.7499 101.86 59.7499H95.3598C94.3298 59.7499 93.4998 60.6799 93.4998 61.8299V76.4199C93.4998 77.5699 92.6698 78.4999 91.6398 78.4999C90.6098 78.4999 89.7798 77.5699 89.7798 76.4199V58.0199C89.7798 56.8699 90.6098 55.9399 91.6398 55.9399H103.2C104.52 55.9399 105.51 56.3299 106.16 57.1199C106.81 57.9099 107.13 59.1699 107.13 60.8999V60.9199ZM114.11 57.1299V72.9199C114.11 74.7699 113.73 76.1699 112.96 77.1099C112.19 78.0499 111.17 78.5199 109.87 78.5199H98.6298C97.5998 78.5199 96.7698 77.5899 96.7698 76.4399V65.4299C96.7698 64.2799 97.5998 63.3499 98.6298 63.3499C99.6598 63.3499 100.49 64.2799 100.49 65.4299V72.6799C100.49 73.8299 101.32 74.7599 102.35 74.7599H108.85C109.5 74.7599 109.92 74.6199 110.12 74.3299C110.32 74.0499 110.42 73.5599 110.42 72.8799V57.1299C110.42 54.7999 114.09 54.8299 114.09 57.1299H114.11Z" fill="#027DB3"/>
<path d="M120.388 53.6459L81.3374 78.9089L83.5047 82.259L122.555 56.996L120.388 53.6459Z" fill="#027DB3"/>
</svg>
