<svg width="32" height="32" viewBox="0 0 32 32" fill="none" xmlns="http://www.w3.org/2000/svg">
<path d="M12.6724 7.94189C12.2823 8.08765 11.8641 8.22586 11.4214 8.34971C11.8641 8.22586 12.2823 8.08539 12.6724 7.94189Z" fill="#B9DDFF"/>
<path d="M28.8851 6.41889C21.6616 7.24661 16.0004 3 16.0004 3C16.0004 3 10.3392 7.24661 3.11488 6.41889C3.11488 6.41889 0.892245 25.7201 15.9996 29C31.1078 25.7201 28.8851 6.41889 28.8851 6.41889ZM24.0086 21.7129C23.1005 23.0859 21.9243 24.2655 20.5491 25.1826C19.1739 26.0996 17.6274 26.7355 16.0004 27.053C3.15305 24.267 5.04137 7.85079 5.04137 7.85079C5.89999 7.94856 6.76587 7.96802 7.62809 7.90894C10.634 7.66651 13.522 6.64348 16.0004 4.94318C19.1977 7.14985 23.0752 8.17862 26.9594 7.85079C26.9594 7.85079 27.8883 15.9286 24.0086 21.7129Z" fill="#B9DDFF"/>
<path d="M16.0005 4.94336C13.522 6.64339 10.634 7.66616 7.62821 7.90836C6.76601 7.96769 5.90013 7.94848 5.04149 7.85096C5.04149 7.85096 3.15164 24.2672 16.0005 27.0525C17.6275 26.735 19.174 26.099 20.5492 25.182C21.9244 24.2649 23.1006 23.0853 24.0087 21.7123C27.8892 15.9273 26.9595 7.84945 26.9595 7.84945C23.0755 8.17772 19.198 7.14949 16.0005 4.94336ZM23.005 21.1678C21.3785 23.5602 18.8596 25.2169 16.0005 25.7746V25.508V13.9403V6.22044C18.8286 8.17222 22.2584 9.08208 25.694 8.79197C25.694 8.79197 26.5275 16.0444 23.005 21.1678Z" fill="#0062C7"/>
<path d="M16.0005 4.9248V13.6672V26.7696V27.0717C19.2387 26.4398 22.0914 24.5631 23.9331 21.8531C27.922 16.0507 26.9778 7.83769 26.9778 7.83769C23.0871 8.16598 19.2031 7.13534 16.0005 4.9248Z" fill="#4BAAFC"/>
<g style="mix-blend-mode:multiply" opacity="0.82">
<path d="M20.2129 13.8195H20.1938V12.6414C20.1938 10.3062 18.4604 8.39551 16.3423 8.39551C14.2243 8.39551 12.4901 10.3062 12.4901 12.6414V13.8195H12.471C12.2097 13.8209 11.9595 13.9242 11.7747 14.1071C11.59 14.2899 11.4855 14.5375 11.4841 14.796V20.9133C11.4855 21.1719 11.59 21.4194 11.7747 21.6023C11.9595 21.7851 12.2097 21.8884 12.471 21.8898H20.2129C20.4742 21.8884 20.7244 21.7851 20.9092 21.6023C21.094 21.4194 21.1984 21.1719 21.1998 20.9133V14.796C21.1984 14.5375 21.094 14.2899 20.9092 14.1071C20.7244 13.9242 20.4742 13.8209 20.2129 13.8195ZM13.2977 13.8195V12.6157C13.2512 12.1926 13.2953 11.7647 13.4271 11.3596C13.5589 10.9546 13.7754 10.5815 14.0626 10.2648C14.3498 9.94807 14.7012 9.69474 15.0939 9.52132C15.4867 9.3479 15.9119 9.25827 16.342 9.25827C16.772 9.25827 17.1973 9.3479 17.59 9.52132C17.9827 9.69474 18.3341 9.94807 18.6213 10.2648C18.9085 10.5815 19.125 10.9546 19.2568 11.3596C19.3886 11.7647 19.4327 12.1926 19.3863 12.6157V13.8195H13.2977Z" fill="#AEADAD"/>
</g>
<path d="M17.4102 21.538H19.858C20.1193 21.5366 20.3695 21.4332 20.5543 21.2504C20.739 21.0676 20.8435 20.82 20.8449 20.5615V17.4907C20.2083 19.1927 18.9942 20.6232 17.4102 21.538Z" fill="#FEB05C"/>
<path d="M15.9867 8.04346C13.8679 8.04346 12.1353 9.95417 12.1353 12.2893V13.4675H12.9428V12.2667C12.8963 11.8436 12.9404 11.4156 13.0722 11.0106C13.204 10.6056 13.4206 10.2325 13.7077 9.91578C13.9949 9.59905 14.3463 9.34572 14.7391 9.1723C15.1318 8.99887 15.557 8.90924 15.9871 8.90924C16.4171 8.90924 16.8424 8.99887 17.2351 9.1723C17.6278 9.34572 17.9792 9.59905 18.2664 9.91578C18.5536 10.2325 18.7702 10.6056 18.902 11.0106C19.0338 11.4156 19.0779 11.8436 19.0314 12.2667V13.4705H19.8389V12.2923C19.8389 9.95417 18.1055 8.04346 15.9867 8.04346Z" fill="#F1F7F1"/>
<path d="M19.8574 13.4678H12.1163C11.855 13.4692 11.6048 13.5725 11.42 13.7553C11.2352 13.9382 11.1308 14.1857 11.1294 14.4443V20.5616C11.1308 20.8201 11.2352 21.0677 11.42 21.2505C11.6048 21.4334 11.855 21.5367 12.1163 21.5381H17.4103C18.9944 20.6233 20.2084 19.1928 20.845 17.4908V14.4413C20.8428 14.1831 20.738 13.9362 20.5531 13.754C20.3682 13.5718 20.1183 13.469 19.8574 13.4678ZM15.9868 15.4593C16.2682 15.4585 16.5411 15.5547 16.7586 15.7313C16.9761 15.9079 17.1247 16.1539 17.1789 16.4271C17.233 16.7003 17.1894 16.9836 17.0555 17.2284C16.9215 17.4732 16.7056 17.6643 16.4448 17.7688V19.5496H15.5342V17.7688C15.2734 17.6643 15.0575 17.4732 14.9236 17.2284C14.7896 16.9836 14.746 16.7003 14.8002 16.4271C14.8543 16.1539 15.0029 15.9079 15.2204 15.7313C15.438 15.5547 15.7108 15.4585 15.9922 15.4593H15.9868Z" fill="#FEB05C"/>
<path d="M17.199 16.6576C17.1989 16.4402 17.1391 16.2269 17.0259 16.0406C16.9127 15.8543 16.7505 15.7019 16.5565 15.5998C16.3625 15.4978 16.1442 15.4498 15.9248 15.4611C15.7054 15.4724 15.4932 15.5425 15.311 15.6639C15.1288 15.7854 14.9834 15.9535 14.8903 16.1505C14.7973 16.3474 14.7601 16.5657 14.7829 16.7819C14.8056 16.9981 14.8873 17.2041 15.0192 17.3779C15.1512 17.5517 15.3284 17.6867 15.532 17.7685V19.2616C15.8334 19.3121 16.1412 19.3121 16.4426 19.2616V17.7685C16.6661 17.6789 16.8575 17.5253 16.9923 17.3274C17.127 17.1294 17.199 16.8962 17.199 16.6576Z" fill="#F1F7F1"/>
<path d="M15.5312 19.2617V19.5495H16.4418V19.2617C16.1405 19.3122 15.8326 19.3122 15.5312 19.2617Z" fill="#FAAE5E"/>
</svg>
