<svg width="135" height="72" viewBox="0 0 135 72" fill="none" xmlns="http://www.w3.org/2000/svg">
<g clip-path="url(#clip0_1504_532)">
<mask id="mask0_1504_532" style="mask-type:luminance" maskUnits="userSpaceOnUse" x="0" y="0" width="135" height="72">
<path d="M135 0.443359H0.126953V71.5564H135V0.443359Z" fill="white"/>
</mask>
<g mask="url(#mask0_1504_532)">
<path d="M69.41 44.9901C67.6063 45.0108 65.8175 44.6616 64.154 43.9641C62.5626 43.2843 61.1317 42.2779 59.954 41.0101C58.7224 39.6795 57.7703 38.1153 57.154 36.4101C56.4694 34.5162 56.1306 32.5148 56.154 30.5011V18.1201C56.1473 17.4819 56.21 16.8448 56.341 16.2201C56.4053 15.9399 56.5275 15.6762 56.6997 15.4459C56.8719 15.2157 57.0903 15.024 57.341 14.8831C58.1114 14.4992 58.97 14.3266 59.829 14.3831C60.7185 14.3166 61.6096 14.4892 62.41 14.8831C62.6561 15.0325 62.8688 15.2312 63.0347 15.4666C63.2005 15.7019 63.316 15.969 63.374 16.2511C63.5039 16.8858 63.5665 17.5323 63.561 18.1801V30.4971C63.5262 31.8246 63.7918 33.1427 64.338 34.3531C64.8271 35.4 65.6175 36.2771 66.608 36.8721C67.7252 37.5041 68.9951 37.8155 70.278 37.7721C71.6097 37.8116 72.9286 37.5013 74.103 36.8721C75.1524 36.279 76.0063 35.3929 76.56 34.3221C77.1603 33.1381 77.4595 31.8243 77.431 30.4971V18.0541C77.424 17.4159 77.4867 16.7788 77.618 16.1541C77.6799 15.8769 77.8015 15.6165 77.9742 15.391C78.1469 15.1655 78.3665 14.9802 78.618 14.8481C79.4162 14.4837 80.2924 14.3233 81.168 14.3811C82.0276 14.3145 82.8888 14.4876 83.656 14.8811C84.1412 15.1963 84.4864 15.6862 84.62 16.2491C84.7682 16.8599 84.8411 17.4866 84.837 18.1151V41.4451C84.8414 42.0328 84.7685 42.6185 84.62 43.1871C84.4674 43.735 84.1091 44.2029 83.62 44.4931C82.8405 44.8833 81.9703 45.056 81.101 44.9931C80.4364 45.0186 79.7727 44.9238 79.142 44.7131C78.7251 44.5709 78.3579 44.3119 78.084 43.9671C77.8676 43.683 77.7188 43.3533 77.649 43.0031C77.5869 42.6734 77.5558 42.3386 77.556 42.0031L78.056 40.3231C77.7215 40.8003 77.3468 41.2479 76.936 41.6611C76.3736 42.2349 75.7593 42.7555 75.101 43.2161C74.3267 43.7596 73.4784 44.189 72.582 44.4911C71.5601 44.8343 70.4878 45.0023 69.41 44.9901Z" fill="#007DB3"/>
<path d="M94.6639 44.9901C93.8113 45.0529 92.9585 44.8696 92.2069 44.4621C91.7177 44.1506 91.3713 43.6586 91.2429 43.0931C91.1122 42.4683 91.0499 41.8313 91.0569 41.1931V17.9331C91.0512 17.328 91.1136 16.7242 91.2429 16.1331C91.3087 15.8614 91.432 15.607 91.6045 15.387C91.7771 15.1671 91.9948 14.9867 92.2429 14.8581C93.0203 14.4972 93.8756 14.3367 94.7309 14.3911C95.4957 14.3488 96.2602 14.4762 96.9699 14.7641C97.4026 14.9479 97.7566 15.2782 97.9699 15.6971C98.1304 16.0503 98.2253 16.4298 98.2499 16.8171C98.2611 17.1092 98.2922 17.4002 98.3429 17.6881L98.0939 19.6791C98.375 18.9615 98.7946 18.3064 99.3289 17.7511C99.9563 17.0912 100.667 16.5163 101.444 16.0411C102.288 15.5131 103.196 15.0931 104.145 14.7911C105.12 14.48 106.138 14.3227 107.162 14.3251C108.96 14.2943 110.743 14.6553 112.387 15.3831C113.906 16.0775 115.254 17.0968 116.337 18.3691C117.468 19.7135 118.324 21.2669 118.856 22.9411C119.46 24.8625 119.754 26.868 119.727 28.8821V41.2591C119.735 41.899 119.662 42.5374 119.51 43.1591C119.37 43.711 119.025 44.189 118.546 44.4961C117.736 44.8295 116.868 44.9984 115.993 44.9931C115.117 44.9878 114.251 44.8083 113.446 44.4651C113.196 44.3157 112.978 44.1175 112.807 43.8823C112.635 43.6471 112.512 43.3797 112.446 43.0961C112.315 42.4714 112.252 41.8343 112.259 41.1961V28.8181C112.293 27.4903 112.028 26.172 111.482 24.9611C111.001 23.9263 110.221 23.0596 109.243 22.4731C108.111 21.8538 106.832 21.5528 105.543 21.6021C104.222 21.5702 102.915 21.8802 101.749 22.5021C100.692 23.0814 99.8271 23.9569 99.2609 25.0211C98.6579 26.1933 98.3584 27.4981 98.3899 28.8161V41.2561C98.3969 41.8943 98.3342 42.5314 98.203 43.1561C98.1416 43.4327 98.0244 43.694 97.8587 43.9239C97.6929 44.1537 97.4821 44.3474 97.2389 44.4931C96.4386 44.887 95.5475 45.0596 94.658 44.9931" fill="#007DB3"/>
<path d="M129.808 45.0557C128.946 45.1152 128.084 44.9324 127.32 44.5277C127.07 44.3784 126.852 44.1802 126.681 43.945C126.509 43.7098 126.386 43.4424 126.32 43.1587C126.189 42.534 126.126 41.8969 126.133 41.2587V18.1197C126.127 17.5013 126.2 16.8847 126.35 16.2847C126.496 15.7255 126.855 15.2455 127.35 14.9477C128.964 14.2844 130.774 14.2844 132.388 14.9477C132.634 15.0974 132.847 15.296 133.013 15.5314C133.179 15.7667 133.295 16.0337 133.353 16.3157C133.483 16.9503 133.546 17.5969 133.54 18.2447V41.3207C133.547 41.9589 133.484 42.5961 133.353 43.2207C133.291 43.4971 133.174 43.758 133.008 43.9875C132.843 44.217 132.632 44.4104 132.389 44.5557C131.589 44.9496 130.697 45.1222 129.808 45.0557Z" fill="#007DB3"/>
<path d="M6.70298 61.4951C6.74948 60.7194 6.49923 59.955 6.00298 59.3571C5.70709 59.0801 5.35598 58.8689 4.97269 58.7372C4.5894 58.6055 4.18259 58.5564 3.77898 58.593H1.25998C1.20761 58.5949 1.15544 58.5859 1.10669 58.5667C1.05795 58.5475 1.01368 58.5184 0.976631 58.4814C0.939584 58.4444 0.910554 58.4001 0.891345 58.3513C0.872137 58.3026 0.863161 58.2504 0.864975 58.1981V57.6141C0.863161 57.5617 0.872137 57.5095 0.891345 57.4608C0.910554 57.412 0.939584 57.3678 0.976631 57.3307C1.01368 57.2937 1.05795 57.2646 1.10669 57.2454C1.15544 57.2262 1.20761 57.2172 1.25998 57.2191H3.87298C4.71762 57.1898 5.55847 57.3451 6.33698 57.6741C6.96108 57.9563 7.47214 58.4402 7.78797 59.048C8.13518 59.7851 8.30015 60.5949 8.26897 61.4091V68.7561C8.27079 68.8084 8.26181 68.8606 8.2426 68.9093C8.2234 68.9581 8.19437 69.0024 8.15732 69.0394C8.12027 69.0764 8.076 69.1055 8.02726 69.1247C7.97851 69.1439 7.92634 69.1529 7.87398 69.1511H7.09798C7.04413 69.1543 6.99021 69.146 6.93985 69.1267C6.88948 69.1073 6.84384 69.0775 6.80598 69.039C6.73717 68.9613 6.70131 68.8598 6.70598 68.7561L6.70298 61.4951ZM13.022 58.6281L10.979 58.6111C10.8752 58.6157 10.7738 58.5799 10.696 58.511C10.6585 58.4761 10.6291 58.4333 10.6097 58.3859C10.5904 58.3384 10.5816 58.2873 10.584 58.2361V55.2361C10.5822 55.1837 10.5911 55.1315 10.6103 55.0828C10.6296 55.034 10.6586 54.9898 10.6956 54.9527C10.7327 54.9157 10.777 54.8866 10.8257 54.8674C10.8744 54.8482 10.9266 54.8392 10.979 54.841H11.7C11.7523 54.8392 11.8045 54.8482 11.8533 54.8674C11.902 54.8866 11.9463 54.9157 11.9833 54.9527C12.0204 54.9898 12.0494 55.034 12.0686 55.0828C12.0878 55.1315 12.0968 55.1837 12.095 55.2361V57.2281H13.057L13.022 58.6281ZM12.988 67.1791C12.9395 67.1963 12.8875 67.2014 12.8366 67.1939C12.7857 67.1864 12.7374 67.1665 12.696 67.136C12.6519 67.1076 12.616 67.068 12.5919 67.0213C12.5679 66.9747 12.5565 66.9225 12.559 66.8701V66.08C12.5575 65.9803 12.5908 65.8831 12.653 65.8051C12.7275 65.7166 12.8257 65.651 12.936 65.6161L13.606 65.358C14.0438 65.1786 14.4565 64.9433 14.834 64.6581C15.2197 64.3594 15.5215 63.966 15.71 63.5161C15.9434 62.9146 16.0516 62.2718 16.028 61.6271C16.0504 61.0234 15.9602 60.4207 15.762 59.8501C15.6829 59.6415 15.5633 59.4507 15.41 59.2886C15.2567 59.1266 15.0728 58.9966 14.869 58.9061C14.3253 58.6949 13.7437 58.5985 13.161 58.6231H12.646C12.5936 58.6249 12.5414 58.6159 12.4927 58.5967C12.444 58.5775 12.3997 58.5484 12.3626 58.5114C12.3256 58.4744 12.2966 58.4301 12.2773 58.3813C12.2581 58.3326 12.2492 58.2804 12.251 58.2281V57.6101C12.2492 57.5577 12.2581 57.5055 12.2773 57.4568C12.2966 57.408 12.3256 57.3638 12.3626 57.3267C12.3997 57.2897 12.444 57.2606 12.4927 57.2414C12.5414 57.2222 12.5936 57.2132 12.646 57.2151H13.401C14.2537 57.1787 15.1039 57.331 15.891 57.6611C16.502 57.9509 16.9784 58.4642 17.222 59.0951C17.5178 59.9233 17.6535 60.8002 17.622 61.6791C17.6373 62.3856 17.5269 63.0892 17.296 63.757C17.0986 64.3066 16.7986 64.8136 16.412 65.2511C16.0482 65.6565 15.6222 66.0015 15.15 66.2731C14.6859 66.5395 14.1973 66.7608 13.691 66.9341L12.988 67.1791ZM24.818 65.7371C25.4701 65.7692 26.119 65.627 26.698 65.3251C27.2028 65.0436 27.6101 64.6153 27.866 64.0971C28.1419 63.5275 28.279 62.9008 28.266 62.2681V57.6151C28.2642 57.5627 28.2731 57.5105 28.2923 57.4618C28.3116 57.413 28.3406 57.3688 28.3776 57.3317C28.4147 57.2947 28.459 57.2656 28.5077 57.2464C28.5564 57.2272 28.6086 57.2182 28.661 57.2201H29.361C29.4148 57.2167 29.4688 57.225 29.5191 57.2444C29.5695 57.2637 29.6152 57.2936 29.653 57.3321C29.7218 57.4098 29.7576 57.5113 29.753 57.6151V62.3881C29.7628 63.0646 29.6465 63.7371 29.41 64.371C29.1985 64.9363 28.8672 65.4492 28.439 65.8745C28.0108 66.2997 27.4957 66.6274 26.929 66.8351C26.3165 67.0577 25.666 67.1569 25.015 67.1271H23.736C23.0324 67.1377 22.3387 66.9599 21.727 66.6121C21.1335 66.2706 20.6461 65.7715 20.319 65.1701C19.9655 64.511 19.7881 63.7718 19.804 63.024V57.6151C19.8022 57.5627 19.8111 57.5105 19.8303 57.4618C19.8496 57.413 19.8786 57.3688 19.9156 57.3317C19.9527 57.2947 19.997 57.2656 20.0457 57.2464C20.0944 57.2272 20.1466 57.2182 20.199 57.2201H20.92C20.9723 57.2182 21.0245 57.2272 21.0733 57.2464C21.122 57.2656 21.1663 57.2947 21.2033 57.3317C21.2404 57.3688 21.2694 57.413 21.2886 57.4618C21.3078 57.5105 21.3168 57.5627 21.315 57.6151L21.367 62.6801C21.3396 63.0943 21.3987 63.5096 21.5406 63.8997C21.6825 64.2898 21.904 64.6462 22.191 64.9461C22.4704 65.21 22.7995 65.4158 23.1592 65.5514C23.5188 65.687 23.9018 65.7498 24.286 65.7361L24.818 65.7371ZM21.006 63.7281L20.973 62.4741C21.6411 62.5011 22.3061 62.3688 22.913 62.0881C23.3281 61.875 23.6583 61.5269 23.849 61.1011C24.0295 60.672 24.1201 60.2105 24.115 59.7451V57.6161C24.1103 57.5123 24.1462 57.4108 24.215 57.3331C24.2528 57.2945 24.2984 57.2646 24.3488 57.2453C24.3992 57.2259 24.4531 57.2177 24.507 57.2211H25.207C25.2593 57.2192 25.3115 57.2282 25.3603 57.2474C25.409 57.2666 25.4533 57.2957 25.4903 57.3327C25.5274 57.3698 25.5564 57.414 25.5756 57.4628C25.5948 57.5115 25.6038 57.5637 25.602 57.6161V59.8161C25.6119 60.5177 25.4396 61.2099 25.102 61.8251C24.7504 62.4382 24.2201 62.9294 23.582 63.233C22.7747 63.5998 21.8917 63.7692 21.006 63.7271V63.7281ZM36.785 63.0411C36.7326 63.0429 36.6804 63.0339 36.6317 63.0147C36.583 62.9955 36.5387 62.9664 36.5016 62.9294C36.4646 62.8924 36.4356 62.8481 36.4163 62.7993C36.3971 62.7506 36.3882 62.6984 36.39 62.6461V57.6151C36.3882 57.5627 36.3971 57.5105 36.4163 57.4618C36.4356 57.413 36.4646 57.3688 36.5016 57.3317C36.5387 57.2947 36.583 57.2656 36.6317 57.2464C36.6804 57.2272 36.7326 57.2182 36.785 57.2201H37.592C37.6458 57.2167 37.6998 57.225 37.7501 57.2444C37.8005 57.2637 37.8462 57.2936 37.884 57.3321C37.9528 57.4098 37.9886 57.5113 37.984 57.6151V62.6461C37.9886 62.7498 37.9528 62.8513 37.884 62.9291C37.8462 62.9675 37.8005 62.9974 37.7501 63.0168C37.6998 63.0361 37.6458 63.0444 37.592 63.0411H36.785ZM42.743 58.6281L40.7 58.6111C40.5962 58.6157 40.4948 58.5799 40.417 58.511C40.3796 58.476 40.3503 58.4332 40.3309 58.3858C40.3116 58.3383 40.3028 58.2873 40.305 58.2361V55.2361C40.3032 55.1837 40.3121 55.1315 40.3313 55.0828C40.3506 55.034 40.3796 54.9898 40.4166 54.9527C40.4537 54.9157 40.498 54.8866 40.5467 54.8674C40.5954 54.8482 40.6476 54.8392 40.7 54.841H41.421C41.4733 54.8392 41.5255 54.8482 41.5743 54.8674C41.623 54.8866 41.6673 54.9157 41.7043 54.9527C41.7414 54.9898 41.7704 55.034 41.7896 55.0828C41.8088 55.1315 41.8178 55.1837 41.816 55.2361V57.2281H42.773L42.743 58.6281ZM42.709 67.1791C42.6605 67.1963 42.6085 67.2014 42.5576 67.1939C42.5067 67.1864 42.4584 67.1665 42.417 67.136C42.3729 67.1076 42.337 67.068 42.3129 67.0213C42.2889 66.9747 42.2775 66.9225 42.28 66.8701V66.08C42.2787 65.9803 42.3119 65.8832 42.374 65.8051C42.4487 65.7167 42.5468 65.6512 42.657 65.6161L43.327 65.358C43.7648 65.1787 44.1776 64.9434 44.555 64.6581C44.9409 64.3596 45.2428 63.9661 45.431 63.5161C45.6644 62.9146 45.7726 62.2718 45.749 61.6271C45.7714 61.0234 45.6812 60.4207 45.483 59.8501C45.404 59.6415 45.2844 59.4506 45.1311 59.2886C44.9778 59.1265 44.7939 58.9965 44.59 58.9061C44.0463 58.6948 43.4647 58.5985 42.882 58.6231H42.367C42.3146 58.6249 42.2624 58.6159 42.2137 58.5967C42.165 58.5775 42.1207 58.5484 42.0836 58.5114C42.0466 58.4744 42.0176 58.4301 41.9983 58.3813C41.9791 58.3326 41.9702 58.2804 41.972 58.2281V57.6101C41.9702 57.5577 41.9791 57.5055 41.9983 57.4568C42.0176 57.408 42.0466 57.3638 42.0836 57.3267C42.1207 57.2897 42.165 57.2606 42.2137 57.2414C42.2624 57.2222 42.3146 57.2132 42.367 57.2151H43.123C43.9757 57.1787 44.8259 57.331 45.613 57.6611C46.224 57.9509 46.7004 58.4642 46.944 59.0951C47.24 59.9232 47.3757 60.8002 47.344 61.6791C47.3594 62.3856 47.2491 63.0892 47.018 63.757C46.8208 64.3066 46.5208 64.8137 46.134 65.2511C45.7703 65.6566 45.3443 66.0016 44.872 66.2731C44.4079 66.5396 43.9194 66.761 43.413 66.9341L42.709 67.1791ZM53.909 67.1961C53.3099 67.2533 52.7055 67.1844 52.1347 66.9937C51.5639 66.803 51.0394 66.4949 50.595 66.0891C49.8748 65.2225 49.5124 64.1137 49.582 62.9891V57.6151C49.5802 57.5627 49.5891 57.5105 49.6083 57.4618C49.6276 57.413 49.6566 57.3688 49.6936 57.3317C49.7307 57.2947 49.775 57.2656 49.8237 57.2464C49.8724 57.2272 49.9246 57.2182 49.977 57.2201H50.677C50.7308 57.2167 50.7848 57.225 50.8351 57.2444C50.8855 57.2637 50.9312 57.2936 50.969 57.3321C51.0378 57.4098 51.0736 57.5113 51.069 57.6151V62.9031C51.0162 63.6795 51.2672 64.4462 51.769 65.0411C52.3667 65.5143 53.104 65.7767 53.8663 65.7876C54.6286 65.7984 55.3731 65.5571 55.984 65.1011C56.4686 64.5272 56.7186 63.7914 56.684 63.0411C56.6966 62.8667 56.6996 62.6918 56.693 62.5171C56.687 62.2824 56.684 62.0447 56.684 61.8041V61.272C56.7265 60.5297 56.511 59.7956 56.074 59.1941C55.8879 58.981 55.6568 58.8119 55.3974 58.6992C55.138 58.5864 54.8567 58.5327 54.574 58.5421C54.3472 58.5458 54.1219 58.5794 53.904 58.6421C53.679 58.6992 53.4646 58.792 53.269 58.9171C53.2196 58.9452 53.164 58.9608 53.1071 58.9624C53.0502 58.9639 52.9939 58.9515 52.943 58.9261C52.8899 58.9055 52.8448 58.8687 52.8139 58.8209C52.783 58.7732 52.768 58.7169 52.771 58.66V58.1281C52.7693 58.027 52.7807 57.9262 52.805 57.828C52.8372 57.73 52.9045 57.6474 52.994 57.5961C53.2265 57.4569 53.4741 57.3445 53.732 57.261C54.0724 57.1649 54.4254 57.1214 54.779 57.132C55.4287 57.1099 56.0733 57.2549 56.651 57.5531C57.1669 57.848 57.5712 58.305 57.801 58.8531C58.0901 59.5673 58.2359 60.3315 58.23 61.1021C58.2413 61.2167 58.247 61.4114 58.247 61.6861V62.5271C58.247 62.8131 58.2413 63.0131 58.23 63.1271C58.2299 63.8932 58.0691 64.6509 57.758 65.3511C57.4731 65.9564 56.9877 66.4447 56.384 66.733C55.603 67.0731 54.755 67.2315 53.904 67.1961H53.909ZM60.846 63.0411C60.7936 63.0429 60.7414 63.0339 60.6927 63.0147C60.644 62.9955 60.5997 62.9664 60.5626 62.9294C60.5256 62.8924 60.4966 62.8481 60.4773 62.7993C60.4581 62.7506 60.4492 62.6984 60.451 62.6461V57.6151C60.4492 57.5627 60.4581 57.5105 60.4773 57.4618C60.4966 57.413 60.5256 57.3688 60.5626 57.3317C60.5997 57.2947 60.644 57.2656 60.6927 57.2464C60.7414 57.2272 60.7936 57.2182 60.846 57.2201H61.653C61.7068 57.2167 61.7608 57.225 61.8111 57.2444C61.8615 57.2637 61.9072 57.2936 61.945 57.3321C62.0138 57.4098 62.0496 57.5113 62.045 57.6151V62.6461C62.0496 62.7498 62.0138 62.8513 61.945 62.9291C61.9072 62.9675 61.8615 62.9974 61.8111 63.0168C61.7608 63.0361 61.7068 63.0444 61.653 63.0411H60.846ZM66.946 66.149C66.5712 66.4084 66.1716 66.6298 65.753 66.8101C65.3791 66.9651 64.9909 67.083 64.594 67.162C64.4953 67.1756 64.3949 67.1639 64.302 67.1281C64.2612 67.1081 64.2276 67.0759 64.2061 67.0359C64.1845 66.9959 64.1761 66.9501 64.182 66.9051V66.0461C64.182 65.8514 64.3023 65.7084 64.543 65.6171C64.623 65.5824 64.7716 65.5307 64.989 65.4621C65.2266 65.3853 65.4603 65.2965 65.689 65.1961C65.9143 65.1007 66.1322 64.9887 66.341 64.8611C66.6495 64.6588 66.932 64.4194 67.182 64.1481C67.4474 63.8708 67.6821 63.5657 67.882 63.2381C68.0488 62.9906 68.1466 62.703 68.165 62.4051L69.165 62.285C69.149 62.7989 69.0385 63.3053 68.839 63.7791C68.6383 64.2739 68.3664 64.7368 68.032 65.1531C67.7224 65.5414 67.3523 65.8774 66.936 66.1481L66.946 66.149ZM69.161 67.0251C69.111 67.0278 69.0611 67.0192 69.015 66.9998C68.9689 66.9804 68.9279 66.9507 68.895 66.9131C68.8287 66.8312 68.7843 66.7338 68.766 66.6301L67.708 61.356C67.6189 60.8388 67.4851 60.3302 67.308 59.8361C67.1864 59.4784 66.9733 59.1589 66.69 58.9091C66.3862 58.6824 66.0124 58.5698 65.634 58.591H65.013C64.9606 58.5929 64.9084 58.5839 64.8597 58.5647C64.811 58.5455 64.7667 58.5164 64.7296 58.4794C64.6926 58.4424 64.6636 58.3981 64.6443 58.3493C64.6251 58.3006 64.6162 58.2484 64.618 58.1961V57.578C64.6162 57.5257 64.6251 57.4735 64.6443 57.4248C64.6636 57.376 64.6926 57.3318 64.7296 57.2947C64.7667 57.2577 64.811 57.2286 64.8597 57.2094C64.9084 57.1902 64.9606 57.1812 65.013 57.1831H65.648C66.2969 57.153 66.9407 57.311 67.502 57.6381C68.0003 57.9756 68.3908 58.4495 68.627 59.0031C68.9464 59.7291 69.1813 60.4894 69.327 61.2691L70.357 66.6261C70.3698 66.6766 70.3686 66.7297 70.3534 66.7795C70.3382 66.8294 70.3097 66.8742 70.271 66.9091C70.1921 66.9832 70.0872 67.0234 69.979 67.0211L69.161 67.0251ZM72.372 63.0411C72.3196 63.0429 72.2674 63.0339 72.2187 63.0147C72.17 62.9955 72.1257 62.9664 72.0886 62.9294C72.0516 62.8924 72.0226 62.8481 72.0033 62.7993C71.9841 62.7506 71.9752 62.6984 71.977 62.6461V57.6151C71.9752 57.5627 71.9841 57.5105 72.0033 57.4618C72.0226 57.413 72.0516 57.3688 72.0886 57.3317C72.1257 57.2947 72.17 57.2656 72.2187 57.2464C72.2674 57.2272 72.3196 57.2182 72.372 57.2201H73.173C73.2268 57.2167 73.2808 57.225 73.3311 57.2444C73.3815 57.2637 73.4271 57.2936 73.465 57.3321C73.5338 57.4098 73.5696 57.5113 73.565 57.6151V62.6461C73.5696 62.7498 73.5338 62.8513 73.465 62.9291C73.4271 62.9675 73.3815 62.9974 73.3311 63.0168C73.2808 63.0361 73.2268 63.0444 73.173 63.0411H72.372ZM75.892 58.5941C75.8396 58.5959 75.7874 58.5869 75.7387 58.5677C75.6899 58.5485 75.6457 58.5194 75.6086 58.4824C75.5716 58.4453 75.5426 58.4011 75.5233 58.3523C75.5041 58.3036 75.4952 58.2514 75.497 58.1991V57.6151C75.4952 57.5627 75.5041 57.5105 75.5233 57.4618C75.5426 57.413 75.5716 57.3688 75.6086 57.3317C75.6457 57.2947 75.6899 57.2656 75.7387 57.2464C75.7874 57.2272 75.8396 57.2182 75.892 57.2201H83.258C83.3103 57.2182 83.3625 57.2272 83.4113 57.2464C83.46 57.2656 83.5043 57.2947 83.5413 57.3317C83.5784 57.3688 83.6074 57.413 83.6266 57.4618C83.6458 57.5105 83.6548 57.5627 83.653 57.6151V58.1991C83.6548 58.2514 83.6458 58.3036 83.6266 58.3523C83.6074 58.4011 83.5784 58.4453 83.5413 58.4824C83.5043 58.5194 83.46 58.5485 83.4113 58.5677C83.3625 58.5869 83.3103 58.5959 83.258 58.5941H75.892ZM80.528 67.0251C80.4766 67.0324 80.4243 67.0277 80.375 67.0113C80.3258 66.9949 80.2811 66.9673 80.2444 66.9306C80.2077 66.8939 80.1801 66.8492 80.1637 66.8C80.1473 66.7508 80.1426 66.6984 80.15 66.647V60.5171C80.127 59.9798 80.2085 59.4432 80.39 58.9371C80.55 58.5591 80.75 58.3701 80.99 58.3701H82.673C82.3863 58.3701 82.153 58.5874 81.973 59.022C81.7815 59.538 81.6912 60.086 81.707 60.636V66.6461C81.709 66.698 81.6993 66.7497 81.6785 66.7973C81.6578 66.845 81.6264 66.8873 81.587 66.9211C81.5052 66.989 81.4013 67.0246 81.295 67.0211L80.528 67.0251ZM92.736 67.0251C92.6836 67.0269 92.6314 67.0179 92.5827 66.9987C92.534 66.9795 92.4897 66.9504 92.4526 66.9134C92.4156 66.8763 92.3866 66.8321 92.3673 66.7833C92.3481 66.7346 92.3392 66.6824 92.341 66.6301V61.496C92.3886 60.7224 92.1434 59.9591 91.654 59.358C91.3602 59.0807 91.0107 58.8692 90.6288 58.7374C90.2469 58.6057 89.8413 58.5568 89.439 58.5941H86.201C86.1486 58.5959 86.0964 58.5869 86.0477 58.5677C85.999 58.5485 85.9547 58.5194 85.9176 58.4824C85.8806 58.4453 85.8516 58.4011 85.8323 58.3523C85.8131 58.3036 85.8042 58.2514 85.806 58.1991V57.6151C85.8042 57.5627 85.8131 57.5105 85.8323 57.4618C85.8516 57.413 85.8806 57.3688 85.9176 57.3317C85.9547 57.2947 85.999 57.2656 86.0477 57.2464C86.0964 57.2272 86.1486 57.2182 86.201 57.2201H89.515C90.1102 57.171 90.7092 57.2415 91.2767 57.4273C91.8443 57.6131 92.369 57.9105 92.82 58.302C93.1992 58.7278 93.4895 59.2251 93.6738 59.7647C93.8581 60.3043 93.9326 60.8753 93.893 61.4441V66.6291C93.8948 66.6814 93.8858 66.7336 93.8666 66.7823C93.8474 66.8311 93.8184 66.8754 93.7813 66.9124C93.7443 66.9494 93.7 66.9785 93.6513 66.9977C93.6025 67.0169 93.5503 67.0259 93.498 67.024L92.736 67.0251ZM86.211 67.0251C86.1586 67.0269 86.1064 67.0179 86.0577 66.9987C86.0089 66.9795 85.9647 66.9504 85.9276 66.9134C85.8906 66.8763 85.8616 66.8321 85.8423 66.7833C85.8231 66.7346 85.8142 66.6824 85.816 66.6301V60.8951C85.8142 60.8427 85.8231 60.7905 85.8423 60.7418C85.8616 60.693 85.8906 60.6488 85.9276 60.6117C85.9647 60.5747 86.0089 60.5456 86.0577 60.5264C86.1064 60.5072 86.1586 60.4982 86.211 60.5001H86.973C87.0268 60.4967 87.0808 60.505 87.1311 60.5244C87.1815 60.5437 87.2271 60.5736 87.265 60.6121C87.3338 60.6898 87.3696 60.7913 87.365 60.8951V66.6301C87.3696 66.7338 87.3338 66.8353 87.265 66.9131C87.2271 66.9515 87.1815 66.9814 87.1311 67.0008C87.0808 67.0201 87.0268 67.0284 86.973 67.0251H86.211ZM103.021 57.7531H103.45C103.52 57.7478 103.59 57.7565 103.656 57.7786C103.722 57.8008 103.783 57.8359 103.836 57.882C103.878 57.9229 103.91 57.9728 103.929 58.028C103.949 58.0831 103.955 58.142 103.948 58.2001C103.856 58.6807 103.779 59.1141 103.716 59.5001C103.653 59.8839 103.61 60.2708 103.587 60.6591C103.564 61.0424 103.552 61.4757 103.553 61.9591L103.587 66.6291C103.592 66.7328 103.556 66.8343 103.487 66.912C103.452 66.9494 103.409 66.9788 103.362 66.9981C103.314 67.0174 103.263 67.0263 103.212 67.024L100.774 66.9901C100.67 66.9947 100.569 66.9589 100.491 66.8901C100.452 66.8522 100.423 66.8066 100.403 66.7562C100.384 66.7058 100.376 66.6519 100.379 66.5981V66.0491C100.377 65.9967 100.386 65.9445 100.405 65.8958C100.425 65.847 100.454 65.8028 100.491 65.7657C100.528 65.7287 100.572 65.6996 100.621 65.6804C100.669 65.6612 100.722 65.6522 100.774 65.6541L102.096 65.6711V62.0311C102.096 61.5644 102.102 61.131 102.113 60.731C102.124 60.3318 102.157 59.9335 102.213 59.5381C102.281 59.0816 102.373 58.629 102.488 58.1821C102.516 58.0673 102.572 57.9612 102.651 57.8731C102.7 57.8304 102.757 57.7981 102.819 57.778C102.881 57.7579 102.946 57.7504 103.011 57.7561L103.021 57.7531ZM101.476 58.5941C101.424 58.5959 101.371 58.5869 101.323 58.5677C101.274 58.5485 101.23 58.5194 101.193 58.4824C101.156 58.4453 101.127 58.4011 101.107 58.3523C101.088 58.3036 101.079 58.2514 101.081 58.1991V57.6151C101.079 57.5627 101.088 57.5105 101.107 57.4618C101.127 57.413 101.156 57.3688 101.193 57.3317C101.23 57.2947 101.274 57.2656 101.323 57.2464C101.371 57.2272 101.424 57.2182 101.476 57.2201H105.202C106.043 57.191 106.879 57.3523 107.649 57.692C108.276 57.9873 108.786 58.4827 109.1 59.1001C109.442 59.8206 109.606 60.6121 109.581 61.4091V66.6291C109.583 66.6814 109.574 66.7336 109.555 66.7823C109.535 66.8311 109.506 66.8754 109.469 66.9124C109.432 66.9494 109.388 66.9785 109.339 66.9977C109.291 67.0169 109.238 67.0259 109.186 67.024H108.413C108.359 67.0274 108.305 67.0191 108.255 66.9998C108.204 66.9804 108.159 66.9505 108.121 66.912C108.052 66.8343 108.016 66.7328 108.021 66.6291V61.4951C108.067 60.7194 107.817 59.955 107.321 59.3571C107.025 59.0801 106.674 58.8689 106.291 58.7372C105.907 58.6055 105.501 58.5564 105.097 58.593L101.476 58.5941ZM112.465 63.0411C112.413 63.0429 112.36 63.0339 112.312 63.0147C112.263 62.9955 112.219 62.9664 112.182 62.9294C112.145 62.8924 112.116 62.8481 112.096 62.7993C112.077 62.7506 112.068 62.6984 112.07 62.6461V57.6151C112.068 57.5627 112.077 57.5105 112.096 57.4618C112.116 57.413 112.145 57.3688 112.182 57.3317C112.219 57.2947 112.263 57.2656 112.312 57.2464C112.36 57.2272 112.413 57.2182 112.465 57.2201H113.272C113.326 57.2167 113.38 57.225 113.43 57.2444C113.481 57.2637 113.526 57.2936 113.564 57.3321C113.633 57.4098 113.669 57.5113 113.664 57.6151V62.6461C113.669 62.7498 113.633 62.8513 113.564 62.9291C113.526 62.9675 113.481 62.9974 113.43 63.0168C113.38 63.0361 113.326 63.0444 113.272 63.0411H112.465ZM116.26 67.0251C116.208 67.0269 116.155 67.0179 116.107 66.9987C116.058 66.9795 116.014 66.9504 115.977 66.9134C115.94 66.8763 115.911 66.8321 115.891 66.7833C115.872 66.7346 115.863 66.6824 115.865 66.6301V66.0461C115.863 65.9937 115.872 65.9415 115.891 65.8928C115.911 65.844 115.94 65.7998 115.977 65.7627C116.014 65.7257 116.058 65.6966 116.107 65.6774C116.155 65.6582 116.208 65.6492 116.26 65.6511H121.173V61.496C121.221 60.7224 120.975 59.9591 120.486 59.358C120.192 59.0808 119.843 58.8693 119.461 58.7375C119.079 58.6058 118.673 58.5569 118.271 58.5941H116.417C116.365 58.5959 116.312 58.5869 116.264 58.5677C116.215 58.5485 116.171 58.5194 116.134 58.4824C116.097 58.4453 116.068 58.4011 116.048 58.3523C116.029 58.3036 116.02 58.2514 116.022 58.1991V57.6151C116.02 57.5627 116.029 57.5105 116.048 57.4618C116.068 57.413 116.097 57.3688 116.134 57.3317C116.171 57.2947 116.215 57.2656 116.264 57.2464C116.312 57.2272 116.365 57.2182 116.417 57.2201H118.357C119.201 57.1916 120.041 57.3561 120.812 57.701C121.443 58.0006 121.958 58.4982 122.28 59.1181C122.628 59.8429 122.796 60.6413 122.769 61.4451V65.6521H123.404C123.456 65.6502 123.509 65.6592 123.557 65.6784C123.606 65.6976 123.65 65.7267 123.687 65.7637C123.724 65.8008 123.753 65.845 123.773 65.8938C123.792 65.9425 123.801 65.9947 123.799 66.0471V66.6311C123.801 66.6834 123.792 66.7356 123.773 66.7843C123.753 66.8331 123.724 66.8774 123.687 66.9144C123.65 66.9514 123.606 66.9805 123.557 66.9997C123.509 67.0189 123.456 67.0279 123.404 67.0261L116.26 67.0251ZM132.623 67.0251C132.571 67.0269 132.518 67.0179 132.47 66.9987C132.421 66.9795 132.377 66.9504 132.34 66.9134C132.303 66.8763 132.274 66.8321 132.254 66.7833C132.235 66.7346 132.226 66.6824 132.228 66.6301V61.496C132.276 60.7224 132.03 59.9591 131.541 59.358C131.247 59.0807 130.898 58.8692 130.516 58.7374C130.134 58.6057 129.728 58.5568 129.326 58.5941H126.098C126.046 58.5959 125.993 58.5869 125.945 58.5677C125.896 58.5485 125.852 58.5194 125.815 58.4824C125.778 58.4453 125.749 58.4011 125.729 58.3523C125.71 58.3036 125.701 58.2514 125.703 58.1991V57.6151C125.701 57.5627 125.71 57.5105 125.729 57.4618C125.749 57.413 125.778 57.3688 125.815 57.3317C125.852 57.2947 125.896 57.2656 125.945 57.2464C125.993 57.2272 126.046 57.2182 126.098 57.2201H129.412C130.007 57.171 130.606 57.2415 131.174 57.4273C131.741 57.6131 132.266 57.9105 132.717 58.302C133.096 58.7278 133.387 59.2251 133.571 59.7647C133.755 60.3043 133.83 60.8753 133.79 61.4441V66.6291C133.792 66.6814 133.783 66.7336 133.764 66.7823C133.744 66.8311 133.715 66.8754 133.678 66.9124C133.641 66.9494 133.597 66.9785 133.548 66.9977C133.5 67.0169 133.447 67.0259 133.395 67.024L132.623 67.0251ZM126.098 67.0251C126.046 67.0269 125.993 67.0179 125.945 66.9987C125.896 66.9795 125.852 66.9504 125.815 66.9134C125.778 66.8763 125.749 66.8321 125.729 66.7833C125.71 66.7346 125.701 66.6824 125.703 66.6301V60.8951C125.701 60.8427 125.71 60.7905 125.729 60.7418C125.749 60.693 125.778 60.6488 125.815 60.6117C125.852 60.5747 125.896 60.5456 125.945 60.5264C125.993 60.5072 126.046 60.4982 126.098 60.5001H126.871C126.925 60.4967 126.979 60.505 127.029 60.5244C127.08 60.5437 127.125 60.5736 127.163 60.6121C127.232 60.6898 127.268 60.7913 127.263 60.8951V66.6301C127.268 66.7338 127.232 66.8353 127.163 66.9131C127.125 66.9515 127.08 66.9814 127.029 67.0008C126.979 67.0201 126.925 67.0284 126.871 67.0251H126.098Z" fill="black"/>
<path d="M54.996 39.9148L41.369 16.3148C41.0521 15.7659 40.5995 15.3075 40.0546 14.9838C39.5096 14.66 38.8907 14.4816 38.257 14.4658C38.214 14.4658 38.171 14.4658 38.129 14.4658C38.087 14.4658 38.043 14.4658 38.001 14.4658C37.3672 14.4815 36.748 14.6597 36.2029 14.9835C35.6578 15.3073 35.205 15.7657 34.888 16.3148L21.261 39.9148C21.0605 40.2622 20.9303 40.6456 20.8779 41.0433C20.8256 41.4409 20.8521 41.845 20.9559 42.2324C21.0597 42.6198 21.2388 42.983 21.483 43.3011C21.7272 43.6193 22.0316 43.8863 22.379 44.0868L23.54 44.7568C23.8874 44.9573 24.2709 45.0874 24.6686 45.1397C25.0663 45.192 25.4704 45.1654 25.8578 45.0615C26.2452 44.9576 26.6084 44.7784 26.9265 44.5341C27.2447 44.2898 27.5116 43.9853 27.712 43.6378L38.128 25.5988L48.543 43.6378C48.7435 43.9852 49.0105 44.2896 49.3287 44.5338C49.6469 44.778 50.01 44.9571 50.3974 45.0609C50.7848 45.1647 51.1889 45.1912 51.5866 45.1389C51.9842 45.0865 52.3677 44.9564 52.715 44.7558L53.876 44.0858C54.2234 43.8853 54.5278 43.6183 54.772 43.3001C55.0162 42.982 55.1953 42.6188 55.2991 42.2314C55.4029 41.844 55.4294 41.4399 55.3771 41.0423C55.3247 40.6446 55.1945 40.2612 54.994 39.9138" fill="#007DB3"/>
<path d="M27.301 25.6539L25.841 23.3609C25.805 23.2849 25.768 23.2079 25.725 23.1339L21.464 16.3129C21.1471 15.7639 20.6944 15.3056 20.1495 14.9818C19.6046 14.658 18.9856 14.4797 18.352 14.4639H18.224H18.096C17.4621 14.4795 16.843 14.6578 16.2978 14.9816C15.7527 15.3053 15.2999 15.7638 14.983 16.3129L1.35896 39.9139C1.15841 40.2612 1.02824 40.6447 0.975894 41.0423C0.923544 41.44 0.950034 41.844 1.05385 42.2314C1.15767 42.6188 1.33678 42.982 1.58096 43.3002C1.82513 43.6184 2.1296 43.8853 2.47696 44.0859L3.63796 44.7569C3.98536 44.9574 4.36885 45.0875 4.76654 45.1398C5.16423 45.192 5.56833 45.1655 5.95574 45.0615C6.34316 44.9576 6.70631 44.7784 7.02446 44.5341C7.34261 44.2899 7.60952 43.9853 7.80996 43.6379L18.332 25.4149L22.364 31.7609C22.4856 31.9526 22.6547 32.1097 22.8549 32.2169C23.055 32.3242 23.2795 32.378 23.5065 32.3732C23.7335 32.3684 23.9555 32.3051 24.1509 32.1894C24.3463 32.0737 24.5085 31.9096 24.622 31.7129L27.331 27.0209C27.4517 26.812 27.5128 26.574 27.5077 26.3328C27.5026 26.0916 27.4314 25.8564 27.302 25.6529" fill="#007DB3"/>
<path d="M129.662 8.46704C128.75 8.53123 127.837 8.34886 127.019 7.93904C126.753 7.7799 126.521 7.56821 126.34 7.31686C126.158 7.06551 126.029 6.77977 125.961 6.47704C125.81 5.80336 125.736 5.1145 125.742 4.42404C125.731 3.73344 125.804 3.04405 125.959 2.37104C126.036 2.07623 126.172 1.80015 126.359 1.55951C126.546 1.31887 126.78 1.11868 127.047 0.971038C127.878 0.564592 128.802 0.382901 129.725 0.444038C130.652 0.370139 131.581 0.564541 132.4 1.00404C132.917 1.34778 133.292 1.86659 133.457 2.46504C133.632 3.14555 133.716 3.84639 133.706 4.54904C133.71 5.2207 133.626 5.89001 133.457 6.54004C133.383 6.83629 133.252 7.11515 133.071 7.36068C132.889 7.60622 132.662 7.81362 132.4 7.97104C131.545 8.3691 130.603 8.54125 129.663 8.47104" fill="#007DB3"/>
</g>
</g>
<defs>
<clipPath id="clip0_1504_532">
<rect width="134.873" height="71.113" fill="white" transform="translate(0.126953 0.443359)"/>
</clipPath>
</defs>
</svg>
