<svg width="216" height="216" viewBox="0 0 216 216" fill="none" xmlns="http://www.w3.org/2000/svg">
<path d="M165.04 62.8601V37.2201C165.04 34.5101 162.84 32.3101 160.13 32.3101H46.2201C43.5101 32.3101 41.3101 34.5101 41.3101 37.2201V178.81C41.3101 181.52 43.5101 183.69 46.2201 183.69H160.13C162.84 183.69 165.04 181.51 165.04 178.81V157.79H170.35V62.8601H165.04Z" fill="#E6F9FA"/>
<path d="M170.35 37.22V86.77C170.35 88.23 169.18 89.42 167.7 89.42C166.22 89.42 165.05 88.23 165.05 86.77V37.22C165.05 34.51 162.85 32.31 160.14 32.31H46.22C43.51 32.31 41.31 34.51 41.31 37.22V178.81C41.31 181.52 43.51 183.69 46.22 183.69H160.13C162.84 183.69 165.04 181.51 165.04 178.81V139.48C165.04 138.02 166.23 136.83 167.69 136.83C169.15 136.83 170.34 138.02 170.34 139.48V178.81C170.34 184.44 165.78 189 160.12 189H46.22C40.59 189 36 184.44 36 178.81V37.22C36 31.57 40.59 27 46.22 27H160.13C165.78 27 170.35 31.56 170.35 37.22Z" fill="#027DB3"/>
<path d="M101.1 47.4099C89.61 47.4099 80.27 56.7499 80.27 68.2199C80.27 79.6899 89.61 89.0499 101.1 89.0499C112.59 89.0499 121.93 79.7099 121.93 68.2199C121.93 56.7299 112.59 47.4099 101.1 47.4099Z" fill="#5CEBBE"/>
<path d="M142.76 105.62C142.76 104.15 141.57 102.97 140.11 102.97H62.1002C60.6302 102.97 59.4502 104.16 59.4502 105.62C59.4502 107.08 60.6402 108.27 62.1002 108.27H140.1C141.57 108.27 142.75 107.08 142.75 105.62H142.76Z" fill="#027DB3"/>
<path d="M62.1002 126.87H77.6202C79.0902 126.87 80.2702 125.68 80.2702 124.22C80.2702 122.76 79.0802 121.57 77.6202 121.57H62.1002C60.6302 121.57 59.4502 122.76 59.4502 124.22C59.4502 125.68 60.6402 126.87 62.1002 126.87Z" fill="#027DB3"/>
<path d="M129.45 124.21C129.45 122.74 128.26 121.56 126.8 121.56H89.0401C87.5701 121.56 86.3901 122.75 86.3901 124.21C86.3901 125.67 87.5801 126.86 89.0401 126.86H126.8C128.27 126.86 129.45 125.67 129.45 124.21Z" fill="#027DB3"/>
<path d="M110.58 142.81C110.58 141.34 109.39 140.16 107.93 140.16H62.11C60.64 140.16 59.46 141.35 59.46 142.81C59.46 144.27 60.65 145.46 62.11 145.46H107.93C109.4 145.46 110.58 144.27 110.58 142.81Z" fill="#027DB3"/>
<path d="M100.17 166.41C99.9199 166.5 93.8099 168.65 86.1099 164.36C70.8299 155.83 60.7799 164.31 60.3599 164.67C59.2599 165.63 59.1399 167.28 60.0899 168.39C61.0399 169.5 62.7099 169.63 63.8199 168.69C64.1299 168.43 71.6099 162.34 83.5199 168.99C88.2199 171.62 92.5399 172.32 95.8199 172.32C99.4899 172.32 101.86 171.44 102.05 171.37C103.41 170.85 104.08 169.33 103.57 167.96C103.06 166.59 101.53 165.9 100.16 166.4L100.17 166.41Z" fill="#027DB3"/>
<path d="M120.7 162.71L140.94 154.06H140.97C141.26 153.94 141.52 153.75 141.75 153.52L194.32 100.95C198.16 97.1101 198.87 91.8001 195.93 88.8601L191.33 84.2601C188.39 81.3201 183.08 82.0301 179.24 85.8701L126.67 138.44C126.45 138.66 126.27 138.94 126.13 139.22V139.25L117.48 159.49C117.08 160.41 117.31 161.46 118.02 162.17C118.73 162.88 119.78 163.1 120.7 162.71ZM180.62 91.4001L182.7 89.3201C184.6 87.4201 187.04 86.8801 187.87 87.7101L192.47 92.3101C193.2 93.0401 192.92 95.4201 190.86 97.4801L188.78 99.5601L180.62 91.4001ZM131.86 140.17L177.16 94.8701L185.32 103.03L140.02 148.33L131.86 140.17ZM129.23 144.46L135.73 150.96L124.38 155.8L129.22 144.45L129.23 144.46Z" fill="#027DB3"/>
<path d="M124.39 155.81L129.23 144.46L135.73 150.96L124.39 155.81Z" fill="#5CEBBE"/>
<path d="M188.79 99.5699L180.63 91.4099L182.71 89.3299C184.61 87.4299 187.05 86.8899 187.88 87.7199L192.48 92.3199C193.21 93.0499 192.93 95.4299 190.87 97.4899L188.79 99.5699Z" fill="#5CEBBE"/>
<path d="M177.17 94.8685L131.866 140.173L140.033 148.34L185.337 103.036L177.17 94.8685Z" fill="#83DFE8"/>
<path d="M124.19 65.72C123.23 53.14 112.59 43.6 100.14 43.8L102.79 41.3C103.86 40.29 103.9 38.61 102.9 37.54C101.89 36.47 100.21 36.42 99.1398 37.43L91.2398 44.89C90.1698 45.9 90.1298 47.58 91.1298 48.65L98.5898 56.55C98.7098 56.68 98.8398 56.79 98.9698 56.88C99.9798 57.61 101.4 57.54 102.34 56.65C103.41 55.64 103.45 53.96 102.45 52.89L98.8698 49.1C98.9498 49.1 99.0198 49.13 99.0998 49.13C109.24 48.36 118.12 55.98 118.89 66.12C119.66 76.26 112.04 85.14 101.9 85.91C96.9898 86.28 92.2298 84.73 88.4898 81.51C84.7498 78.3 82.4898 73.83 82.1098 68.92C81.9998 67.46 80.7198 66.36 79.2598 66.47C77.7998 66.58 76.6998 67.86 76.8098 69.32C77.2898 75.65 80.2098 81.41 85.0198 85.54C85.5498 86 86.0998 86.43 86.6698 86.84C91.1998 90.09 96.6698 91.63 102.3 91.21C115.36 90.22 125.18 78.78 124.19 65.72Z" fill="#027DB3"/>
<path d="M105.56 63.53V70.63C105.56 72.54 102.44 72.56 102.44 70.63V64.13C102.44 63.6 102.34 63.21 102.15 62.98C101.96 62.75 101.58 62.63 101.02 62.63H95.4299C94.5499 62.63 93.8299 63.36 93.8299 64.25V75.61C93.8299 76.51 93.1099 77.23 92.2299 77.23C91.3499 77.23 90.6299 76.5 90.6299 75.61V61.28C90.6299 60.38 91.3499 59.66 92.2299 59.66H102.17C103.31 59.66 104.16 59.97 104.72 60.58C105.28 61.19 105.56 62.18 105.56 63.53ZM111.57 60.58V72.88C111.57 74.32 111.24 75.41 110.58 76.14C109.92 76.87 109.04 77.24 107.92 77.24H98.2499C97.3699 77.24 96.6499 76.51 96.6499 75.62V67.05C96.6499 66.15 97.3699 65.43 98.2499 65.43C99.1299 65.43 99.8499 66.16 99.8499 67.05V72.69C99.8499 73.59 100.57 74.31 101.45 74.31H107.05C107.61 74.31 107.97 74.2 108.15 73.98C108.32 73.76 108.41 73.38 108.41 72.85V60.59C108.41 58.78 111.57 58.8 111.57 60.59V60.58Z" fill="#027DB3"/>
</svg>
