<svg width="216" height="216" viewBox="0 0 216 216" fill="none" xmlns="http://www.w3.org/2000/svg">
<path d="M119.48 63.7101C117.82 63.7101 116.46 62.4801 116.46 60.9101V32.6001H42.04V157.86H139.89L150.07 148.46V63.7101H119.48ZM137.84 145.88C137.84 147.45 136.51 148.68 134.82 148.68H57.26C55.57 148.68 54.24 147.45 54.24 145.88V80.9701C54.24 79.4301 55.57 78.1701 57.26 78.1701H103.5C104.32 78.1701 105.07 78.4801 105.64 78.9801C106.21 79.5101 106.52 80.2401 106.52 80.9701V99.2701H118.78C120.44 99.2701 121.8 100.53 121.8 102.07V122.35C121.8 123.89 120.44 125.15 118.78 125.15H84.14C82.45 125.15 81.12 123.89 81.12 122.35V97.6501C81.12 96.1101 82.45 94.8501 84.14 94.8501C85.83 94.8501 87.16 96.1101 87.16 97.6501V119.56H115.76V104.87H103.5C102.68 104.87 101.93 104.59 101.36 104.06C100.79 103.53 100.48 102.83 100.48 102.07V83.7701H60.28V143.08H69.94V132.45C69.94 130.91 71.3 129.65 72.96 129.65C74.62 129.65 75.98 130.91 75.98 132.45V143.08H98.99V132.45C98.99 130.91 100.35 129.65 102.01 129.65H117.74C119.4 129.65 120.76 130.91 120.76 132.45C120.76 133.99 119.4 135.25 117.74 135.25H105.03V143.08H131.79V83.7701H113.52C111.86 83.7701 110.5 82.5101 110.5 80.9701C110.5 79.4301 111.86 78.1701 113.52 78.1701H134.81C136.5 78.1701 137.83 79.4301 137.83 80.9701V145.88H137.84Z" fill="#E6F9FA"/>
<path d="M135.6 78.1699H56.4802C55.2431 78.1699 54.2402 79.1728 54.2402 80.4099V146.43C54.2402 147.667 55.2431 148.67 56.4802 148.67H135.6C136.837 148.67 137.84 147.667 137.84 146.43V80.4099C137.84 79.1728 136.837 78.1699 135.6 78.1699Z" fill="#83DFE8"/>
<path d="M137.84 80.9699V145.88C137.84 147.45 136.51 148.68 134.82 148.68H57.2602C55.5702 148.68 54.2402 147.45 54.2402 145.88V80.9699C54.2402 79.4299 55.5702 78.1699 57.2602 78.1699H103.5C104.32 78.1699 105.07 78.4799 105.64 78.9799C106.21 79.5099 106.52 80.2399 106.52 80.9699V99.2699H118.78C120.44 99.2699 121.8 100.53 121.8 102.07V122.35C121.8 123.89 120.44 125.15 118.78 125.15H84.1402C82.4502 125.15 81.1202 123.89 81.1202 122.35V97.6499C81.1202 96.1099 82.4502 94.8499 84.1402 94.8499C85.8302 94.8499 87.1602 96.1099 87.1602 97.6499V119.56H115.76V104.87H103.5C102.68 104.87 101.93 104.59 101.36 104.06C100.79 103.53 100.48 102.83 100.48 102.07V83.7699H60.2802V143.08H69.9402V132.45C69.9402 130.91 71.3002 129.65 72.9602 129.65C74.6202 129.65 75.9802 130.91 75.9802 132.45V143.08H98.9902V132.45C98.9902 130.91 100.35 129.65 102.01 129.65H117.74C119.4 129.65 120.76 130.91 120.76 132.45C120.76 133.99 119.4 135.25 117.74 135.25H105.03V143.08H131.79V83.7699H113.52C111.86 83.7699 110.5 82.5099 110.5 80.9699C110.5 79.4299 111.86 78.1699 113.52 78.1699H134.81C136.5 78.1699 137.83 79.4299 137.83 80.9699H137.84Z" fill="#027DB3"/>
<path d="M187.16 116.53C186.01 116.08 184.71 116.33 183.87 117.15L156.11 142.86V60.91C156.11 60.83 156.05 60.71 156.05 60.63C156.02 60.46 155.99 60.29 155.93 60.13C155.87 59.97 155.84 59.82 155.75 59.68C155.66 59.51 155.54 59.37 155.42 59.23C155.33 59.12 155.27 59.01 155.15 58.89L121.63 27.81C121.36 27.59 121.03 27.39 120.72 27.25C120.66 27.25 120.6 27.22 120.51 27.19C120.21 27.11 119.91 27.02 119.6 27.02C119.54 27.02 119.51 26.99 119.48 26.99H39.02C37.33 26.99 36 28.25 36 29.79V160.64C36 162.18 37.33 163.44 39.02 163.44H133.85L101.72 193.21C100.84 194.02 100.6 195.22 101.06 196.26C101.54 197.32 102.63 197.99 103.87 197.99H185.99C187.68 197.99 189.01 196.73 189.01 195.19V119.09C189.01 117.97 188.29 116.94 187.17 116.52L187.16 116.53ZM122.5 36.54L145.79 58.11H122.5V36.54ZM42.04 157.85V32.6H116.46V60.91C116.46 62.48 117.82 63.71 119.48 63.71H150.07V148.45L139.89 157.85H42.04ZM182.96 192.4H111.14L143.27 162.63L143.3 162.6L155.2 151.58H155.23L182.95 125.87V192.4H182.96Z" fill="#027DB3"/>
<path d="M155.23 151.58H155.2L143.3 162.6L143.27 162.63L111.14 192.4H182.96V125.87L155.24 151.58H155.23ZM174.44 181.72C174.44 183.26 173.11 184.52 171.42 184.52H139.07C137.86 184.52 136.77 183.85 136.29 182.79C135.84 181.75 136.08 180.55 136.95 179.74L169.3 149.78C170.15 149 171.44 148.74 172.59 149.19C173.71 149.61 174.43 150.64 174.43 151.76V181.72H174.44Z" fill="#5CEBBE"/>
<path d="M145.78 58.11H122.5V36.54L145.78 58.11Z" fill="#5CEBBE"/>
<path d="M172.6 149.18C171.45 148.73 170.15 148.98 169.31 149.77L136.96 179.73C136.08 180.54 135.84 181.74 136.3 182.78C136.78 183.84 137.87 184.51 139.08 184.51H171.43C173.12 184.51 174.45 183.25 174.45 181.71V151.75C174.45 150.63 173.73 149.6 172.61 149.18H172.6ZM168.4 178.92H146.38L168.4 158.52V178.92Z" fill="#027DB3"/>
</svg>
