<svg width="216" height="216" viewBox="0 0 216 216" fill="none" xmlns="http://www.w3.org/2000/svg">
<path d="M160.83 145.76C162.43 144.39 164.82 143.33 167.37 142.21C171.33 140.48 175.82 138.51 178.15 134.65C180.48 130.86 180.06 126.39 179.65 122.11C179.36 119.23 179.11 116.52 179.71 114.4C180.25 112.4 181.85 110.27 183.57 107.99C186.12 104.56 188.99 100.7 188.99 96.1201C188.99 91.5401 186.12 87.6801 183.57 84.2801C181.85 82.0001 180.25 79.8501 179.71 77.8401C179.1 75.7201 179.36 73.0101 179.65 70.1601C180.06 65.8501 180.48 61.4201 178.15 57.5901C175.82 53.7301 171.32 51.7601 167.37 50.0601C164.66 48.8501 162.11 47.7501 160.51 46.2301C158.91 44.7101 157.73 42.2501 156.49 39.6701C154.67 35.9101 152.6 31.6201 148.55 29.4101C144.53 27.1901 139.87 27.5901 135.37 27.9801C132.34 28.2501 129.5 28.5001 127.27 27.9201C125.16 27.4001 122.9 25.8901 120.54 24.2501C116.93 21.8501 112.88 19.0901 108.07 19.0901C103.26 19.0901 99.1999 21.8501 95.5999 24.2501C93.2399 25.8901 90.9699 27.4101 88.8699 27.9201C86.6399 28.5001 83.7999 28.2501 80.7699 27.9801C76.2699 27.5901 71.6099 27.1901 67.5899 29.4101C63.5399 31.6301 61.4599 35.9101 59.6499 39.6701C58.4099 42.2501 57.2299 44.7101 55.6299 46.2301C54.0299 47.7501 51.4799 48.8401 48.7699 50.0201C44.8099 51.7501 40.3199 53.7201 37.9899 57.5801C35.6599 61.4101 36.0799 65.8401 36.4899 70.1501C36.7799 73.0001 37.0299 75.7101 36.4299 77.8301C35.8899 79.8301 34.2899 81.9901 32.5699 84.2701C30.0199 87.6701 27.1499 91.5601 27.1499 96.1101C27.1499 100.66 30.0199 104.55 32.5699 107.98C34.2899 110.26 35.8899 112.38 36.4299 114.39C37.0399 116.52 36.7799 119.22 36.4899 122.1C36.0799 126.38 35.6599 130.84 37.9899 134.64C40.3199 138.5 44.8199 140.47 48.7699 142.2C51.4799 143.38 54.0299 144.51 55.6299 146.03C55.7599 146.15 55.8899 146.3 56.0099 146.46L31.4699 169.84C30.6099 170.66 30.3199 171.81 30.6699 172.91C31.0199 173.97 31.9799 174.79 33.1599 174.97L58.1099 179.22L62.5799 203.02C62.7999 204.11 63.6299 205.02 64.7799 205.36C65.0699 205.45 65.3899 205.51 65.7399 205.51C66.5699 205.51 67.3699 205.21 67.9699 204.63L102.36 171.9C104.15 172.66 106.03 173.14 108.07 173.14C110.46 173.14 112.7 172.47 114.77 171.47L149.61 204.62C150.22 205.2 151.05 205.5 151.88 205.5C152.2 205.5 152.52 205.44 152.84 205.35C153.96 205.02 154.82 204.11 155.01 202.98L159.48 179.21L184.43 174.96C185.61 174.78 186.57 173.96 186.92 172.9C187.27 171.81 186.98 170.65 186.12 169.83L160.85 145.76H160.83ZM67.7599 196.22L63.9999 176.06C63.7799 174.82 62.7199 173.84 61.4199 173.6L40.2999 170.02L59.3199 151.9C59.4199 152.14 59.5399 152.36 59.6399 152.57C61.4599 156.33 63.5299 160.62 67.5799 162.86C71.5999 165.05 76.2599 164.65 80.7599 164.26C83.7899 163.99 86.6299 163.74 88.8599 164.32C90.9699 164.87 93.2299 166.38 95.5899 167.99C95.9699 168.23 96.3199 168.48 96.6699 168.72L67.7599 196.23V196.22ZM108.06 167.07C105.28 167.07 102.38 165.13 99.2899 163.03C96.5499 161.18 93.7099 159.27 90.5199 158.45C88.8899 158.02 87.2299 157.9 85.5399 157.9C83.7499 157.9 81.9699 158.05 80.1799 158.2C76.5099 158.5 72.9999 158.81 70.7699 157.59C68.4699 156.31 67.0099 153.25 65.4399 150.03C63.9999 147.05 62.5399 144.02 60.1399 141.71C57.7499 139.43 54.5199 138.04 51.3999 136.67C48.0199 135.18 44.7999 133.79 43.4899 131.6C42.1799 129.47 42.4999 126.14 42.8199 122.64C43.1399 119.36 43.4599 115.99 42.5599 112.8C41.7299 109.76 39.6899 107.06 37.7399 104.45C35.5699 101.51 33.4999 98.7401 33.4999 96.1001C33.4999 93.4601 35.5699 90.7001 37.7399 87.7501C39.6899 85.1401 41.7299 82.4401 42.5599 79.4001C43.4499 76.2101 43.1299 72.8401 42.8199 69.5601C42.4999 66.0701 42.1799 62.7601 43.4899 60.6001C44.7999 58.4101 48.0199 57.0201 51.3999 55.5301C54.5299 54.1901 57.7499 52.7701 60.1399 50.4901C62.5299 48.2101 63.9999 45.1501 65.4399 42.1701C66.9999 38.9501 68.4699 35.9201 70.7699 34.6401C72.9999 33.4001 76.5099 33.7001 80.1799 34.0301C83.6299 34.3001 87.1699 34.6401 90.5199 33.7901C93.7099 32.9701 96.5499 31.0601 99.2899 29.2101C102.38 27.1201 105.29 25.1401 108.06 25.1401C110.83 25.1401 113.74 27.1101 116.83 29.2101C119.57 31.0601 122.41 32.9701 125.6 33.7901C128.95 34.6401 132.49 34.3101 135.94 34.0301C139.61 33.7001 143.09 33.3901 145.35 34.6401C147.65 35.9201 149.11 38.9501 150.68 42.2001C152.12 45.1401 153.58 48.2101 155.98 50.4901C158.37 52.7701 161.6 54.1901 164.72 55.5301C168.1 57.0201 171.32 58.4101 172.63 60.6001C173.94 62.7601 173.62 66.0601 173.3 69.5601C172.98 72.8401 172.66 76.2101 173.56 79.4001C174.39 82.4401 176.43 85.1401 178.38 87.7501C180.55 90.6901 182.62 93.4601 182.62 96.1001C182.62 98.7401 180.55 101.5 178.38 104.45C176.4 107.06 174.39 109.76 173.56 112.8C172.67 115.99 172.99 119.36 173.3 122.64C173.62 126.16 173.94 129.47 172.63 131.6C171.32 133.79 168.1 135.18 164.72 136.67C161.59 138.04 158.37 139.43 155.98 141.71C153.59 144.02 152.12 147.05 150.68 150.03C149.12 153.25 147.65 156.31 145.35 157.59C143.08 158.8 139.61 158.5 135.94 158.2C132.49 157.9 128.95 157.59 125.6 158.44C122.41 159.26 119.57 161.17 116.83 163.02C113.74 165.11 110.83 167.06 108.06 167.06V167.07ZM156.14 173.6C154.83 173.84 153.78 174.81 153.56 176.06L149.8 196.22L120.29 168.14C120.39 168.08 120.45 168.05 120.55 167.99C122.91 166.38 125.18 164.86 127.28 164.32C129.51 163.74 132.35 163.99 135.38 164.26C139.88 164.65 144.57 165.05 148.56 162.86C152.61 160.61 154.69 156.33 156.5 152.57C156.76 152.02 157.01 151.51 157.27 150.96L177.31 170.03L156.16 173.61L156.14 173.6Z" fill="#027DB3"/>
<path d="M145.13 91.4499L111.02 58.9999C109.84 57.8799 107.7 57.8799 106.52 58.9999L72.41 91.4499C71.17 92.6299 71.17 94.5799 72.41 95.7599C73.65 96.9399 75.66 96.9399 76.91 95.7599L81.47 91.4199V123.27C81.47 124.97 82.87 126.31 84.66 126.31H132.9C134.65 126.31 136.09 124.97 136.09 123.27V91.4199L140.62 95.7599C141.23 96.3399 142.06 96.6399 142.89 96.6399C143.72 96.6399 144.52 96.3399 145.12 95.7599C146.36 94.5799 146.36 92.6299 145.12 91.4499H145.13ZM114.76 120.23H102.8V102.11H114.76V120.23ZM129.72 120.23H121.14V99.0699C121.14 97.3999 119.7 96.0299 117.95 96.0299H99.6C97.85 96.0299 96.41 97.3999 96.41 99.0699V120.23H87.86V85.3499L108.79 65.4299L129.72 85.3499V120.23Z" fill="#027DB3"/>
<path d="M108.06 41.1399C76.1898 41.1399 50.2798 65.8199 50.2798 96.1199C50.2798 126.42 76.1898 151.1 108.06 151.1C139.93 151.1 165.84 126.45 165.84 96.1199C165.84 65.7899 139.93 41.1399 108.06 41.1399ZM108.06 145.03C79.7298 145.03 56.6598 123.08 56.6598 96.1199C56.6598 69.1599 79.7298 47.2099 108.06 47.2099C136.39 47.2099 159.46 69.1599 159.46 96.1199C159.46 123.08 136.39 145.03 108.06 145.03Z" fill="#027DB3"/>
</svg>
