<svg width="216" height="216" viewBox="0 0 216 216" fill="none" xmlns="http://www.w3.org/2000/svg">
<path d="M160.71 144.66C162.31 143.29 164.7 142.23 167.25 141.11C171.21 139.38 175.7 137.41 178.03 133.55C180.36 129.76 179.94 125.29 179.53 121.01C179.24 118.13 178.99 115.42 179.59 113.3C180.13 111.3 181.73 109.17 183.45 106.89C186 103.46 188.87 99.6002 188.87 95.0202C188.87 90.4402 186 86.5802 183.45 83.1802C181.73 80.9002 180.13 78.7502 179.59 76.7402C178.98 74.6202 179.24 71.9102 179.53 69.0602C179.94 64.7502 180.36 60.3202 178.03 56.4902C175.7 52.6302 171.2 50.6602 167.25 48.9602C164.54 47.7502 161.99 46.6502 160.39 45.1302C158.79 43.6102 157.61 41.1502 156.37 38.5702C154.55 34.8102 152.48 30.5202 148.43 28.3102C144.41 26.0902 139.75 26.4902 135.25 26.8802C132.22 27.1502 129.38 27.4002 127.15 26.8202C125.04 26.3002 122.78 24.7902 120.42 23.1502C116.81 20.7502 112.76 17.9902 107.95 17.9902C103.14 17.9902 99.0798 20.7502 95.4798 23.1502C93.1198 24.7902 90.8498 26.3102 88.7498 26.8202C86.5198 27.4002 83.6798 27.1502 80.6498 26.8802C76.1498 26.4902 71.4898 26.0902 67.4698 28.3102C63.4198 30.5302 61.3398 34.8102 59.5298 38.5702C58.2898 41.1502 57.1098 43.6102 55.5098 45.1302C53.9098 46.6502 51.3598 47.7402 48.6498 48.9202C44.6898 50.6502 40.1998 52.6202 37.8698 56.4802C35.5398 60.3102 35.9598 64.7402 36.3698 69.0502C36.6598 71.9002 36.9098 74.6102 36.3098 76.7302C35.7698 78.7302 34.1698 80.8902 32.4498 83.1702C29.8998 86.5702 27.0298 90.4602 27.0298 95.0102C27.0298 99.5602 29.8998 103.45 32.4498 106.88C34.1698 109.16 35.7698 111.28 36.3098 113.29C36.9198 115.42 36.6598 118.12 36.3698 121C35.9598 125.28 35.5398 129.74 37.8698 133.54C40.1998 137.4 44.6998 139.37 48.6498 141.1C51.3598 142.28 53.9098 143.41 55.5098 144.93C55.6398 145.05 55.7698 145.2 55.8898 145.36L31.3498 168.74C30.4898 169.56 30.1998 170.71 30.5498 171.81C30.8998 172.87 31.8598 173.69 33.0398 173.87L57.9898 178.12L62.4598 201.92C62.6798 203.01 63.5098 203.92 64.6598 204.26C64.9498 204.35 65.2698 204.41 65.6198 204.41C66.4498 204.41 67.2498 204.11 67.8498 203.53L102.24 170.8C104.03 171.56 105.91 172.04 107.95 172.04C110.34 172.04 112.58 171.37 114.65 170.37L149.49 203.52C150.1 204.1 150.93 204.4 151.76 204.4C152.08 204.4 152.4 204.34 152.72 204.25C153.84 203.92 154.7 203.01 154.89 201.88L159.36 178.11L184.31 173.86C185.49 173.68 186.45 172.86 186.8 171.8C187.15 170.71 186.86 169.55 186 168.73L160.73 144.66H160.71ZM67.6498 195.11L63.8898 174.95C63.6698 173.71 62.6098 172.73 61.3098 172.49L40.1898 168.91L59.2098 150.79C59.3098 151.03 59.4298 151.25 59.5298 151.46C61.3498 155.22 63.4198 159.51 67.4698 161.75C71.4898 163.94 76.1498 163.54 80.6498 163.15C83.6798 162.88 86.5198 162.63 88.7498 163.21C90.8598 163.76 93.1198 165.27 95.4798 166.88C95.8598 167.12 96.2098 167.37 96.5598 167.61L67.6498 195.12V195.11ZM107.94 165.97C105.16 165.97 102.26 164.03 99.1698 161.93C96.4298 160.08 93.5898 158.17 90.3998 157.35C88.7698 156.92 87.1098 156.8 85.4198 156.8C83.6298 156.8 81.8498 156.95 80.0598 157.1C76.3898 157.4 72.8798 157.71 70.6498 156.49C68.3498 155.21 66.8898 152.15 65.3198 148.93C63.8798 145.95 62.4198 142.92 60.0198 140.61C57.6298 138.33 54.3998 136.94 51.2798 135.57C47.8998 134.08 44.6798 132.69 43.3698 130.5C42.0598 128.37 42.3798 125.04 42.6998 121.54C43.0198 118.26 43.3398 114.89 42.4398 111.7C41.6098 108.66 39.5698 105.96 37.6198 103.35C35.4498 100.41 33.3798 97.6402 33.3798 95.0002C33.3798 92.3602 35.4498 89.6002 37.6198 86.6502C39.5698 84.0402 41.6098 81.3402 42.4398 78.3002C43.3298 75.1102 43.0098 71.7402 42.6998 68.4602C42.3798 64.9702 42.0598 61.6602 43.3698 59.5002C44.6798 57.3102 47.8998 55.9202 51.2798 54.4302C54.4098 53.0902 57.6298 51.6702 60.0198 49.3902C62.4098 47.1102 63.8798 44.0502 65.3198 41.0702C66.8798 37.8502 68.3498 34.8202 70.6498 33.5402C72.8798 32.3002 76.3898 32.6002 80.0598 32.9302C83.5098 33.2002 87.0498 33.5402 90.3998 32.6902C93.5898 31.8702 96.4298 29.9602 99.1698 28.1102C102.26 26.0202 105.17 24.0402 107.94 24.0402C110.71 24.0402 113.62 26.0102 116.71 28.1102C119.45 29.9602 122.29 31.8702 125.48 32.6902C128.83 33.5402 132.37 33.2102 135.82 32.9302C139.49 32.6002 142.97 32.2902 145.23 33.5402C147.53 34.8202 148.99 37.8502 150.56 41.1002C152 44.0402 153.46 47.1102 155.86 49.3902C158.25 51.6702 161.48 53.0902 164.6 54.4302C167.98 55.9202 171.2 57.3102 172.51 59.5002C173.82 61.6602 173.5 64.9602 173.18 68.4602C172.86 71.7402 172.54 75.1102 173.44 78.3002C174.27 81.3402 176.31 84.0402 178.26 86.6502C180.43 89.5902 182.5 92.3602 182.5 95.0002C182.5 97.6402 180.43 100.4 178.26 103.35C176.28 105.96 174.27 108.66 173.44 111.7C172.55 114.89 172.87 118.26 173.18 121.54C173.5 125.06 173.82 128.37 172.51 130.5C171.2 132.69 167.98 134.08 164.6 135.57C161.47 136.94 158.25 138.33 155.86 140.61C153.47 142.92 152 145.95 150.56 148.93C149 152.15 147.53 155.21 145.23 156.49C142.96 157.7 139.49 157.4 135.82 157.1C132.37 156.8 128.83 156.49 125.48 157.34C122.29 158.16 119.45 160.07 116.71 161.92C113.62 164.01 110.71 165.96 107.94 165.96V165.97ZM156.02 172.5C154.71 172.74 153.66 173.71 153.44 174.96L149.68 195.12L120.17 167.04C120.27 166.98 120.33 166.95 120.43 166.89C122.79 165.28 125.06 163.76 127.16 163.22C129.39 162.64 132.23 162.89 135.26 163.16C139.76 163.55 144.45 163.95 148.44 161.76C152.49 159.51 154.57 155.23 156.38 151.47C156.64 150.92 156.89 150.41 157.15 149.86L177.19 168.93L156.04 172.51L156.02 172.5Z" fill="#027DB3"/>
<path d="M177.18 168.91L156.03 172.49C154.72 172.73 153.67 173.7 153.45 174.95L149.69 195.11L120.18 167.03C120.28 166.97 120.34 166.94 120.44 166.88C122.8 165.27 125.07 163.75 127.17 163.21C129.4 162.63 132.24 162.88 135.27 163.15C139.77 163.54 144.46 163.94 148.45 161.75C152.5 159.5 154.58 155.22 156.39 151.46C156.65 150.91 156.9 150.4 157.16 149.85L177.2 168.92L177.18 168.91Z" fill="#5CEBBE"/>
<path d="M178.26 103.37C180.43 100.43 182.5 97.6601 182.5 95.0201C182.5 92.3801 180.43 89.6201 178.26 86.6701C176.31 84.0601 174.27 81.3601 173.44 78.3201C172.55 75.1301 172.87 71.7601 173.18 68.4801C173.5 64.9901 173.82 61.6801 172.51 59.5201C171.2 57.3301 167.98 55.9401 164.6 54.4501C161.47 53.1101 158.25 51.6901 155.86 49.4101C153.47 47.1301 152 44.0701 150.56 41.1201C149 37.8701 147.53 34.8401 145.23 33.5601C142.96 32.3201 139.49 32.6201 135.82 32.9501C132.37 33.2201 128.83 33.5601 125.48 32.7101C122.29 31.8901 119.45 29.9801 116.71 28.1301C113.62 26.0401 110.71 24.0601 107.94 24.0601C105.17 24.0601 102.26 26.0301 99.1699 28.1301C96.4299 29.9801 93.5899 31.8901 90.3999 32.7101C87.0499 33.5601 83.5099 33.2301 80.0599 32.9501C76.3899 32.6201 72.8799 32.3101 70.6499 33.5601C68.3499 34.8401 66.8899 37.8701 65.3199 41.0901C63.8799 44.0701 62.4199 47.1301 60.0199 49.4101C57.6299 51.6901 54.3999 53.1101 51.2799 54.4501C47.8999 55.9401 44.6799 57.3301 43.3699 59.5201C42.0599 61.6801 42.3799 64.9801 42.6999 68.4801C43.0199 71.7601 43.3399 75.1301 42.4399 78.3201C41.6099 81.3601 39.5699 84.0601 37.6199 86.6701C35.4499 89.6101 33.3799 92.3801 33.3799 95.0201C33.3799 97.6601 35.4499 100.42 37.6199 103.37C39.5699 105.98 41.6099 108.68 42.4399 111.72C43.3299 114.91 43.0099 118.28 42.6999 121.56C42.3799 125.05 42.0599 128.39 43.3699 130.52C44.6799 132.71 47.8999 134.1 51.2799 135.59C54.4099 136.96 57.6299 138.35 60.0199 140.63C62.4099 142.94 63.8799 145.97 65.3199 148.95C66.8799 152.17 68.3499 155.23 70.6499 156.51C72.8799 157.72 76.3899 157.42 80.0599 157.12C81.8499 156.97 83.6299 156.82 85.4199 156.82C87.1099 156.82 88.7699 156.94 90.3999 157.37C93.5899 158.19 96.4299 160.1 99.1699 161.95C102.26 164.04 105.17 165.99 107.94 165.99C110.71 165.99 113.62 164.05 116.71 161.95C119.45 160.1 122.29 158.19 125.48 157.37C128.83 156.52 132.37 156.82 135.82 157.13C139.49 157.43 142.97 157.74 145.23 156.52C147.53 155.24 148.99 152.18 150.56 148.96C152 145.98 153.46 142.95 155.86 140.64C158.25 138.36 161.48 136.97 164.6 135.6C167.98 134.11 171.2 132.72 172.51 130.53C173.82 128.4 173.5 125.1 173.18 121.57C172.86 118.29 172.54 114.92 173.44 111.73C174.27 108.69 176.28 105.99 178.26 103.38V103.37ZM107.94 150C76.0699 150 50.1599 125.35 50.1599 95.0201C50.1599 64.6901 76.0699 40.0401 107.94 40.0401C139.81 40.0401 165.72 64.7201 165.72 95.0201C165.72 125.32 139.81 150 107.94 150Z" fill="#83DFE8"/>
<path d="M96.5502 167.61L67.6402 195.12L63.8802 174.96C63.6602 173.72 62.6002 172.74 61.3002 172.5L40.1802 168.92L59.2002 150.8C59.3002 151.04 59.4202 151.26 59.5202 151.47C61.3402 155.23 63.4102 159.52 67.4602 161.76C71.4802 163.95 76.1402 163.55 80.6402 163.16C83.6702 162.89 86.5102 162.64 88.7402 163.22C90.8502 163.77 93.1102 165.28 95.4702 166.89C95.8502 167.13 96.2002 167.38 96.5502 167.62V167.61Z" fill="#5CEBBE"/>
<path d="M145.02 90.3501L110.91 57.9001C109.73 56.7801 107.59 56.7801 106.41 57.9001L72.3001 90.3501C71.0601 91.5301 71.0601 93.4801 72.3001 94.6601C73.5401 95.8401 75.5501 95.8401 76.8001 94.6601L81.3601 90.3201V122.17C81.3601 123.87 82.7601 125.21 84.5501 125.21H132.79C134.54 125.21 135.98 123.87 135.98 122.17V90.3201L140.51 94.6601C141.12 95.2401 141.95 95.5401 142.78 95.5401C143.61 95.5401 144.41 95.2401 145.01 94.6601C146.25 93.4801 146.25 91.5301 145.01 90.3501H145.02ZM114.64 119.13H102.68V101.01H114.64V119.13ZM129.61 119.13H121.03V97.9701C121.03 96.3001 119.59 94.9301 117.84 94.9301H99.4901C97.7401 94.9301 96.3001 96.3001 96.3001 97.9701V119.13H87.7501V84.2501L108.68 64.3301L129.61 84.2501V119.13Z" fill="#027DB3"/>
<path d="M107.94 40.04C76.0702 40.04 50.1602 64.72 50.1602 95.02C50.1602 125.32 76.0702 150 107.94 150C139.81 150 165.72 125.35 165.72 95.02C165.72 64.69 139.81 40.04 107.94 40.04ZM107.94 143.93C79.6102 143.93 56.5402 121.98 56.5402 95.02C56.5402 68.06 79.6102 46.11 107.94 46.11C136.27 46.11 159.34 68.06 159.34 95.02C159.34 121.98 136.27 143.93 107.94 143.93Z" fill="#027DB3"/>
<path d="M107.94 46.1099C79.61 46.1099 56.54 68.0599 56.54 95.0199C56.54 121.98 79.61 143.93 107.94 143.93C136.27 143.93 159.34 121.98 159.34 95.0199C159.34 68.0599 136.27 46.1099 107.94 46.1099ZM142.78 95.5399C141.95 95.5399 141.12 95.2399 140.51 94.6599L135.98 90.3199V122.17C135.98 123.87 134.54 125.21 132.79 125.21H84.55C82.76 125.21 81.36 123.87 81.36 122.17V90.3199L76.8 94.6599C75.56 95.8399 73.55 95.8399 72.3 94.6599C71.06 93.4799 71.06 91.5299 72.3 90.3499L106.41 57.8999C107.59 56.7799 109.73 56.7799 110.91 57.8999L145.02 90.3499C146.26 91.5299 146.26 93.4799 145.02 94.6599C144.41 95.2399 143.58 95.5399 142.79 95.5399H142.78Z" fill="#E6F9FA"/>
<path d="M129.61 84.2398V119.12H121.03V97.9598C121.03 96.2898 119.59 94.9198 117.84 94.9198H99.49C97.74 94.9198 96.3 96.2898 96.3 97.9598V119.12H87.75V84.2398L108.68 64.3198L129.61 84.2398Z" fill="#5CEBBE"/>
<path d="M114.64 101H102.68V119.12H114.64V101Z" fill="#E6F9FA"/>
</svg>
