<svg width="216" height="216" viewBox="0 0 216 216" fill="none" xmlns="http://www.w3.org/2000/svg">
<path d="M45.45 72.7098H45.41C40.03 72.7098 37.76 66.1598 42.07 63.0898L103.24 19.6098C105.66 17.8898 108.96 17.8898 111.38 19.6098L172.55 63.0898C176.87 66.1598 174.59 72.7098 169.21 72.7098H45.45Z" fill="#83DFE8"/>
<path d="M45.4502 125.75V72.7101L105.84 31.5301C106.72 30.9301 107.91 30.9301 108.8 31.5301L169.19 72.7101V125.75H45.4502Z" fill="#E6F9FA"/>
<path d="M138.49 38.87V27.23H161.4V55.15L138.49 38.87Z" fill="#5CEBBE"/>
<path d="M177.81 125.75H38.1899C33.6225 125.75 29.9199 129.453 29.9199 134.02V177.7C29.9199 182.267 33.6225 185.97 38.1899 185.97H177.81C182.377 185.97 186.08 182.267 186.08 177.7V134.02C186.08 129.453 182.377 125.75 177.81 125.75Z" fill="#5CEBBE"/>
<path d="M169.19 128.67H45.4503C43.8403 128.67 42.5303 127.36 42.5303 125.75V72.71C42.5303 71.74 43.0103 70.84 43.8003 70.3L104.19 29.12C106.06 27.85 108.57 27.85 110.43 29.12L170.83 70.3C171.63 70.84 172.1 71.75 172.1 72.71V125.75C172.1 127.36 170.79 128.67 169.18 128.67H169.19ZM48.3703 122.83H166.27V74.25L107.32 34.05L48.3703 74.25V122.83Z" fill="#027DB3"/>
<path d="M169.23 75.6301C167.62 75.6301 166.29 74.3201 166.29 72.7101C166.29 71.1001 167.58 69.7901 169.19 69.7901C170.71 69.7901 171.52 68.8901 171.79 68.0401C171.94 67.5701 172.15 66.3901 170.87 65.4801L109.7 22.0001C108.29 21.0101 106.34 21.0101 104.94 22.0001L43.7699 65.4801C42.4899 66.3901 42.6999 67.5801 42.8499 68.0401C43.1199 68.8901 43.9399 69.7901 45.4199 69.7901C47.0299 69.7901 48.3599 71.1001 48.3599 72.7101C48.3599 74.3201 47.0699 75.6301 45.4599 75.6301H45.4199C41.6099 75.6301 38.4199 73.3501 37.2899 69.8101C36.1999 66.4001 37.4199 62.8301 40.3899 60.7101L101.56 17.2301C105 14.7801 109.64 14.7801 113.08 17.2301L174.25 60.7101C177.22 62.8201 178.44 66.3901 177.35 69.8101C176.22 73.3401 173.03 75.6301 169.22 75.6301H169.23Z" fill="#027DB3"/>
<path d="M161.39 58.0701C159.78 58.0701 158.47 56.7601 158.47 55.1501V30.1501H141.4V38.8701C141.4 40.4801 140.09 41.7901 138.48 41.7901C136.87 41.7901 135.56 40.4801 135.56 38.8701V27.2301C135.56 25.6201 136.87 24.3101 138.48 24.3101H161.39C163 24.3101 164.31 25.6201 164.31 27.2301V55.1501C164.31 56.7601 163 58.0701 161.39 58.0701Z" fill="#027DB3"/>
<path d="M177.81 188.88H38.19C32.02 188.88 27 183.86 27 177.69V134.01C27 127.84 32.02 122.82 38.19 122.82H177.82C183.99 122.82 189.01 127.84 189.01 134.01V177.69C189.01 183.86 183.99 188.88 177.82 188.88H177.81ZM38.19 128.67C35.24 128.67 32.84 131.07 32.84 134.02V177.7C32.84 180.65 35.24 183.05 38.19 183.05H177.82C180.77 183.05 183.17 180.65 183.17 177.7V134.02C183.17 131.07 180.77 128.67 177.82 128.67H38.19Z" fill="#027DB3"/>
<path d="M60.6505 171.87C59.0405 171.87 57.7305 170.56 57.7305 168.95V142.22C57.7305 140.61 59.0405 139.3 60.6505 139.3H72.0205C76.5105 139.3 80.1605 142.57 80.1605 146.58V151.22C80.1605 155.24 76.5105 158.5 72.0205 158.5H63.5705V168.95C63.5705 170.56 62.2605 171.87 60.6505 171.87ZM63.5705 152.66H72.0205C73.3305 152.66 74.3205 151.9 74.3205 151.21V146.57C74.3205 145.89 73.3405 145.12 72.0205 145.12H63.5705V152.65V152.66Z" fill="#027DB3"/>
<path d="M77.24 171.87C76.26 171.87 75.31 171.38 74.76 170.49L66.46 157.12C65.61 155.75 66.03 153.95 67.4 153.1C68.77 152.25 70.57 152.67 71.42 154.04L79.72 167.41C80.57 168.78 80.15 170.58 78.78 171.43C78.3 171.73 77.77 171.87 77.24 171.87Z" fill="#027DB3"/>
<path d="M101.49 172.42H88.0303C86.4203 172.42 85.1104 171.11 85.1104 169.5V142.21C85.1104 140.6 86.4203 139.29 88.0303 139.29H102.36C103.97 139.29 105.28 140.6 105.28 142.21C105.28 143.82 103.97 145.13 102.36 145.13H90.9503V166.58H101.49C103.1 166.58 104.41 167.89 104.41 169.5C104.41 171.11 103.1 172.42 101.49 172.42Z" fill="#027DB3"/>
<path d="M102.37 158.78H88.0401C86.4301 158.78 85.1201 157.47 85.1201 155.86C85.1201 154.25 86.4301 152.94 88.0401 152.94H102.37C103.98 152.94 105.29 154.25 105.29 155.86C105.29 157.47 103.98 158.78 102.37 158.78Z" fill="#027DB3"/>
<path d="M131.02 172.42C130.04 172.42 129.11 171.93 128.56 171.08L116.42 152.17V169.51C116.42 171.12 115.11 172.43 113.5 172.43C111.89 172.43 110.58 171.12 110.58 169.51V142.22C110.58 140.92 111.44 139.78 112.68 139.42C113.92 139.05 115.26 139.55 115.96 140.64L128.1 159.55V142.21C128.1 140.6 129.41 139.29 131.02 139.29C132.63 139.29 133.94 140.6 133.94 142.21V169.5C133.94 170.8 133.08 171.94 131.84 172.3C131.57 172.38 131.29 172.42 131.02 172.42Z" fill="#027DB3"/>
<path d="M159.69 145.13H140.2C138.59 145.13 137.28 143.82 137.28 142.21C137.28 140.6 138.59 139.29 140.2 139.29H159.69C161.3 139.29 162.61 140.6 162.61 142.21C162.61 143.82 161.3 145.13 159.69 145.13Z" fill="#027DB3"/>
<path d="M149.94 171.87C148.33 171.87 147.02 170.56 147.02 168.95V142.22C147.02 140.61 148.33 139.3 149.94 139.3C151.55 139.3 152.86 140.61 152.86 142.22V168.95C152.86 170.56 151.55 171.87 149.94 171.87Z" fill="#027DB3"/>
</svg>
